<?xml version="1.0" encoding="UTF-8" standalone="no"?>
<svg
   xmlns:dc="http://purl.org/dc/elements/1.1/"
   xmlns:cc="http://creativecommons.org/ns#"
   xmlns:rdf="http://www.w3.org/1999/02/22-rdf-syntax-ns#"
   xmlns:svg="http://www.w3.org/2000/svg"
   xmlns="http://www.w3.org/2000/svg"
   id="svg8"
   version="1.1"
   viewBox="0 0 7.2713865 8.2295132"
   height="8.2295132mm"
   width="7.2713866mm">
  <defs
     id="defs2" />
  <metadata
     id="metadata5">
    <rdf:RDF>
      <cc:Work
         rdf:about="">
        <dc:format>image/svg+xml</dc:format>
        <dc:type
           rdf:resource="http://purl.org/dc/dcmitype/StillImage" />
        <dc:title></dc:title>
      </cc:Work>
    </rdf:RDF>
  </metadata>
  <g
     transform="translate(-42.536071,-33.636464)"
     id="layer1">
    <path
       id="path858"
       d="m 43.387384,41.84251 c -0.06281,-0.0272 -0.128045,-0.08683 -0.161871,-0.147929 -0.02206,-0.03986 -0.02563,-0.141215 -0.03227,-0.918423 l -0.0075,-0.873621 -0.164271,-0.0075 c -0.197229,-0.009 -0.271325,-0.03901 -0.371639,-0.150579 -0.119961,-0.133427 -0.113706,-0.0501 -0.113706,-1.514787 v -1.301654 l 0.0455,-0.09105 c 0.0886,-0.1773 0.206694,-0.243862 0.451045,-0.254222 l 0.160537,-0.0068 v -1.350177 c 0,-1.314079 7.87e-4,-1.351719 0.02943,-1.407872 0.03649,-0.07152 0.118359,-0.140522 0.193411,-0.163008 0.08394,-0.02515 4.001074,-0.02427 4.056339,9.14e-4 0.02983,0.01359 1.400995,1.558682 1.638347,1.846165 l 0.04102,0.04968 v 0.512148 0.512149 l 0.160538,0.007 c 0.123304,0.0054 0.176229,0.01453 0.228197,0.03936 0.100409,0.04796 0.166984,0.108991 0.216582,0.198537 l 0.0443,0.07998 0.0041,1.313087 c 0.0046,1.504469 0.01273,1.404944 -0.125439,1.543116 -0.107895,0.107895 -0.158947,0.127563 -0.356491,0.137341 l -0.164271,0.0081 -0.0075,0.873621 c -0.0082,0.958233 -0.0037,0.912489 -0.09947,1.0035 -0.09784,0.09294 0.110552,0.08672 -2.883058,0.08608 -2.405337,-5.15e-4 -2.735824,-0.0033 -2.781882,-0.02322 z m 5.443335,-1.163421 v -0.776552 h -2.6582 -2.658199 l -0.0039,0.761619 c -0.0021,0.41889 -6.61e-4,0.770037 0.0033,0.780327 0.0057,0.01491 0.546019,0.01794 2.662084,0.01493 l 2.654919,-0.0038 z m -3.920098,-1.52427 c 0.07803,-0.01369 0.178832,-0.03613 0.224006,-0.04987 l 0.08214,-0.02498 0.0039,-0.555924 0.0039,-0.555924 -0.384725,0.004 -0.384725,0.004 -0.0042,0.182938 -0.0042,0.182938 h 0.164731 0.16473 v 0.215657 c 0,0.156282 -0.0051,0.218903 -0.01867,0.227447 -0.01027,0.0065 -0.09009,0.01432 -0.177382,0.01741 -0.241433,0.0085 -0.390504,-0.04465 -0.520548,-0.185726 -0.123087,-0.133534 -0.170743,-0.293203 -0.16218,-0.54338 0.0051,-0.148477 0.0092,-0.166768 0.06154,-0.272649 0.06894,-0.139483 0.164505,-0.230031 0.305485,-0.289437 0.09689,-0.04083 0.110963,-0.04259 0.340014,-0.04268 0.208383,-7.5e-5 0.252969,0.0043 0.34864,0.03448 0.06034,0.01901 0.111275,0.03242 0.113201,0.02978 0.0019,-0.0026 0.02236,-0.07871 0.04542,-0.169063 0.02305,-0.09035 0.0448,-0.171947 0.04832,-0.181328 0.0082,-0.02188 -0.09051,-0.05786 -0.240412,-0.08763 -0.160043,-0.03178 -0.488246,-0.03147 -0.643894,6.03e-4 -0.412803,0.08507 -0.710669,0.332084 -0.820787,0.680669 -0.05375,0.170152 -0.07203,0.346454 -0.05332,0.514243 0.05504,0.493586 0.387457,0.823931 0.893867,0.888288 0.139295,0.0177 0.446119,0.0058 0.615116,-0.02384 z m 1.149896,-0.349909 v -0.373343 h 0.15549 c 0.551577,0 0.874078,-0.260317 0.874758,-0.706089 4.66e-4,-0.305609 -0.162399,-0.515609 -0.477701,-0.615951 -0.108966,-0.03468 -0.657057,-0.04639 -0.866155,-0.01851 l -0.14187,0.01892 -0.0038,1.034159 -0.0038,1.034159 h 0.231575 0.231575 z m 0.04853,-0.742555 -0.04853,-0.006 v -0.304518 -0.304518 l 0.05192,-0.0097 c 0.02856,-0.0054 0.104159,-0.0072 0.168004,-0.0042 0.206064,0.0099 0.323065,0.09891 0.342123,0.260346 0.0306,0.259221 -0.179542,0.410076 -0.513514,0.36863 z m 1.710533,0.832157 c 0.06917,-0.151951 0.144145,-0.321666 0.166605,-0.377146 l 0.04084,-0.100873 0.192689,0.380879 0.192688,0.38088 h 0.265159 c 0.145837,0 0.265158,-0.005 0.265158,-0.0112 0,-0.0062 -0.137246,-0.24822 -0.304991,-0.537904 l -0.304992,-0.526699 0.290058,-0.50226 c 0.159532,-0.276243 0.290058,-0.504598 0.290058,-0.507456 0,-0.0029 -0.120059,-0.0052 -0.266798,-0.0052 h -0.266796 l -0.105306,0.22774 c -0.05792,0.125256 -0.126526,0.2815 -0.152461,0.347208 -0.02594,0.06571 -0.05211,0.124586 -0.05815,0.130839 -0.0061,0.0063 -0.02703,-0.02735 -0.04661,-0.07467 -0.01959,-0.04732 -0.09465,-0.20868 -0.166801,-0.358577 l -0.131189,-0.27254 h -0.269976 c -0.148486,0 -0.267171,0.005 -0.263743,0.0112 0.0034,0.0062 0.131507,0.23411 0.284622,0.506555 0.153114,0.272445 0.278389,0.501859 0.278389,0.509808 0,0.0079 -0.131043,0.243587 -0.291207,0.523641 -0.160164,0.280055 -0.291207,0.516168 -0.291207,0.524697 0,0.01029 0.08887,0.01413 0.264103,0.01143 l 0.264103,-0.0041 z m 1.018602,-2.717934 v -0.40321 h -0.73249 c -0.78774,0 -0.79225,-4.18e-4 -0.832499,-0.07713 -0.01369,-0.0261 -0.0192,-0.249124 -0.02187,-0.886096 l -0.0036,-0.851221 H 45.38101 43.514297 l -0.0038,1.310432 -0.0038,1.310433 h 2.665748 2.665748 z"
       style="fill:#000000;stroke-width:0.0149337" />
  </g>
</svg>
