<?xml version="1.0" encoding="UTF-8" standalone="no"?>
<svg
   xmlns:dc="http://purl.org/dc/elements/1.1/"
   xmlns:cc="http://creativecommons.org/ns#"
   xmlns:rdf="http://www.w3.org/1999/02/22-rdf-syntax-ns#"
   xmlns:svg="http://www.w3.org/2000/svg"
   xmlns="http://www.w3.org/2000/svg"
   width="7.2713866mm"
   height="8.2295132mm"
   viewBox="0 0 7.2713865 8.2295132"
   version="1.1"
   id="svg8">
  <defs
     id="defs2" />
  <metadata
     id="metadata5">
    <rdf:RDF>
      <cc:Work
         rdf:about="">
        <dc:format>image/svg+xml</dc:format>
        <dc:type
           rdf:resource="http://purl.org/dc/dcmitype/StillImage" />
        <dc:title></dc:title>
      </cc:Work>
    </rdf:RDF>
  </metadata>
  <path
     id="path858"
     transform="scale(0.26458333)"
     d="M 11.03125 0 C 7.2642548 -0.0008475591 3.4847986 0.02278494 3.3261719 0.0703125 C 3.0425108 0.15529896 2.7336181 0.41523503 2.5957031 0.68554688 C 2.4874461 0.89777869 2.484375 1.0392612 2.484375 6.0058594 L 2.484375 11.109375 L 1.8769531 11.134766 C 0.95342183 11.173922 0.50674115 11.425593 0.171875 12.095703 L 0 12.441406 L 0 17.359375 C 1.4802974e-16 22.8952 -0.023708423 22.581643 0.4296875 23.085938 C 0.80882703 23.507616 1.0885519 23.620281 1.8339844 23.654297 L 2.4550781 23.683594 L 2.484375 26.984375 C 2.5094711 29.921854 2.5220921 30.304426 2.6054688 30.455078 C 2.7333151 30.686003 2.9794047 30.912822 3.2167969 31.015625 C 3.3908744 31.090913 4.6413836 31.099616 13.732422 31.101562 C 25.046854 31.103984 24.259117 31.128613 24.628906 30.777344 C 24.990872 30.433365 24.972914 30.606043 25.003906 26.984375 L 25.033203 23.681641 L 25.654297 23.652344 C 26.40092 23.615388 26.592208 23.540608 27 23.132812 C 27.522214 22.610588 27.491995 22.986963 27.474609 17.300781 L 27.458984 12.337891 L 27.291016 12.035156 C 27.103559 11.696715 26.852155 11.466422 26.472656 11.285156 C 26.276242 11.191311 26.077359 11.157128 25.611328 11.136719 L 25.003906 11.109375 L 25.003906 9.1738281 L 25.003906 7.2382812 L 24.849609 7.0507812 C 23.952531 5.9642313 18.768993 0.12362941 18.65625 0.072265625 C 18.551812 0.024673813 14.798245 0.0008475591 11.03125 0 z M 3.6972656 1.21875 L 10.751953 1.21875 L 17.808594 1.21875 L 17.822266 4.4355469 C 17.832357 6.8430001 17.852555 7.6865106 17.904297 7.7851562 C 18.056419 8.0750917 18.073496 8.0761719 21.050781 8.0761719 L 23.818359 8.0761719 L 23.818359 9.5996094 L 23.818359 11.125 L 13.744141 11.125 L 3.6679688 11.125 L 3.6835938 6.171875 L 3.6972656 1.21875 z M 8.7929688 12.982422 C 9.1236605 12.982422 9.4649416 13.014108 9.8144531 13.080078 C 10.163965 13.142579 10.524727 13.238712 10.898438 13.367188 L 10.898438 15.013672 C 10.567744 14.8227 10.246201 14.677301 9.9316406 14.580078 C 9.6170804 14.482856 9.318672 14.435547 9.0390625 14.435547 C 8.6680427 14.435547 8.3942412 14.500867 8.2167969 14.632812 C 8.0393506 14.76476 7.9511719 14.97027 7.9511719 15.248047 C 7.9511719 15.456379 8.0106096 15.618272 8.1289062 15.736328 C 8.2498916 15.850913 8.4666897 15.949872 8.78125 16.033203 L 9.4433594 16.205078 C 10.112808 16.378689 10.588796 16.64388 10.871094 16.998047 C 11.153392 17.352214 11.292969 17.855035 11.292969 18.507812 C 11.292969 19.365453 11.096389 20.003689 10.701172 20.423828 C 10.308643 20.840495 9.7076913 21.048828 8.8984375 21.048828 C 8.5166634 21.048828 8.1325097 21.001953 7.7480469 20.908203 C 7.3635837 20.814452 6.980166 20.676216 6.5957031 20.492188 L 6.5957031 18.798828 C 6.980166 19.062716 7.3514073 19.263018 7.7089844 19.398438 C 8.0692505 19.530383 8.41662 19.595703 8.75 19.595703 C 9.0887575 19.595703 9.3472108 19.522787 9.5273438 19.376953 C 9.707476 19.231119 9.796875 19.022786 9.796875 18.751953 C 9.796875 18.508897 9.7349993 18.321397 9.6113281 18.189453 C 9.4903429 18.057507 9.2484551 17.940104 8.8828125 17.835938 L 8.28125 17.664062 C 7.6790148 17.497396 7.2385936 17.231771 6.9589844 16.867188 C 6.6820637 16.502602 6.5429685 16.010634 6.5429688 15.392578 C 6.5429688 14.618273 6.7358957 14.024089 7.1230469 13.607422 C 7.5101983 13.190755 8.0670599 12.982422 8.7929688 12.982422 z M 15.412109 12.982422 C 16.379987 12.982422 17.137082 13.339409 17.685547 14.054688 C 18.234011 14.769965 18.507814 15.757161 18.507812 17.017578 C 18.507812 18.274523 18.234011 19.261285 17.685547 19.976562 C 17.137082 20.691842 16.379987 21.048828 15.412109 21.048828 C 14.44692 21.048828 13.687872 20.691842 13.136719 19.976562 C 12.588254 19.261285 12.314453 18.274523 12.314453 17.017578 C 12.314453 15.757161 12.588254 14.769965 13.136719 14.054688 C 13.687872 13.339409 14.44692 12.982422 15.412109 12.982422 z M 3.6269531 13.123047 L 5.1796875 13.123047 L 5.1796875 20.142578 C 5.1796875 21.111328 4.9750662 21.835287 4.5664062 22.314453 C 4.1604351 22.79362 3.5460884 23.033203 2.7207031 23.033203 L 2.40625 23.033203 L 2.40625 21.517578 L 2.6464844 21.517578 C 2.9691105 21.517578 3.2129515 21.402559 3.3769531 21.169922 C 3.5436431 20.937284 3.6269531 20.593968 3.6269531 20.142578 L 3.6269531 13.123047 z M 19.677734 13.123047 L 21.412109 13.123047 L 23.601562 18.455078 L 23.601562 13.123047 L 25.074219 13.123047 L 25.074219 20.898438 L 23.339844 20.898438 L 21.150391 15.564453 L 21.150391 20.898438 L 19.677734 20.898438 L 19.677734 13.123047 z M 15.412109 14.435547 C 14.938924 14.435547 14.571336 14.659939 14.310547 15.111328 C 14.049757 15.562717 13.919922 16.198133 13.919922 17.017578 C 13.919922 17.83355 14.049757 18.468533 14.310547 18.919922 C 14.571336 19.371311 14.938924 19.595703 15.412109 19.595703 C 15.887983 19.595703 16.254836 19.371311 16.515625 18.919922 C 16.776415 18.468533 16.908203 17.83355 16.908203 17.017578 C 16.908203 16.198133 16.776415 15.562717 16.515625 15.111328 C 16.254836 14.659939 15.887983 14.435547 15.412109 14.435547 z M 3.6972656 23.683594 L 13.744141 23.683594 L 23.791016 23.683594 L 23.791016 26.617188 L 23.791016 29.552734 L 13.755859 29.566406 C 5.7581341 29.577783 3.7168558 29.566118 3.6953125 29.509766 C 3.6803418 29.470874 3.6737036 28.143753 3.6816406 26.560547 L 3.6972656 23.683594 z "
     style="fill:#000000;stroke-width:0.05644233" />
</svg>
