<?xml version="1.0" encoding="UTF-8" standalone="no"?>
<!-- Created with Inkscape (http://www.inkscape.org/) -->

<svg
   xmlns:dc="http://purl.org/dc/elements/1.1/"
   xmlns:cc="http://creativecommons.org/ns#"
   xmlns:rdf="http://www.w3.org/1999/02/22-rdf-syntax-ns#"
   xmlns:svg="http://www.w3.org/2000/svg"
   xmlns="http://www.w3.org/2000/svg"
   xmlns:sodipodi="http://sodipodi.sourceforge.net/DTD/sodipodi-0.dtd"
   xmlns:inkscape="http://www.inkscape.org/namespaces/inkscape"
   width="24"
   height="24"
   id="svg2"
   version="1.1"
   inkscape:version="0.92.3 (2405546, 2018-03-11)"
   sodipodi:docname="bike.svg">
  <sodipodi:namedview
     id="base"
     pagecolor="#ffffff"
     bordercolor="#666666"
     borderopacity="1.0"
     inkscape:pageopacity="0.0"
     inkscape:pageshadow="2"
     inkscape:zoom="16"
     inkscape:cx="12.048438"
     inkscape:cy="7.5901113"
     inkscape:document-units="px"
     inkscape:current-layer="layer1"
     showgrid="true"
     inkscape:window-width="1869"
     inkscape:window-height="1145"
     inkscape:window-x="51"
     inkscape:window-y="27"
     inkscape:window-maximized="1"
     fit-margin-top="0"
     fit-margin-left="0"
     fit-margin-right="0"
     fit-margin-bottom="0"
     inkscape:snap-global="true">
    <inkscape:grid
       snapvisiblegridlinesonly="true"
       enabled="true"
       visible="true"
       empspacing="5"
       id="grid2994"
       type="xygrid"
       originx="-1.1197363e-16"
       originy="0" />
  </sodipodi:namedview>
  <defs
     id="defs4">
    <filter
       id="filter3028"
       x="0"
       y="0"
       width="1"
       height="1"
       inkscape:label="Lightness-Contrast"
       inkscape:menu="Color"
       inkscape:menu-tooltip="Increase or decrease lightness and contrast"
       style="color-interpolation-filters:sRGB">
      <feFlood
         id="feFlood3030"
         result="result1"
         flood-opacity="0"
         flood-color="rgb(128,128,128)" />
      <feBlend
         id="feBlend3032"
         in2="SourceGraphic"
         mode="normal"
         result="result2" />
      <feComposite
         id="feComposite3034"
         in2="SourceGraphic"
         k2="1"
         operator="arithmetic"
         result="result3"
         k1="0"
         k3="0"
         k4="0" />
      <feComposite
         id="feComposite3036"
         in2="SourceGraphic"
         operator="in" />
    </filter>
    <filter
       id="filter3055"
       inkscape:label="Lightness-Contrast"
       x="0"
       y="0"
       width="1"
       height="1"
       inkscape:menu="Color"
       inkscape:menu-tooltip="Increase or decrease lightness and contrast"
       style="color-interpolation-filters:sRGB">
      <feColorMatrix
         id="feColorMatrix3057"
         type="saturate"
         values="0"
         result="fbSourceGraphic" />
      <feColorMatrix
         result="fbSourceGraphicAlpha"
         in="fbSourceGraphic"
         values="0 0 0 -1 0 0 0 0 -1 0 0 0 0 -1 0 0 0 0 1 0"
         id="feColorMatrix3079" />
      <feFlood
         id="feFlood3081"
         result="result1"
         flood-opacity="0"
         flood-color="rgb(128,128,128)"
         in="fbSourceGraphic" />
      <feBlend
         id="feBlend3083"
         in2="fbSourceGraphic"
         mode="normal"
         result="result2" />
      <feComposite
         id="feComposite3085"
         in2="fbSourceGraphic"
         k2="1"
         operator="arithmetic"
         result="result3"
         k1="0"
         k3="0"
         k4="0" />
      <feComposite
         id="feComposite3087"
         in2="fbSourceGraphic"
         operator="in" />
    </filter>
    <inkscape:perspective
       id="perspective12"
       inkscape:persp3d-origin="290 : 193.33333 : 1"
       inkscape:vp_z="580 : 290 : 1"
       inkscape:vp_y="0 : 1000 : 0"
       inkscape:vp_x="0 : 290 : 1"
       sodipodi:type="inkscape:persp3d" />
    <inkscape:perspective
       id="perspective12-1"
       inkscape:persp3d-origin="290 : 193.33333 : 1"
       inkscape:vp_z="580 : 290 : 1"
       inkscape:vp_y="0 : 1000 : 0"
       inkscape:vp_x="0 : 290 : 1"
       sodipodi:type="inkscape:persp3d" />
    <inkscape:perspective
       sodipodi:type="inkscape:persp3d"
       inkscape:vp_x="0 : 526.18109 : 1"
       inkscape:vp_y="0 : 1000 : 0"
       inkscape:vp_z="744.09448 : 526.18109 : 1"
       inkscape:persp3d-origin="372.04724 : 350.78739 : 1"
       id="perspective2466" />
    <inkscape:perspective
       id="perspective2441"
       inkscape:persp3d-origin="290 : 193.33333 : 1"
       inkscape:vp_z="580 : 290 : 1"
       inkscape:vp_y="0 : 1000 : 0"
       inkscape:vp_x="0 : 290 : 1"
       sodipodi:type="inkscape:persp3d" />
    <filter
       id="filter3871"
       x="0"
       y="0"
       width="1"
       height="1"
       inkscape:label="Lightness-Contrast"
       inkscape:menu="Color"
       inkscape:menu-tooltip="Increase or decrease lightness and contrast"
       style="color-interpolation-filters:sRGB">
      <feFlood
         id="feFlood3873"
         result="result1"
         flood-opacity="0"
         flood-color="rgb(128,128,128)" />
      <feBlend
         id="feBlend3875"
         in2="SourceGraphic"
         mode="normal"
         result="result2" />
      <feComposite
         id="feComposite3877"
         in2="SourceGraphic"
         k2="1"
         operator="arithmetic"
         result="result3"
         k1="0"
         k3="0"
         k4="0" />
      <feComposite
         id="feComposite3879"
         in2="SourceGraphic"
         operator="in" />
    </filter>
  </defs>
  <metadata
     id="metadata7">
    <rdf:RDF>
      <cc:Work
         rdf:about="">
        <dc:format>image/svg+xml</dc:format>
        <dc:type
           rdf:resource="http://purl.org/dc/dcmitype/StillImage" />
        <dc:title></dc:title>
      </cc:Work>
    </rdf:RDF>
  </metadata>
  <g
     transform="translate(4.8596183e-7,-1028.3622)"
     id="layer1"
     inkscape:groupmode="layer"
     inkscape:label="Layer 1">
    <path
       id="rect4334"
       d="M 5.9999995,1028.3622 H 18 c 3.324,0 6,2.676 6,6 v 12 c 0,3.324 -2.676,6 -6,6 H 5.9999995 c -3.324,0 -5.99999998596183,-2.676 -5.99999998596183,-6 v -12 c 0,-3.324 2.67599998596183,-6 5.99999998596183,-6 z"
       style="fill:#bf40bf;fill-opacity:1;stroke:none;stroke-width:2"
       inkscape:connector-curvature="0" />
    <g
       id="text3782"
       style="font-style:normal;font-weight:normal;font-size:40px;line-height:125%;font-family:Sans;letter-spacing:0px;word-spacing:0px;fill:#ffffff;fill-opacity:1;stroke:none" />
    <path
       inkscape:connector-curvature="0"
       id="path3000"
       d=""
       style="fill:#000000" />
    <path
       sodipodi:type="inkscape:offset"
       inkscape:radius="0.08912582"
       inkscape:original="M 6.90625 1043.0312 C 6.6747348 1043.0667 6.5 1043.1959 6.5 1043.375 C 6.5 1043.5697 6.7268698 1043.75 6.96875 1043.75 C 7.2329664 1043.75 7.3109023 1043.8088 7.5 1044.25 L 7.625 1044.5625 L 6.5 1045.1875 C 5.8836501 1045.5266 5.346048 1045.7819 5.3125 1045.7812 C 5.2789517 1045.7805 5.0562603 1045.4012 4.8125 1044.9375 C 4.4293 1044.2085 4.377261 1044.1073 4.46875 1044.0312 C 4.6187002 1043.9068 4.6039241 1043.6165 4.4375 1043.5 C 4.3168915 1043.413 4.21774 1043.414 3.625 1043.5 C 2.7307614 1043.6302 2.4828239 1043.8265 2.8125 1044.1562 C 2.9250651 1044.2695 3.0057334 1044.28 3.28125 1044.25 L 3.625 1044.2188 L 4.03125 1045 L 4.4375 1045.7812 L 4.0625 1045.5938 C 3.5321936 1045.3189 2.8089596 1045.321 2.28125 1045.5938 C 1.5162885 1045.9889 1.115996 1046.5874 1.0625 1047.4062 C 1.0006332 1048.3534 1.4313949 1049.0979 2.28125 1049.5 C 2.6161916 1049.658 2.7958219 1049.6875 3.15625 1049.6875 C 4.0398964 1049.6875 4.9167749 1049.0965 5.1875 1048.2812 C 5.3024916 1047.9351 5.3301395 1047.138 5.21875 1046.875 C 5.1845539 1046.7943 5.4521117 1046.5843 6.40625 1046.0625 C 7.0989628 1045.6837 7.719843 1045.3667 7.78125 1045.3438 C 7.8562906 1045.3155 7.942461 1045.3425 8 1045.4688 C 8.0802593 1045.6449 8.0481038 1045.6758 7.71875 1046 C 7.2408611 1046.4705 7.051014 1047.0084 7.09375 1047.6875 C 7.1451258 1048.5038 7.564471 1049.1167 8.28125 1049.4688 C 8.6219917 1049.6356 8.7702166 1049.6562 9.25 1049.6562 C 9.7254746 1049.6551 9.8553069 1049.6264 10.15625 1049.4688 C 10.530169 1049.2729 10.977136 1048.8464 11.15625 1048.5 C 11.213419 1048.3894 11.27297 1048.1515 11.3125 1047.9375 C 11.550013 1046.6512 10.556048 1045.4372 9.21875 1045.4062 L 8.78125 1045.4062 L 8.34375 1044.375 C 7.9791886 1043.5225 7.8571774 1043.3221 7.65625 1043.1875 C 7.4385956 1043.0417 7.1377652 1042.9958 6.90625 1043.0312 z M 3.1875 1046.1562 C 3.5341777 1046.1563 4.01223 1046.318 4.0625 1046.4688 C 4.0751276 1046.5067 3.8336296 1046.6878 3.5 1046.875 C 2.8303039 1047.2508 2.6921487 1047.4234 2.8125 1047.6875 C 2.9299498 1047.9453 3.1957362 1047.8939 3.875 1047.5 C 4.2055896 1047.3084 4.50048 1047.1685 4.53125 1047.1875 C 4.562019 1047.2065 4.59375 1047.3756 4.59375 1047.5625 C 4.59375 1048.0325 4.3355969 1048.4724 3.9375 1048.7188 C 3.1759416 1049.19 2.2907199 1048.9421 1.90625 1048.1562 C 1.7455369 1047.8277 1.74431 1047.7181 1.78125 1047.4062 C 1.8677099 1046.6761 2.4446399 1046.1562 3.1875 1046.1562 z M 9.3125 1046.1562 C 9.9513306 1046.0975 10.6284 1046.7999 10.625 1047.5312 C 10.622216 1048.1382 10.289491 1048.6496 9.75 1048.875 C 9.2330814 1049.0909 8.6221917 1048.966 8.21875 1048.5625 C 7.6929026 1048.0367 7.6399902 1047.1678 8.125 1046.625 C 8.2365582 1046.5005 8.358374 1046.4175 8.375 1046.4375 C 8.3916208 1046.4569 8.5086456 1046.7851 8.65625 1047.1562 C 8.8038555 1047.5274 8.96089 1047.8582 9 1047.9062 C 9.0904956 1048.0161 9.4508583 1048.0179 9.5625 1047.9062 C 9.6963747 1047.7724 9.6369488 1047.5678 9.34375 1046.8438 L 9.09375 1046.1875 L 9.3125 1046.1562 z "
       style="fill:#ffffff"
       id="path4064"
       d="m 6.8925781,1042.9434 c -0.1284484,0.02 -0.243569,0.065 -0.3320312,0.1367 -0.088462,0.072 -0.1503907,0.1764 -0.1503907,0.2949 0,0.132 0.074971,0.248 0.1777344,0.3301 0.1027636,0.082 0.2377742,0.1347 0.3808594,0.1347 0.1254967,0 0.1781378,0.01 0.234375,0.061 0.056237,0.052 0.1214767,0.1669 0.2148438,0.3848 l 0.095703,0.2382 -1.0566407,0.586 c -0.3068628,0.1688 -0.5942739,0.3164 -0.8085937,0.4218 -0.1071599,0.053 -0.1964956,0.095 -0.2597656,0.1231 -0.021759,0.01 -0.035663,0.017 -0.050781,0.023 -0.00385,-0.01 -0.00531,-0.01 -0.00977,-0.014 -0.027342,-0.04 -0.064787,-0.1004 -0.109375,-0.1758 -0.089175,-0.1509 -0.206789,-0.361 -0.328125,-0.5918 -0.1915828,-0.3645 -0.3003057,-0.5739 -0.3457031,-0.6895 -0.022699,-0.058 -0.025898,-0.092 -0.025391,-0.1 5.078e-4,-0.01 -0.00635,0 0.00586,-0.01 0.1023019,-0.085 0.1417967,-0.2163 0.1347656,-0.3418 -0.00703,-0.1255 -0.061186,-0.2526 -0.171875,-0.3301 -0.069597,-0.05 -0.1549066,-0.082 -0.2792968,-0.082 -0.125198,10e-5 -0.300636,0.023 -0.5976563,0.066 -0.4522766,0.066 -0.7442569,0.1397 -0.9082031,0.2715 -0.081973,0.066 -0.1306152,0.1636 -0.1171875,0.2617 0.013428,0.098 0.074567,0.1839 0.1640625,0.2735 0.062815,0.063 0.1322046,0.1085 0.21875,0.125 0.086021,0.016 0.1818917,0.01 0.3203125,-0.01 l 0.2851563,-0.025 0.3789062,0.7285 0.2792969,0.5391 -0.1289063,-0.064 -0.00195,-0 c -0.5596193,-0.2891 -1.3050044,-0.2876 -1.8613281,0 -0.7863036,0.4061 -1.2123806,1.0418 -1.26757815,1.8867 -0.0638184,0.9771 0.39175605,1.7644 1.26953125,2.1797 a 0.08913473,0.08913473 0 0 0 0.00195,0 c 0.3421906,0.1614 0.5468182,0.1972 0.9121094,0.1972 0.9233858,0 1.83043,-0.611 2.1152344,-1.4687 0.063277,-0.1905 0.097945,-0.4783 0.1054687,-0.7598 0.00719,-0.269 -0.00858,-0.5168 -0.070312,-0.6816 0.00162,-0 0.00467,-0.01 0.015625,-0.019 0.026739,-0.03 0.081815,-0.079 0.1699219,-0.1407 0.1762142,-0.1238 0.4813012,-0.3062 0.9570313,-0.5664 0.345704,-0.189 0.6729792,-0.363 0.921875,-0.4922 0.1244478,-0.064 0.2295591,-0.1176 0.3066406,-0.1562 0.077081,-0.039 0.1364187,-0.065 0.1347656,-0.064 0.018225,-0.01 0.029621,-0.01 0.044922,0 0.015301,0.01 0.037743,0.028 0.060547,0.078 0.018726,0.041 0.027831,0.069 0.029297,0.084 0.00147,0.015 0.00145,0.021 -0.011719,0.045 -0.026333,0.047 -0.1145954,0.1386 -0.2792969,0.3007 -0.4936797,0.4861 -0.6963042,1.0593 -0.6523438,1.7579 0.05311,0.8438 0.4971126,1.4913 1.2382813,1.8554 0.3473063,0.17 0.525478,0.1973 1.0078125,0.1973 0.4790235,-0 0.6409293,-0.039 0.947266,-0.1992 0.39516,-0.2071 0.845872,-0.6323 1.039062,-1.0059 0.06951,-0.1345 0.123772,-0.3698 0.164063,-0.5879 0.247393,-1.3398 -0.789517,-2.6045 -2.1796879,-2.6367 a 0.08913473,0.08913473 0 0 0 -0.00195,0 H 8.8398438 l -0.4140626,-0.9766 c -0.1827013,-0.4272 -0.3048618,-0.6925 -0.4101562,-0.873 -0.1052944,-0.1805 -0.2000214,-0.2795 -0.3105469,-0.3535 -0.2420169,-0.1621 -0.5582031,-0.2088 -0.8125,-0.1699 z m 2.4277344,3.3007 h 0.00391 c 0.283218,-0.024 0.5871024,0.1218 0.8203122,0.3653 0.234262,0.2446 0.392197,0.5838 0.390625,0.9218 -0.0026,0.5747 -0.31304,1.0498 -0.8203122,1.2618 -0.4825961,0.2015 -1.0554566,0.085 -1.4335938,-0.293 -0.4932448,-0.4932 -0.5412205,-1.3112 -0.089844,-1.8164 0.048355,-0.054 0.097451,-0.097 0.1367188,-0.127 0.014613,0.037 0.032538,0.082 0.054687,0.1407 0.049735,0.1307 0.1172588,0.3057 0.1914063,0.4922 0.074454,0.1872 0.1495075,0.3632 0.2128906,0.5 0.031691,0.068 0.060566,0.1265 0.083984,0.1718 0.023419,0.045 0.037553,0.073 0.060547,0.1016 0.081998,0.1 0.2121691,0.115 0.3417969,0.1152 0.1296278,3e-4 0.2616773,-0.019 0.3515625,-0.1093 0.043834,-0.044 0.076235,-0.1018 0.087891,-0.168 0.011655,-0.066 0.00709,-0.137 -0.011719,-0.2227 -0.037511,-0.1708 -0.1273291,-0.4047 -0.2734375,-0.7656 l -0.00195,-0 -0.2089843,-0.5507 z m -6.1328125,0 c 0.1594938,0 0.3597961,0.038 0.5195312,0.094 0.079868,0.028 0.1503015,0.061 0.1992188,0.092 0.029334,0.019 0.031561,0.026 0.042969,0.039 -0.02183,0.02 -0.048967,0.042 -0.089844,0.072 -0.096467,0.07 -0.2382219,0.1618 -0.4023438,0.2539 -0.3376453,0.1894 -0.5469597,0.3267 -0.6660156,0.4687 -0.059528,0.071 -0.096755,0.1471 -0.1054687,0.2266 -0.00871,0.079 0.010647,0.1572 0.044922,0.2324 0.035083,0.077 0.090113,0.1418 0.1640624,0.1777 0.07395,0.036 0.1591467,0.041 0.2539063,0.024 0.1895192,-0.034 0.4289439,-0.151 0.7714844,-0.3496 0.16349,-0.095 0.3178293,-0.1754 0.4335937,-0.2305 0.051508,-0.024 0.091155,-0.043 0.1230469,-0.055 0.00295,0.012 0.00701,0.021 0.00977,0.037 0.010696,0.062 0.017578,0.146 0.017578,0.2344 0,0.4374 -0.2408875,0.8496 -0.6132812,1.0801 -0.7233851,0.4476 -1.5403067,0.2186 -1.9042969,-0.5254 -0.1573528,-0.3216 -0.1538136,-0.3919 -0.1171875,-0.7012 0.081596,-0.689 0.6170832,-1.1699 1.3183594,-1.1699 z"
       transform="matrix(2,0,0,2,4.8596183e-7,-1052.3622)" />
  </g>
</svg>
