<?xml version="1.0" encoding="UTF-8" standalone="no"?>
<!-- Created with Inkscape (http://www.inkscape.org/) -->

<svg
   xmlns:dc="http://purl.org/dc/elements/1.1/"
   xmlns:cc="http://creativecommons.org/ns#"
   xmlns:rdf="http://www.w3.org/1999/02/22-rdf-syntax-ns#"
   xmlns:svg="http://www.w3.org/2000/svg"
   xmlns="http://www.w3.org/2000/svg"
   xmlns:sodipodi="http://sodipodi.sourceforge.net/DTD/sodipodi-0.dtd"
   xmlns:inkscape="http://www.inkscape.org/namespaces/inkscape"
   width="24"
   height="24"
   id="svg2"
   version="1.1"
   inkscape:version="0.92.3 (2405546, 2018-03-11)"
   sodipodi:docname="camping_site.svg">
  <defs
     id="defs4" />
  <sodipodi:namedview
     id="base"
     pagecolor="#ffffff"
     bordercolor="#666666"
     borderopacity="1.0"
     inkscape:pageopacity="0.0"
     inkscape:pageshadow="2"
     inkscape:zoom="22.4"
     inkscape:cx="12.412496"
     inkscape:cy="13.157361"
     inkscape:document-units="px"
     inkscape:current-layer="layer1"
     showgrid="true"
     inkscape:window-width="1869"
     inkscape:window-height="1145"
     inkscape:window-x="51"
     inkscape:window-y="27"
     inkscape:window-maximized="1"
     fit-margin-top="0"
     fit-margin-left="0"
     fit-margin-right="0"
     fit-margin-bottom="0"
     inkscape:snap-global="true">
    <inkscape:grid
       type="xygrid"
       id="grid2994"
       empspacing="5"
       visible="true"
       enabled="true"
       snapvisiblegridlinesonly="true"
       originx="-0.044642856"
       originy="0" />
  </sodipodi:namedview>
  <metadata
     id="metadata7">
    <rdf:RDF>
      <cc:Work
         rdf:about="">
        <dc:format>image/svg+xml</dc:format>
        <dc:type
           rdf:resource="http://purl.org/dc/dcmitype/StillImage" />
        <dc:title></dc:title>
      </cc:Work>
    </rdf:RDF>
  </metadata>
  <g
     inkscape:label="Layer 1"
     inkscape:groupmode="layer"
     id="layer1"
     transform="translate(-0.04464237,-1028.3622)">
    <path
       style="fill:#0092da;fill-opacity:1;stroke:none;stroke-width:2"
       d="M 6.0446426,1028.3622 H 18.044643 c 3.323999,0 5.999999,2.676 5.999999,6 v 12 c 0,3.324 -2.676,6 -5.999999,6 H 6.0446426 c -3.3240001,0 -6.00000023,-2.676 -6.00000023,-6 v -12 c 0,-3.324 2.67600013,-6 6.00000023,-6 z"
       id="rect4334"
       inkscape:connector-curvature="0" />
    <g
       style="font-style:normal;font-weight:normal;font-size:40px;line-height:125%;font-family:Sans;letter-spacing:0px;word-spacing:0px;fill:#ffffff;fill-opacity:1;stroke:none"
       id="text3782" />
    <path
       style="fill:#ffffff;fill-opacity:1;stroke-width:2"
       d="m 2.0982755,1050.237 c 0.3310988,-0.5258 8.3297495,-14.0266 8.3953385,-14.1706 0.06637,-0.146 -0.08834,-0.4614 -1.0397411,-2.1216 -0.6659562,-1.1622 -1.1338834,-2.066 -1.1577208,-2.236 -0.151308,-1.0794 1.1771394,-1.826 2.0067759,-1.1278 0.124622,0.106 0.558656,0.774 0.964519,1.4868 0.405863,0.713 0.755606,1.2962 0.777207,1.2962 0.0216,-2e-4 0.369779,-0.5822 0.77373,-1.2934 0.403951,-0.7112 0.837984,-1.3804 0.964519,-1.4866 0.832854,-0.701 2.160879,0.042 2.010666,1.1248 -0.02376,0.172 -0.487074,1.0642 -1.158838,2.2336 -0.957919,1.6672 -1.107897,1.9728 -1.040514,2.1206 0.06683,0.146 8.075033,13.665 8.396491,14.174 l 0.11164,0.178 h -3.148932 -3.148931 l -1.860285,-3.768 c -1.023156,-2.0724 -1.877957,-3.7678 -1.899558,-3.7678 -0.0216,0 -0.876402,1.6954 -1.899558,3.7678 l -1.8602851,3.768 H 5.1358676 1.9869367 l 0.111328,-0.178 z"
       id="path4780"
       inkscape:connector-curvature="0" />
  </g>
</svg>
