<?xml version="1.0" encoding="UTF-8" standalone="no"?>
<!-- Created with Inkscape (http://www.inkscape.org/) -->

<svg
   xmlns:dc="http://purl.org/dc/elements/1.1/"
   xmlns:cc="http://creativecommons.org/ns#"
   xmlns:rdf="http://www.w3.org/1999/02/22-rdf-syntax-ns#"
   xmlns:svg="http://www.w3.org/2000/svg"
   xmlns="http://www.w3.org/2000/svg"
   xmlns:sodipodi="http://sodipodi.sourceforge.net/DTD/sodipodi-0.dtd"
   xmlns:inkscape="http://www.inkscape.org/namespaces/inkscape"
   width="24"
   height="24"
   id="svg2"
   version="1.1"
   inkscape:version="0.92.3 (2405546, 2018-03-11)"
   sodipodi:docname="caravan_site.svg">
  <defs
     id="defs4" />
  <sodipodi:namedview
     id="base"
     pagecolor="#ffffff"
     bordercolor="#666666"
     borderopacity="1.0"
     inkscape:pageopacity="0.0"
     inkscape:pageshadow="2"
     inkscape:zoom="31.678384"
     inkscape:cx="6.6817031"
     inkscape:cy="3.6300545"
     inkscape:document-units="px"
     inkscape:current-layer="layer1"
     showgrid="true"
     inkscape:window-width="1869"
     inkscape:window-height="1145"
     inkscape:window-x="51"
     inkscape:window-y="27"
     inkscape:window-maximized="1"
     fit-margin-top="0"
     fit-margin-left="0"
     fit-margin-right="0"
     fit-margin-bottom="0"
     inkscape:snap-global="true">
    <inkscape:grid
       type="xygrid"
       id="grid2994"
       empspacing="5"
       visible="true"
       enabled="true"
       snapvisiblegridlinesonly="true"
       originx="-0.044642856"
       originy="0" />
  </sodipodi:namedview>
  <metadata
     id="metadata7">
    <rdf:RDF>
      <cc:Work
         rdf:about="">
        <dc:format>image/svg+xml</dc:format>
        <dc:type
           rdf:resource="http://purl.org/dc/dcmitype/StillImage" />
        <dc:title></dc:title>
      </cc:Work>
    </rdf:RDF>
  </metadata>
  <g
     inkscape:label="Layer 1"
     inkscape:groupmode="layer"
     id="layer1"
     transform="translate(-0.04464237,-1028.3622)">
    <path
       style="fill:#0092da;fill-opacity:1;stroke:none;stroke-width:2"
       d="M 6.0446426,1028.3622 H 18.044643 c 3.323999,0 5.999999,2.676 5.999999,6 v 12 c 0,3.324 -2.676,6 -5.999999,6 H 6.0446426 c -3.3240001,0 -6.00000023,-2.676 -6.00000023,-6 v -12 c 0,-3.324 2.67600013,-6 6.00000023,-6 z"
       id="rect4334"
       inkscape:connector-curvature="0" />
    <g
       style="font-style:normal;font-weight:normal;font-size:40px;line-height:125%;font-family:Sans;letter-spacing:0px;word-spacing:0px;fill:#ffffff;fill-opacity:1;stroke:none"
       id="text3782" />
    <path
       style="fill:#ffffff;fill-opacity:1;stroke-width:2"
       d="m 7.3623657,1046.6804 c -0.4775249,-0.156 -0.8525533,-0.4876 -1.0663343,-0.9436 -0.102964,-0.2196 -0.121378,-0.3218 -0.121378,-0.6734 0,-0.5452 0.143796,-0.8788 0.535052,-1.2412 0.7195161,-0.666 1.8049139,-0.5926 2.4543709,0.166 0.2458852,0.2874 0.36267,0.633 0.365774,1.0822 0.00236,0.3434 -0.0121,0.4054 -0.169116,0.723 -0.2968318,0.6006 -0.7736346,0.9116 -1.4357922,0.9366 -0.2252958,0.02 -0.4439046,-0.02 -0.5625778,-0.05 z m 0.8805844,-1.1358 c 0.3906542,-0.3428 0.3013674,-0.8988 -0.173524,-1.08 -0.4263006,-0.162 -0.8584156,0.138 -0.8584156,0.598 0,0.366 0.2694454,0.6222 0.6547554,0.6224 0.176566,2e-4 0.247107,-0.026 0.3771848,-0.142 z m 10.6343709,1.113 c -0.347853,-0.13 -0.638596,-0.356 -0.837078,-0.6532 -0.232916,-0.3488 -0.297526,-0.6014 -0.273072,-1.067 0.01678,-0.3208 0.04416,-0.426 0.173898,-0.6694 0.176606,-0.3314 0.40112,-0.5514 0.748808,-0.7342 0.221156,-0.116 0.287794,-0.128 0.727103,-0.128 0.428268,-2e-4 0.51367,0.02 0.746014,0.124 0.33471,0.156 0.655302,0.4776 0.812192,0.8122 0.10814,0.2306 0.12278,0.318 0.12132,0.723 -0.002,0.5556 -0.08616,0.7774 -0.434338,1.1454 -0.334668,0.354 -0.662594,0.5024 -1.153057,0.522 -0.30283,0.02 -0.445933,0 -0.631771,-0.074 z m 0.866394,-1.0438 c 0.196486,-0.102 0.317719,-0.3238 0.317925,-0.5834 4.62e-4,-0.556 -0.685457,-0.8186 -1.075553,-0.4114 -0.502545,0.5246 0.110504,1.3296 0.757628,0.9948 z M 1.8449936,1044.721 c -0.3511468,-0.086 -0.6256201,-0.3306 -0.7149328,-0.6384 -0.03412,-0.118 -0.045241,-1.432 -0.035773,-4.2276 l 0.013746,-4.057 0.1331854,-0.176 c 0.073252,-0.096 0.2287047,-0.2186 0.3454517,-0.2726 0.2106108,-0.098 0.2456894,-0.1 4.4958681,-0.12 l 4.283601,-0.024 0.345452,-0.146 c 0.189998,-0.08 0.551707,-0.243 0.803797,-0.3616 0.25209,-0.118 0.697722,-0.2952 0.990294,-0.3926 0.893469,-0.297 1.181625,-0.3204 3.9518,-0.3204 2.646208,0 2.917759,0.02 3.545967,0.2554 1.01386,0.3806 1.8273,1.2362 1.92596,2.026 0.06404,0.5124 -0.243682,0.9274 -0.830808,1.1202 -0.296372,0.098 -0.355574,0.1 -3.317733,0.1 h -3.015977 v 3.6388 3.6388 h -2.29546 -2.29546 l -0.07999,-0.2878 c -0.1722041,-0.6194 -0.6107509,-1.1756 -1.1610057,-1.4726 -1.3102406,-0.707 -3.0019031,0.062 -3.3450091,1.5186 l -0.05692,0.2418 H 3.7571115 c -0.9756632,0 -1.8361147,-0.022 -1.9121141,-0.038 z m 10.7557814,-4.5564 c 0.08827,-0.046 0.206787,-0.166 0.26337,-0.2648 0.09592,-0.168 0.102924,-0.2354 0.103564,-1.0084 7.74e-4,-0.9328 -0.03242,-1.0642 -0.316889,-1.2542 -0.15606,-0.106 -0.16165,-0.106 -1.95756,-0.106 -1.7159259,0 -1.8081473,0 -1.9511689,0.092 -0.082564,0.052 -0.191974,0.158 -0.2431344,0.2418 -0.086314,0.14 -0.092094,0.2146 -0.080184,1.0482 0.01204,0.8428 0.01912,0.907 0.115002,1.0414 0.2068694,0.29 0.2224558,0.292 2.1555003,0.2932 1.617848,0 1.763212,0 1.911499,-0.084 z m -8.1267016,-0.524 0.157564,-0.172 v -0.7628 c 0,-1.1652 -0.00768,-1.173 -1.1515055,-1.173 -1.1408206,0 -1.1515056,0.02 -1.1515056,1.1536 0,1.1358 0.020672,1.1556 1.1896976,1.1382 l 0.7981859,-0.02 0.157562,-0.172 z m 10.9356566,1.808 v -3.3172 h 1.992105 1.992104 l 0.183088,0.2392 c 0.702855,0.9184 2.586151,3.4416 2.808395,3.7628 0.576096,0.8326 0.703002,1.2256 0.557536,1.7258 -0.13222,0.455 -0.570182,0.8356 -0.993418,0.8638 l -0.1939,0.02 -0.06266,-0.2406 c -0.269638,-1.0356 -1.198102,-1.7616 -2.252984,-1.7616 -0.638205,0 -1.18133,0.2278 -1.635844,0.6862 -0.322605,0.3256 -0.533627,0.6922 -0.620518,1.0782 l -0.05354,0.2378 -0.860183,0.02 -0.860183,0.02 v -3.3176 z m 4.207191,-0.05 c 0.06614,-0.052 0.143508,-0.172 0.171934,-0.2672 0.07051,-0.2354 0.0162,-0.3478 -0.551919,-1.1468 l -0.466856,-0.6564 h -1.058358 -1.058359 v 1.0824 1.0826 h 1.421656 c 1.364292,0 1.426507,0 1.541909,-0.094 z"
       id="path4767"
       inkscape:connector-curvature="0" />
  </g>
</svg>
