<?xml version="1.0" encoding="UTF-8" standalone="no"?>
<!-- Created with Inkscape (http://www.inkscape.org/) -->

<svg
   xmlns:dc="http://purl.org/dc/elements/1.1/"
   xmlns:cc="http://creativecommons.org/ns#"
   xmlns:rdf="http://www.w3.org/1999/02/22-rdf-syntax-ns#"
   xmlns:svg="http://www.w3.org/2000/svg"
   xmlns="http://www.w3.org/2000/svg"
   xmlns:sodipodi="http://sodipodi.sourceforge.net/DTD/sodipodi-0.dtd"
   xmlns:inkscape="http://www.inkscape.org/namespaces/inkscape"
   width="12"
   height="12"
   id="svg2"
   version="1.1"
   inkscape:version="0.91 r13725"
   sodipodi:docname="nautilid.svg">
  <sodipodi:namedview
     id="base"
     pagecolor="#ffffff"
     bordercolor="#666666"
     borderopacity="1.0"
     inkscape:pageopacity="0.0"
     inkscape:pageshadow="2"
     inkscape:zoom="44.8"
     inkscape:cx="3.94512"
     inkscape:cy="8.3717075"
     inkscape:document-units="px"
     inkscape:current-layer="layer1"
     showgrid="true"
     inkscape:window-width="1920"
     inkscape:window-height="1151"
     inkscape:window-x="0"
     inkscape:window-y="25"
     inkscape:window-maximized="1"
     fit-margin-top="0"
     fit-margin-left="0"
     fit-margin-right="0"
     fit-margin-bottom="0"
     inkscape:snap-global="true">
    <inkscape:grid
       snapvisiblegridlinesonly="true"
       enabled="true"
       visible="true"
       empspacing="5"
       id="grid2994"
       type="xygrid" />
  </sodipodi:namedview>
  <defs
     id="defs4" />
  <metadata
     id="metadata7">
    <rdf:RDF>
      <cc:Work
         rdf:about="">
        <dc:format>image/svg+xml</dc:format>
        <dc:type
           rdf:resource="http://purl.org/dc/dcmitype/StillImage" />
        <dc:title />
      </cc:Work>
    </rdf:RDF>
  </metadata>
  <g
     transform="translate(4.8596183e-7,-1040.3622)"
     id="layer1"
     inkscape:groupmode="layer"
     inkscape:label="Layer 1">
    <path
       id="rect4334"
       d="m 3,0 6,0 c 1.662,0 3,1.338 3,3 l 0,6 c 0,1.662 -1.338,3 -3,3 L 3,12 C 1.338,12 0,10.662 0,9 L 0,3 C 0,1.338 1.338,0 3,0 z"
       style="fill:#734a08;fill-opacity:1;stroke:none"
       transform="translate(-4.8596183e-7,1040.3622)" />
    <g
       id="text3782"
       style="font-size:40px;font-style:normal;font-weight:normal;line-height:125%;letter-spacing:0px;word-spacing:0px;fill:#ffffff;fill-opacity:1;stroke:none;font-family:Sans" />
    <path
       inkscape:connector-curvature="0"
       id="path3000"
       d=""
       style="fill:#000000" />
    <path
       style="fill:#ffffff"
       d="m 5.9112719,1051.585 c -0.3062628,-0.028 -0.7308129,-0.1418 -1.1035499,-0.2947 l -0.10372,-0.043 0.139112,-0.012 c 0.410258,-0.036 0.8559151,-0.1914 1.1700223,-0.4075 0.072421,-0.05 0.1090537,-0.063 0.172554,-0.063 0.095991,0 0.1114863,-0.024 0.080971,-0.126 -0.020624,-0.069 -0.019451,-0.072 0.060028,-0.178 0.1069954,-0.1424 0.1962117,-0.3312 0.2419542,-0.512 0.065856,-0.2605 0.025651,-0.5657 -0.104052,-0.7899 -0.05257,-0.091 -0.067838,-0.089 0.2518523,-0.04 0.2887442,0.044 0.4328198,0.1103 0.6010078,0.2768 0.1829733,0.1812 0.2749492,0.4122 0.2749492,0.6904 0,0.1966 -0.024897,0.3039 -0.1143098,0.4927 -0.1909367,0.4032 -0.6045787,0.8202 -0.9368844,0.9445 -0.1523772,0.057 -0.4087058,0.082 -0.6299354,0.062 z m 0.8848051,-0.086 c 0,0 0.048072,-0.034 0.1068269,-0.07 0.1381427,-0.085 0.4046474,-0.3393 0.5097986,-0.4859 0.045304,-0.063 0.1184575,-0.186 0.1625639,-0.2729 0.069534,-0.1371 0.088323,-0.1608 0.1413532,-0.178 0.075544,-0.024 0.087197,-0.071 0.032585,-0.1286 -0.038506,-0.041 -0.041219,-0.059 -0.043661,-0.286 -0.0029,-0.2694 -0.02547,-0.3783 -0.115329,-0.5563 -0.065027,-0.1288 -0.2532954,-0.3257 -0.3667215,-0.3836 -0.042308,-0.022 -0.073855,-0.042 -0.070104,-0.046 0.00375,0 0.09809,-0.048 0.209644,-0.099 0.1762284,-0.08 0.221483,-0.093 0.3451096,-0.1001 0.2546894,-0.015 0.4514352,0.052 0.6216529,0.2116 0.2128779,0.2 0.2883446,0.3767 0.3019934,0.7068 0.014204,0.3436 -0.040716,0.6277 -0.1760953,0.9112 -0.1315403,0.2753 -0.4136509,0.4673 -0.9036607,0.6149 -0.2129391,0.064 -0.7559551,0.18 -0.7559551,0.1613 z m -2.358603,-0.4414 c -0.327403,-0.094 -0.767091,-0.4174 -1.110572,-0.8165 -0.137625,-0.1599 -0.29241,-0.3554 -0.324103,-0.4093 -0.0069,-0.012 0.04857,0.01 0.123281,0.041 0.349033,0.159 0.757373,0.2425 1.150972,0.2353 l 0.250416,0 0.06431,0.056 c 0.03537,0.031 0.07638,0.056 0.09114,0.056 0.02764,0 0.07775,-0.098 0.07859,-0.1543 3.27e-4,-0.022 0.03768,-0.048 0.119416,-0.085 0.518528,-0.2314 0.8243141,-0.6325 0.8803881,-1.1547 l 0.01188,-0.1106 0.126555,0.1121 c 0.069605,0.062 0.1796397,0.1518 0.2445205,0.2004 0.1408268,0.1054 0.1967959,0.1689 0.2495835,0.2833 0.034821,0.076 0.039241,0.1126 0.037581,0.3156 -0.00364,0.4449 -0.1305255,0.77 -0.3895972,0.998 -0.182384,0.1606 -0.505702,0.3164 -0.8384011,0.4041 -0.208112,0.055 -0.626245,0.073 -0.765954,0.032 z m 4.1715033,-0.2862 c 0.1192361,-0.2936 0.1690631,-0.5466 0.1690631,-0.8582 0,-0.1948 0.00498,-0.2355 0.034792,-0.2845 0.032176,-0.053 0.032635,-0.06 0.00611,-0.089 -0.015777,-0.018 -0.042795,-0.032 -0.060039,-0.032 -0.02089,0 -0.046564,-0.033 -0.076939,-0.1 -0.099148,-0.2166 -0.3018838,-0.4434 -0.4857602,-0.5435 -0.099232,-0.054 -0.2650761,-0.1002 -0.3597709,-0.1002 -0.037811,0 -0.067067,-0.01 -0.067067,-0.02 0,-0.024 0.1462438,-0.231 0.2266241,-0.32 0.1095116,-0.1212 0.4177239,-0.1966 0.6407684,-0.1567 0.3659034,0.065 0.6434298,0.3325 0.7918059,0.7621 0.1042987,0.3019 0.1194972,0.6089 0.040486,0.8177 -0.08804,0.2326 -0.3715514,0.5736 -0.6770467,0.8144 -0.1766326,0.1393 -0.2012808,0.1539 -0.1830228,0.109 z m -4.7416053,-0.8058 c -0.318966,-0.041 -0.677177,-0.1823 -0.88842,-0.3515 -0.395875,-0.3171 -0.64802,-0.911 -0.792595,-1.8668 -0.1472083,-0.9732 0.124747,-2.3933 0.636309,-3.3226 0.675066,-1.2263 1.818962,-2.3 3.0192941,-2.8339 0.610362,-0.2714 1.2149051,-0.4328 1.6807015,-0.4485 l 0.2576378,-0.01 0.1004424,0.111 c 0.2793569,0.3087 0.6239699,0.9599 0.7652633,1.4461 0.092218,0.3173 0.094652,0.6932 0.00658,1.0167 -0.019763,0.073 -0.1391713,0.3419 -0.2730262,0.6157 -0.1308459,0.2677 -0.312379,0.6499 -0.4034071,0.8494 l -0.1655056,0.3628 -0.2816608,-0.01 c -0.3852387,-0.01 -0.7060027,0.051 -0.9895052,0.1813 -0.1508014,0.069 -0.4355736,0.2556 -0.5967269,0.3904 -0.4143696,0.3465 -0.6851526,0.9833 -0.6431166,1.5125 0.01666,0.2097 0.06359,0.3811 0.190174,0.6947 0.1012201,0.2507 0.1092401,0.2809 0.1168991,0.44 0.0099,0.2065 -0.02443,0.3292 -0.1488191,0.5312 -0.110622,0.1796 -0.184875,0.2667 -0.308587,0.3619 -0.357416,0.275 -0.795974,0.3859 -1.281935,0.324 z m 5.7615723,-0.5747 c -0.00731,-0.1842 -0.1912042,-0.6466 -0.3282159,-0.8254 -0.035538,-0.046 -0.072216,-0.1062 -0.081506,-0.1328 -0.010655,-0.031 -0.044579,-0.062 -0.091892,-0.086 -0.041251,-0.021 -0.1333603,-0.067 -0.2046887,-0.1036 -0.071328,-0.036 -0.1708688,-0.077 -0.2212013,-0.09 -0.1873838,-0.05 -0.4780083,-0.022 -0.6174279,0.06 -0.026466,0.015 -0.053005,0.023 -0.058976,0.017 -0.019924,-0.02 0.026436,-0.3852 0.05619,-0.4428 0.047237,-0.091 0.2267375,-0.2582 0.3284981,-0.3054 0.2272032,-0.1053 0.4872147,-0.1062 0.7117045,0 0.1843348,0.085 0.3617631,0.2195 0.4919477,0.3724 0.216093,0.2539 0.2752917,0.487 0.2213236,0.8715 -0.030197,0.2152 -0.1021674,0.4839 -0.1675156,0.6255 -0.025761,0.056 -0.037196,0.068 -0.038241,0.042 z m -3.7973052,-0.9112 c -0.07504,-0.022 -0.178104,-0.1122 -0.23057,-0.2017 -0.04437,-0.076 -0.09591,-0.273 -0.0965,-0.3694 l -3.08e-4,-0.05 0.08406,0.074 c 0.04623,0.041 0.131836,0.1026 0.190233,0.1375 0.09624,0.058 0.1186034,0.064 0.2388974,0.064 0.1584672,7e-4 0.2916565,-0.052 0.3967434,-0.1572 0.3185892,-0.1011 -0.068772,0.3356 -0.087254,0.4258 -0.1072088,0.082 -0.3505299,0.1197 -0.4953018,0.077 z m 0.017025,-0.5292 c -0.16621,-0.054 -0.289529,-0.1502 -0.3528831,-0.2741 -0.04764,-0.093 -0.05333,-0.1211 -0.05225,-0.2562 9.9e-4,-0.1241 0.01051,-0.1749 0.05248,-0.2799 0.0282,-0.071 0.05653,-0.1283 0.06294,-0.1283 0.0064,0 0.01657,0.024 0.02257,0.054 0.01754,0.088 0.168467,0.3754 0.220278,0.4199 0.074812,0.064 0.2122358,0.1289 0.3052392,0.1436 0.08267,0.013 0.2411877,-2e-4 0.3041405,-0.025 0.024458,-0.01 0.030968,0 0.030968,0.031 0,0.064 -0.035298,0.1581 -0.07766,0.206 -0.051896,0.059 -0.2146883,0.128 -0.3205026,0.1365 -0.057585,0 -0.12579,-0.01 -0.1953286,-0.028 z m 3.9332558,-0.122 c -0.1222992,-0.1848 -0.3678869,-0.4012 -0.5702074,-0.5024 -0.058462,-0.029 -0.1191931,-0.064 -0.1349582,-0.078 -0.038204,-0.034 -0.4484394,-0.021 -0.565915,0.017 -0.1958622,0.064 -0.3554269,0.1746 -0.4611148,0.3199 l -0.050064,0.069 -0.041873,-0.095 c -0.066258,-0.1509 -0.088642,-0.2626 -0.074808,-0.3733 0.0155,-0.1241 0.1109997,-0.3239 0.1895125,-0.3966 0.2610055,-0.2416 0.7835321,-0.2909 1.1636984,-0.1097 0.3135599,0.1494 0.5325035,0.544 0.5844295,1.0533 0.00873,0.086 0.0138,0.1578 0.01127,0.1604 -0.00253,0 -0.025017,-0.026 -0.04997,-0.064 z m -3.7098536,-0.3418 c -0.091852,-0.026 -0.2675052,-0.2128 -0.3391132,-0.3599 -0.05255,-0.1079 -0.06022,-0.1409 -0.0597,-0.2566 9.96e-4,-0.22 0.100441,-0.3947 0.3279737,-0.5763 0.066281,-0.053 0.1238713,-0.096 0.1279796,-0.096 0.00411,0 -0.00369,0.046 -0.017332,0.1017 -0.013641,0.056 -0.029371,0.1894 -0.034956,0.2964 -0.00905,0.1736 -0.00604,0.2041 0.027729,0.2816 0.0889,0.204 0.2543981,0.3558 0.4520301,0.4144 l 0.1025723,0.031 -0.095318,0.073 c -0.052425,0.041 -0.1177159,0.082 -0.1450909,0.092 -0.060686,0.023 -0.2641329,0.022 -0.3467728,0 z m 1.5905799,-0.3282 c -0.2112165,-0.159 -0.2835224,-0.2872 -0.2870452,-0.5089 -0.00165,-0.104 0.00643,-0.1413 0.049293,-0.228 0.066198,-0.1339 0.2039974,-0.2729 0.3619551,-0.3652 0.1828638,-0.1068 0.301863,-0.1438 0.4956999,-0.1545 0.1479667,-0.01 0.1833313,0 0.2951029,0.035 0.069844,0.024 0.1828594,0.081 0.2511444,0.1267 0.1254038,0.083 0.3913405,0.3497 0.4500008,0.4506 l 0.03181,0.055 -0.079554,-0.034 c -0.1932196,-0.083 -0.3348217,-0.1125 -0.5945825,-0.1245 -0.231359,-0.011 -0.2613089,-0.01 -0.3045412,0.021 -0.026371,0.018 -0.053201,0.032 -0.059622,0.032 -0.031819,0 -0.2229115,0.1322 -0.3052371,0.2111 -0.1068181,0.1024 -0.1874838,0.2578 -0.2169422,0.4178 -0.010684,0.058 -0.020924,0.1071 -0.022756,0.109 -0.00183,0 -0.030959,-0.017 -0.064728,-0.043 z m -1.1143146,-0.01 c -0.034065,-0.01 -0.1057342,-0.046 -0.159265,-0.082 -0.1739516,-0.1169 -0.255282,-0.3596 -0.2152916,-0.6423 0.027303,-0.1931 0.070504,-0.2815 0.2015349,-0.4123 0.1539527,-0.1538 0.3342179,-0.2341 0.6419684,-0.2861 l 0.070784,-0.012 -0.063307,0.069 c -0.090555,0.098 -0.157361,0.189 -0.2646926,0.3605 l -0.094129,0.1504 -0.00129,0.2124 c -0.00124,0.2042 8.831e-4,0.2168 0.055278,0.3279 0.031112,0.064 0.092774,0.1523 0.1370275,0.1972 l 0.08046,0.082 -0.1259262,0.028 c -0.1395948,0.032 -0.1727253,0.033 -0.2631536,0.01 z m 0.6124012,-0.131 c -0.1422744,-0.028 -0.2305385,-0.083 -0.3096657,-0.1936 -0.082712,-0.1152 -0.1081324,-0.1892 -0.1076215,-0.3135 8.653e-4,-0.2105 0.1182317,-0.4621 0.3024257,-0.6485 0.2234701,-0.2261 0.5210468,-0.2852 0.9004523,-0.1789 0.156625,0.044 0.3389199,0.1224 0.3274221,0.141 -0.00446,0.01 -0.058049,0.019 -0.1190969,0.025 -0.1329326,0.015 -0.3461605,0.083 -0.4560707,0.1466 -0.043798,0.025 -0.1075038,0.06 -0.1415688,0.078 -0.062973,0.033 -0.070943,0.043 -0.1727986,0.2114 -0.122806,0.2034 -0.1552573,0.4749 -0.079639,0.6664 0.042452,0.1075 0.050349,0.1039 -0.1438387,0.065 z"
       id="path3349"
       inkscape:connector-curvature="0"
       sodipodi:nodetypes="cccccsccccccsccccccccccsccccccscccccccccccscccccccscccccsccsccsscccccccccsscccccccccccccccccccccccccccccccccccccccccccccccccsccccsccccccccccccccccccccccscccccccccccscccccccccsccccccccccccccsccccccccscccccccccc" />
  </g>
</svg>
