<?xml version="1.0" encoding="UTF-8" standalone="no"?>
<svg
   xmlns:dc="http://purl.org/dc/elements/1.1/"
   xmlns:cc="http://creativecommons.org/ns#"
   xmlns:rdf="http://www.w3.org/1999/02/22-rdf-syntax-ns#"
   xmlns:svg="http://www.w3.org/2000/svg"
   xmlns="http://www.w3.org/2000/svg"
   xmlns:sodipodi="http://sodipodi.sourceforge.net/DTD/sodipodi-0.dtd"
   xmlns:inkscape="http://www.inkscape.org/namespaces/inkscape"
   viewBox="0 0 24 24"
   height="24"
   width="24"
   xml:space="preserve"
   version="1.1"
   id="svg4555"
   sodipodi:docname="no-access.svg"
   inkscape:version="1.0 (1.0+r73+1)"><sodipodi:namedview
     fit-margin-bottom="0"
     fit-margin-right="0"
     fit-margin-left="0"
     fit-margin-top="0"
     inkscape:document-rotation="0"
     pagecolor="#ffffff"
     bordercolor="#666666"
     borderopacity="1"
     objecttolerance="10"
     gridtolerance="10"
     guidetolerance="10"
     inkscape:pageopacity="0"
     inkscape:pageshadow="2"
     inkscape:window-width="1848"
     inkscape:window-height="1137"
     id="namedview34"
     showgrid="false"
     inkscape:zoom="17.331222"
     inkscape:cx="8.985623"
     inkscape:cy="18.055414"
     inkscape:window-x="72"
     inkscape:window-y="26"
     inkscape:window-maximized="1"
     inkscape:current-layer="svg4555" /><metadata
     id="metadata4561"><rdf:RDF><cc:Work
         rdf:about=""><dc:format>image/svg+xml</dc:format><dc:type
           rdf:resource="http://purl.org/dc/dcmitype/StillImage" /><dc:title></dc:title></cc:Work></rdf:RDF></metadata><defs
     id="defs4559" /><path
     id="path4567"
     style="fill:#ffffff;fill-opacity:0.497735;fill-rule:nonzero;stroke:none;stroke-width:1.25"
     d="M 24,12 C 24,18.627551 18.627551,24 12.000001,24 5.3725003,24 0,18.627551 0,12 0,5.3725 5.3725003,0 12.000001,0 18.627551,0 24,5.3725 24,12 Z" /><path
     id="path4569"
     style="fill:#c1121c;fill-opacity:1;fill-rule:nonzero;stroke:none;stroke-width:1.25"
     d="m 12,3.1999995 c -4.84569,0 -8.8000003,3.9543105 -8.8000003,8.7999995 C 3.1999997,16.845688 7.15431,20.8 12,20.8 c 4.845537,0 8.8,-3.954312 8.8,-8.800001 C 20.8,7.15431 16.845537,3.1999995 12,3.1999995 Z M 4.1103447,10.634482 H 19.889656 v 2.731035 H 4.1103447 Z" /><path
     id="path4573"
     style="fill:#000000;fill-opacity:1;fill-rule:nonzero;stroke:none;stroke-width:1.25"
     d="m 2.2365305,2.2640847 v 0.00144 h -0.00137 z" /><path
     id="path4575"
     style="fill:#000000;fill-opacity:1;fill-rule:nonzero;stroke:none;stroke-width:1.25"
     d="m 2.2351528,2.2640847 h 0.00137 v 0.00137 h -0.00137 z" /><path
     id="path4577"
     style="fill:#000000;fill-opacity:1;fill-rule:nonzero;stroke:none;stroke-width:1.25"
     d="m 2.2351528,2.2655223 v -0.00144 l 0.00137,0.00144 z m 0.00137,0 -0.00137,-0.00144 v 0.00144 z" /><path
     id="path4579"
     style="fill:#000000;fill-opacity:1;fill-rule:nonzero;stroke:none;stroke-width:1.25"
     d="m 2.2381479,2.2655223 h -0.00299 0.00137 v -0.00144 z" /><path
     id="path4581"
     style="fill:#000000;fill-opacity:1;fill-rule:nonzero;stroke:none;stroke-width:1.25"
     d="m 2.2351528,2.2655223 v -0.00144 0.00144 l 0.00137,-0.00144 z" /><path
     id="path4583"
     style="fill:#000000;fill-opacity:1;fill-rule:nonzero;stroke:none;stroke-width:1.25"
     d="m 2.2351528,2.2640847 h 0.00137 v 0.00137 h -0.00137 z" /><path
     id="path4585"
     style="fill:#000000;fill-opacity:1;fill-rule:nonzero;stroke:none;stroke-width:1.25"
     d="m 2.2381479,2.2640847 v 0.00281 h -0.00299 z" /><path
     id="path4587"
     style="fill:#000000;fill-opacity:1;fill-rule:nonzero;stroke:none;stroke-width:1.25"
     d="m 2.2351528,2.2640847 h 0.00305 v 0.00281 h -0.00305 z" /><path
     id="path4589"
     style="fill:#000000;fill-opacity:1;fill-rule:nonzero;stroke:none;stroke-width:1.25"
     d="M 2.2351528,2.2669 V 2.26409 l 0.00299,0.00281 z m 0.00299,0 -0.00299,-0.00281 V 2.2669 Z" /><path
     id="path4591"
     style="fill:#000000;fill-opacity:1;fill-rule:nonzero;stroke:none;stroke-width:1.25"
     d="m 2.2381479,2.2669 h -0.00299 0.00137 V 2.26409 Z" /><path
     id="path4593"
     style="fill:#000000;fill-opacity:1;fill-rule:nonzero;stroke:none;stroke-width:1.25"
     d="M 2.2351528,2.2669 V 2.26409 2.2669 l 0.00299,-0.00281 z" /><path
     id="path4595"
     style="fill:#000000;fill-opacity:1;fill-rule:nonzero;stroke:none;stroke-width:1.25"
     d="m 2.2351528,2.2640847 h 0.00305 v 0.00281 h -0.00305 z" /><path
     id="path4597"
     style="fill:#000000;fill-opacity:1;fill-rule:nonzero;stroke:none;stroke-width:1.25"
     d="m 2.2381479,2.2640847 v 0.00281 h -0.00299 z" /><path
     id="path4599"
     style="fill:#000000;fill-opacity:1;fill-rule:nonzero;stroke:none;stroke-width:1.25"
     d="m 2.2351528,2.2640847 h 0.00305 v 0.00281 h -0.00305 z" /><path
     id="path4601"
     style="fill:#000000;fill-opacity:1;fill-rule:nonzero;stroke:none;stroke-width:1.25"
     d="M 2.2351528,2.2669 V 2.26409 l 0.00299,0.00281 z m 0.00299,0 -0.00299,-0.00281 V 2.2669 Z" /><path
     id="path4603"
     style="fill:#000000;fill-opacity:1;fill-rule:nonzero;stroke:none;stroke-width:1.25"
     d="m 2.2381479,2.2669 h -0.00299 0.00137 V 2.26409 Z" /><path
     id="path4605"
     style="fill:#000000;fill-opacity:1;fill-rule:nonzero;stroke:none;stroke-width:1.25"
     d="M 2.2351528,2.2669 V 2.26409 2.2669 l 0.00299,-0.00281 z" /><path
     id="path4607"
     style="fill:#000000;fill-opacity:1;fill-rule:nonzero;stroke:none;stroke-width:1.25"
     d="m 2.2351528,2.2640847 h 0.00305 v 0.00281 h -0.00305 z" /><path
     id="path4609"
     style="fill:#000000;fill-opacity:1;fill-rule:nonzero;stroke:none;stroke-width:1.25"
     d="m 2.2381479,2.2640847 v 0.00281 h -0.00299 z" /><path
     id="path4611"
     style="fill:#000000;fill-opacity:1;fill-rule:nonzero;stroke:none;stroke-width:1.25"
     d="m 2.2351528,2.2640847 h 0.00305 v 0.00281 h -0.00305 z" /><path
     id="path4613"
     style="fill:#000000;fill-opacity:1;fill-rule:nonzero;stroke:none;stroke-width:1.25"
     d="M 2.2351528,2.2669 V 2.26409 l 0.00299,0.00281 z m 0.00299,0 -0.00299,-0.00281 V 2.2669 Z" /><path
     id="path4615"
     style="fill:#000000;fill-opacity:1;fill-rule:nonzero;stroke:none;stroke-width:1.25"
     d="m 2.2381479,2.2669 h -0.00299 0.00137 V 2.26409 Z" /><path
     id="path4617"
     style="fill:#000000;fill-opacity:1;fill-rule:nonzero;stroke:none;stroke-width:1.25"
     d="M 2.2351528,2.2669 V 2.26409 2.2669 l 0.00299,-0.00281 z" /><path
     id="path4619"
     style="fill:#000000;fill-opacity:1;fill-rule:nonzero;stroke:none;stroke-width:1.25"
     d="m 2.2351528,2.2640847 h 0.00305 v 0.00281 h -0.00305 z" /><path
     style="fill:#ffffff;fill-opacity:1;stroke:none;stroke-width:22.677;stroke-linejoin:round;stop-color:#000000"
     d="m 4.1176146,11.995905 v -1.350164 h 7.8817294 7.881729 v 1.350164 1.350164 H 11.999344 4.1176146 Z"
     id="path1570" /></svg>
