<?xml version="1.0" encoding="UTF-8" standalone="no"?>
<svg
   xmlns:dc="http://purl.org/dc/elements/1.1/"
   xmlns:cc="http://creativecommons.org/ns#"
   xmlns:rdf="http://www.w3.org/1999/02/22-rdf-syntax-ns#"
   xmlns:svg="http://www.w3.org/2000/svg"
   xmlns="http://www.w3.org/2000/svg"
   xmlns:sodipodi="http://sodipodi.sourceforge.net/DTD/sodipodi-0.dtd"
   xmlns:inkscape="http://www.inkscape.org/namespaces/inkscape"
   viewBox="0 0 18 18"
   height="18"
   width="18"
   xml:space="preserve"
   version="1.1"
   id="svg4555"
   sodipodi:docname="no-access.svg"
   inkscape:version="1.0 (1.0+r73+1)"><sodipodi:namedview
     fit-margin-bottom="0"
     fit-margin-right="0"
     fit-margin-left="0"
     fit-margin-top="0"
     inkscape:document-rotation="0"
     pagecolor="#ffffff"
     bordercolor="#666666"
     borderopacity="1"
     objecttolerance="10"
     gridtolerance="10"
     guidetolerance="10"
     inkscape:pageopacity="0"
     inkscape:pageshadow="2"
     inkscape:window-width="1848"
     inkscape:window-height="1137"
     id="namedview34"
     showgrid="false"
     inkscape:zoom="34.662444"
     inkscape:cx="11.066812"
     inkscape:cy="9.6698973"
     inkscape:window-x="72"
     inkscape:window-y="26"
     inkscape:window-maximized="1"
     inkscape:current-layer="svg4555" /><metadata
     id="metadata4561"><rdf:RDF><cc:Work
         rdf:about=""><dc:format>image/svg+xml</dc:format><dc:type
           rdf:resource="http://purl.org/dc/dcmitype/StillImage" /><dc:title></dc:title></cc:Work></rdf:RDF></metadata><defs
     id="defs4559" /><path
     id="path4567"
     style="fill:#ffffff;fill-opacity:0.497735;fill-rule:nonzero;stroke:none;stroke-width:1.25"
     d="M 18,9.0000001 C 18,13.970663 13.970663,18 9.0000004,18 4.0293752,18 0,13.970663 0,9.0000001 0,4.029375 4.0293752,0 9.0000004,0 13.970663,0 18,4.029375 18,9.0000001 Z" /><path
     id="path4569"
     style="fill:#c1121c;fill-opacity:1;fill-rule:nonzero;stroke:none;stroke-width:1.25"
     d="m 8.9999999,2.3999996 c -3.6342673,0 -6.6000001,2.9657328 -6.6000001,6.6 C 2.3999998,12.634266 5.3657326,15.6 8.9999999,15.6 12.634153,15.6 15.6,12.634266 15.6,8.9999996 c 0,-3.6342672 -2.965847,-6.6 -6.6000001,-6.6 z M 3.0827585,7.9758617 H 14.917242 V 10.024138 H 3.0827585 Z" /><path
     id="path4573"
     style="fill:#000000;fill-opacity:1;fill-rule:nonzero;stroke:none;stroke-width:1.25"
     d="m 1.6773979,1.6980635 v 0.00108 h -0.00103 z" /><path
     id="path4575"
     style="fill:#000000;fill-opacity:1;fill-rule:nonzero;stroke:none;stroke-width:1.25"
     d="m 1.6763646,1.6980635 h 0.00103 v 0.00103 h -0.00103 z" /><path
     id="path4577"
     style="fill:#000000;fill-opacity:1;fill-rule:nonzero;stroke:none;stroke-width:1.25"
     d="m 1.6763646,1.6991417 v -0.00108 l 0.00103,0.00108 z m 0.00103,0 -0.00103,-0.00108 v 0.00108 z" /><path
     id="path4579"
     style="fill:#000000;fill-opacity:1;fill-rule:nonzero;stroke:none;stroke-width:1.25"
     d="m 1.6786109,1.6991417 h -0.00224 0.00103 v -0.00108 z" /><path
     id="path4581"
     style="fill:#000000;fill-opacity:1;fill-rule:nonzero;stroke:none;stroke-width:1.25"
     d="m 1.6763646,1.6991417 v -0.00108 0.00108 l 0.00103,-0.00108 z" /><path
     id="path4583"
     style="fill:#000000;fill-opacity:1;fill-rule:nonzero;stroke:none;stroke-width:1.25"
     d="m 1.6763646,1.6980635 h 0.00103 v 0.00103 h -0.00103 z" /><path
     id="path4585"
     style="fill:#000000;fill-opacity:1;fill-rule:nonzero;stroke:none;stroke-width:1.25"
     d="m 1.6786109,1.6980635 v 0.00211 h -0.00224 z" /><path
     id="path4587"
     style="fill:#000000;fill-opacity:1;fill-rule:nonzero;stroke:none;stroke-width:1.25"
     d="m 1.6763646,1.6980635 h 0.00229 v 0.00211 h -0.00229 z" /><path
     id="path4589"
     style="fill:#000000;fill-opacity:1;fill-rule:nonzero;stroke:none;stroke-width:1.25"
     d="m 1.6763646,1.700175 v -0.00211 l 0.00224,0.00211 z m 0.00224,0 -0.00224,-0.00211 v 0.00211 z" /><path
     id="path4591"
     style="fill:#000000;fill-opacity:1;fill-rule:nonzero;stroke:none;stroke-width:1.25"
     d="m 1.6786109,1.700175 h -0.00224 0.00103 v -0.00211 z" /><path
     id="path4593"
     style="fill:#000000;fill-opacity:1;fill-rule:nonzero;stroke:none;stroke-width:1.25"
     d="m 1.6763646,1.700175 v -0.00211 0.00211 l 0.00224,-0.00211 z" /><path
     id="path4595"
     style="fill:#000000;fill-opacity:1;fill-rule:nonzero;stroke:none;stroke-width:1.25"
     d="m 1.6763646,1.6980635 h 0.00229 v 0.00211 h -0.00229 z" /><path
     id="path4597"
     style="fill:#000000;fill-opacity:1;fill-rule:nonzero;stroke:none;stroke-width:1.25"
     d="m 1.6786109,1.6980635 v 0.00211 h -0.00224 z" /><path
     id="path4599"
     style="fill:#000000;fill-opacity:1;fill-rule:nonzero;stroke:none;stroke-width:1.25"
     d="m 1.6763646,1.6980635 h 0.00229 v 0.00211 h -0.00229 z" /><path
     id="path4601"
     style="fill:#000000;fill-opacity:1;fill-rule:nonzero;stroke:none;stroke-width:1.25"
     d="m 1.6763646,1.700175 v -0.00211 l 0.00224,0.00211 z m 0.00224,0 -0.00224,-0.00211 v 0.00211 z" /><path
     id="path4603"
     style="fill:#000000;fill-opacity:1;fill-rule:nonzero;stroke:none;stroke-width:1.25"
     d="m 1.6786109,1.700175 h -0.00224 0.00103 v -0.00211 z" /><path
     id="path4605"
     style="fill:#000000;fill-opacity:1;fill-rule:nonzero;stroke:none;stroke-width:1.25"
     d="m 1.6763646,1.700175 v -0.00211 0.00211 l 0.00224,-0.00211 z" /><path
     id="path4607"
     style="fill:#000000;fill-opacity:1;fill-rule:nonzero;stroke:none;stroke-width:1.25"
     d="m 1.6763646,1.6980635 h 0.00229 v 0.00211 h -0.00229 z" /><path
     id="path4609"
     style="fill:#000000;fill-opacity:1;fill-rule:nonzero;stroke:none;stroke-width:1.25"
     d="m 1.6786109,1.6980635 v 0.00211 h -0.00224 z" /><path
     id="path4611"
     style="fill:#000000;fill-opacity:1;fill-rule:nonzero;stroke:none;stroke-width:1.25"
     d="m 1.6763646,1.6980635 h 0.00229 v 0.00211 h -0.00229 z" /><path
     id="path4613"
     style="fill:#000000;fill-opacity:1;fill-rule:nonzero;stroke:none;stroke-width:1.25"
     d="m 1.6763646,1.700175 v -0.00211 l 0.00224,0.00211 z m 0.00224,0 -0.00224,-0.00211 v 0.00211 z" /><path
     id="path4615"
     style="fill:#000000;fill-opacity:1;fill-rule:nonzero;stroke:none;stroke-width:1.25"
     d="m 1.6786109,1.700175 h -0.00224 0.00103 v -0.00211 z" /><path
     id="path4617"
     style="fill:#000000;fill-opacity:1;fill-rule:nonzero;stroke:none;stroke-width:1.25"
     d="m 1.6763646,1.700175 v -0.00211 0.00211 l 0.00224,-0.00211 z" /><path
     id="path4619"
     style="fill:#000000;fill-opacity:1;fill-rule:nonzero;stroke:none;stroke-width:1.25"
     d="m 1.6763646,1.6980635 h 0.00229 v 0.00211 h -0.00229 z" /><path
     style="fill:#ffffff;fill-opacity:1;stroke:none;stroke-width:22.6771;stroke-linejoin:round;stop-color:#000000"
     d="M 3.0882109,8.9969287 V 7.9843054 h 5.911297 5.9112971 V 8.9969287 10.009552 H 8.9995079 3.0882109 Z"
     id="path1570" /></svg>
