<?xml version="1.0" encoding="UTF-8" standalone="no"?>
<!-- Created with Inkscape (http://www.inkscape.org/) -->

<svg
   xmlns:dc="http://purl.org/dc/elements/1.1/"
   xmlns:cc="http://creativecommons.org/ns#"
   xmlns:rdf="http://www.w3.org/1999/02/22-rdf-syntax-ns#"
   xmlns:svg="http://www.w3.org/2000/svg"
   xmlns="http://www.w3.org/2000/svg"
   xmlns:sodipodi="http://sodipodi.sourceforge.net/DTD/sodipodi-0.dtd"
   xmlns:inkscape="http://www.inkscape.org/namespaces/inkscape"
   width="24"
   height="24"
   id="svg2"
   version="1.1"
   inkscape:version="0.92.3 (2405546, 2018-03-11)"
   sodipodi:docname="pub.svg">
  <sodipodi:namedview
     id="base"
     pagecolor="#ffffff"
     bordercolor="#666666"
     borderopacity="1.0"
     inkscape:pageopacity="0.0"
     inkscape:pageshadow="2"
     inkscape:zoom="22.627417"
     inkscape:cx="6.9763444"
     inkscape:cy="0.12051895"
     inkscape:document-units="px"
     inkscape:current-layer="layer1"
     showgrid="true"
     inkscape:window-width="1869"
     inkscape:window-height="1145"
     inkscape:window-x="51"
     inkscape:window-y="27"
     inkscape:window-maximized="1"
     fit-margin-top="0"
     fit-margin-left="0"
     fit-margin-right="0"
     fit-margin-bottom="0"
     inkscape:snap-global="true">
    <inkscape:grid
       snapvisiblegridlinesonly="true"
       enabled="true"
       visible="true"
       empspacing="5"
       id="grid2994"
       type="xygrid"
       originx="-1.1197363e-16"
       originy="0" />
  </sodipodi:namedview>
  <defs
     id="defs4">
    <filter
       id="filter3028"
       x="0"
       y="0"
       width="1"
       height="1"
       inkscape:label="Lightness-Contrast"
       inkscape:menu="Color"
       inkscape:menu-tooltip="Increase or decrease lightness and contrast"
       style="color-interpolation-filters:sRGB">
      <feFlood
         id="feFlood3030"
         result="result1"
         flood-opacity="0"
         flood-color="rgb(128,128,128)" />
      <feBlend
         id="feBlend3032"
         in2="SourceGraphic"
         mode="normal"
         result="result2" />
      <feComposite
         id="feComposite3034"
         in2="SourceGraphic"
         k2="1"
         operator="arithmetic"
         result="result3"
         k1="0"
         k3="0"
         k4="0" />
      <feComposite
         id="feComposite3036"
         in2="SourceGraphic"
         operator="in" />
    </filter>
    <filter
       id="filter3055"
       inkscape:label="Lightness-Contrast"
       x="0"
       y="0"
       width="1"
       height="1"
       inkscape:menu="Color"
       inkscape:menu-tooltip="Increase or decrease lightness and contrast"
       style="color-interpolation-filters:sRGB">
      <feColorMatrix
         id="feColorMatrix3057"
         type="saturate"
         values="0"
         result="fbSourceGraphic" />
      <feColorMatrix
         result="fbSourceGraphicAlpha"
         in="fbSourceGraphic"
         values="0 0 0 -1 0 0 0 0 -1 0 0 0 0 -1 0 0 0 0 1 0"
         id="feColorMatrix3079" />
      <feFlood
         id="feFlood3081"
         result="result1"
         flood-opacity="0"
         flood-color="rgb(128,128,128)"
         in="fbSourceGraphic" />
      <feBlend
         id="feBlend3083"
         in2="fbSourceGraphic"
         mode="normal"
         result="result2" />
      <feComposite
         id="feComposite3085"
         in2="fbSourceGraphic"
         k2="1"
         operator="arithmetic"
         result="result3"
         k1="0"
         k3="0"
         k4="0" />
      <feComposite
         id="feComposite3087"
         in2="fbSourceGraphic"
         operator="in" />
    </filter>
    <inkscape:perspective
       id="perspective12"
       inkscape:persp3d-origin="290 : 193.33333 : 1"
       inkscape:vp_z="580 : 290 : 1"
       inkscape:vp_y="0 : 1000 : 0"
       inkscape:vp_x="0 : 290 : 1"
       sodipodi:type="inkscape:persp3d" />
    <inkscape:perspective
       id="perspective12-1"
       inkscape:persp3d-origin="290 : 193.33333 : 1"
       inkscape:vp_z="580 : 290 : 1"
       inkscape:vp_y="0 : 1000 : 0"
       inkscape:vp_x="0 : 290 : 1"
       sodipodi:type="inkscape:persp3d" />
  </defs>
  <metadata
     id="metadata7">
    <rdf:RDF>
      <cc:Work
         rdf:about="">
        <dc:format>image/svg+xml</dc:format>
        <dc:type
           rdf:resource="http://purl.org/dc/dcmitype/StillImage" />
        <dc:title></dc:title>
      </cc:Work>
    </rdf:RDF>
  </metadata>
  <g
     transform="translate(4.8596183e-7,-1028.3622)"
     id="layer1"
     inkscape:groupmode="layer"
     inkscape:label="Layer 1">
    <path
       id="rect4334"
       d="M 5.9999995,1028.3622 H 18 c 3.324,0 6,2.676 6,6 v 12 c 0,3.324 -2.676,6 -6,6 H 5.9999995 c -3.324,0 -5.99999998596183,-2.676 -5.99999998596183,-6 v -12 c 0,-3.324 2.67599998596183,-6 5.99999998596183,-6 z"
       style="fill:#734a08;fill-opacity:1;stroke:none;stroke-width:2"
       inkscape:connector-curvature="0" />
    <g
       id="text3782"
       style="font-style:normal;font-weight:normal;font-size:40px;line-height:125%;font-family:Sans;letter-spacing:0px;word-spacing:0px;fill:#ffffff;fill-opacity:1;stroke:none" />
    <path
       inkscape:connector-curvature="0"
       id="path3000"
       d=""
       style="fill:#000000" />
    <path
       style="fill:#ffffff;stroke-width:2"
       d="m 12,1031.3622 c -1.898009,0 -3.6159475,0.1053 -4.8750005,0.1875 -0.6295266,0.041 -1.130411,0.071 -1.5,0.125 -0.1847944,0.027 -0.3724852,0.025 -0.5,0.062 -0.063757,0.019 -0.112847,0.081 -0.1875,0.125 -0.037327,0.022 -0.075351,0 -0.125,0.062 -0.049649,0.058 -0.125,0.1873 -0.125,0.3125 a 0.41136444,0.41136444 0 0 0 0,0.062 l 2.1875,16.3125 a 0.41136444,0.41136444 0 0 0 0.0625,0.062 c 0.07006,0.197 0.1916208,0.2202 0.25,0.25 0.058379,0.03 0.07648,0.049 0.125,0.062 0.097039,0.028 0.1824544,0.043 0.3125,0.062 0.2600914,0.039 0.6343866,0.095 1.0625,0.125 0.856227,0.06 2.0154575,0.125 3.3125005,0.125 1.297125,0 2.456308,-0.065 3.3125,-0.125 0.428095,-0.03 0.802538,-0.086 1.0625,-0.125 0.12998,-0.02 0.215672,-0.035 0.3125,-0.062 0.04841,-0.014 0.0668,-0.033 0.125,-0.062 0.0582,-0.03 0.179094,-0.052 0.25,-0.25 a 0.41136444,0.41136444 0 0 0 0.0625,-0.062 l 2.125,-16.3125 a 0.41136444,0.41136444 0 0 0 0,-0.062 0.41136444,0.41136444 0 0 0 -0.0625,-0.062 0.41136444,0.41136444 0 0 0 0,-0.062 c -0.0551,-0.223 -0.181007,-0.2134 -0.25,-0.25 -0.06899,-0.037 -0.124037,-0.1068 -0.1875,-0.125 -0.126927,-0.036 -0.2534,-0.035 -0.4375,-0.062 -0.368202,-0.054 -0.879534,-0.084 -1.5,-0.125 -1.240933,-0.083 -2.931423,-0.1875 -4.8125,-0.1875 z m 3.625,3.4375 c 0.350016,-0.033 0.746561,0 1.125,0 l -1.8125,12.1875 c -0.176817,0.01 -0.403794,0 -0.6875,0 -0.618996,0.01 -1.429828,0.01 -2.25,0 -0.820173,-0.01 -1.693425,-0.044 -2.3125005,-0.062 -0.3095378,-0.01 -0.570048,0.011 -0.75,0 l -1.875,-11.75 c 1.5830606,0.818 3.0586165,0.7529 4.5000005,0.4375 1.254883,-0.2746 2.545764,-0.6717 4.0625,-0.8125 z"
       id="path3197"
       inkscape:connector-curvature="0" />
  </g>
</svg>
