<?xml version="1.0" encoding="UTF-8" standalone="no"?>
<svg
   xmlns:dc="http://purl.org/dc/elements/1.1/"
   xmlns:cc="http://creativecommons.org/ns#"
   xmlns:rdf="http://www.w3.org/1999/02/22-rdf-syntax-ns#"
   xmlns:svg="http://www.w3.org/2000/svg"
   xmlns="http://www.w3.org/2000/svg"
   xmlns:sodipodi="http://sodipodi.sourceforge.net/DTD/sodipodi-0.dtd"
   xmlns:inkscape="http://www.inkscape.org/namespaces/inkscape"
   sodipodi:docname="shelter.svg"
   inkscape:version="1.0 (1.0+r73+1)"
   version="1.1"
   id="svg2"
   height="26.499947"
   width="17.959799">
  <defs
     id="defs4" />
  <sodipodi:namedview
     inkscape:document-rotation="0"
     inkscape:pagecheckerboard="true"
     fit-margin-bottom="0"
     fit-margin-right="0"
     fit-margin-left="0"
     fit-margin-top="0"
     inkscape:window-maximized="1"
     inkscape:window-y="26"
     inkscape:window-x="72"
     inkscape:window-height="1137"
     inkscape:window-width="1848"
     showgrid="false"
     inkscape:current-layer="layer1"
     inkscape:document-units="px"
     inkscape:cy="16.143307"
     inkscape:cx="10.95088"
     inkscape:zoom="22.4"
     inkscape:pageshadow="2"
     inkscape:pageopacity="0.0"
     borderopacity="1.0"
     bordercolor="#666666"
     pagecolor="#ffffff"
     id="base">
    <inkscape:grid
       spacingy="1"
       spacingx="1"
       originy="-5.9999217"
       originx="-2"
       snapvisiblegridlinesonly="true"
       enabled="true"
       visible="true"
       empspacing="5"
       id="grid3761"
       type="xygrid" />
  </sodipodi:namedview>
  <metadata
     id="metadata7">
    <rdf:RDF>
      <cc:Work
         rdf:about="">
        <dc:format>image/svg+xml</dc:format>
        <dc:type
           rdf:resource="http://purl.org/dc/dcmitype/StillImage" />
        <dc:title></dc:title>
      </cc:Work>
    </rdf:RDF>
  </metadata>
  <g
     transform="translate(-2,-1019.8622)"
     id="layer1"
     inkscape:groupmode="layer"
     inkscape:label="Layer 1">
    <path
       transform="translate(2,1019.8622)"
       d="M 3.5253906 0 A 3.50035 3.50035 0 0 0 0 3.5 L 0 23 L 0 26.5 L 7 26.5 L 7 23 L 7 19.072266 C 7.1969518 19.172127 7.4054393 19.261496 7.6386719 19.326172 L 7.6386719 25.5 L 12.861328 25.5 L 12.861328 19.326172 C 13.901751 19.037663 14.626953 18.368239 14.626953 17.585938 L 14.626953 11.912109 C 14.626953 11.157303 13.946848 10.514756 12.964844 10.210938 A 2.9532328 2.9532328 0 0 0 13.160156 9.1582031 A 2.9532328 2.9532328 0 0 0 13.060547 8.4003906 L 13.505859 8.4648438 L 16.970703 8.9609375 L 17.958984 2.03125 L 14.494141 1.5351562 L 3.9941406 0.03515625 A 3.50035 3.50035 0 0 0 3.5253906 0 z M 7 7.5351562 L 7.6796875 7.6328125 A 2.9532328 2.9532328 0 0 0 7.2539062 9.1582031 A 2.9532328 2.9532328 0 0 0 7.4589844 10.238281 C 7.2957512 10.292756 7.1433473 10.355052 7 10.427734 L 7 7.5351562 z "
       style="fill:#fffeff;fill-opacity:0.502164;stroke:none;stroke-width:5.90647;stroke-linecap:square;stroke-linejoin:round;stroke-miterlimit:4;stroke-dasharray:none;stroke-opacity:1"
       id="path845-3" />
    <path
       sodipodi:nodetypes="ccc"
       inkscape:connector-curvature="0"
       id="path823"
       d="m 5.5,1042.8621 v -19.5 l 10.5,1.5"
       style="fill:none;stroke:#000000;stroke-width:3;stroke-linecap:square;stroke-linejoin:round;stroke-miterlimit:4;stroke-dasharray:none;stroke-opacity:1" />
    <circle
       r="1.6920719"
       cy="1029.0607"
       cx="12.249523"
       id="path845"
       style="fill:#000000;fill-opacity:1;stroke:none;stroke-width:3.38414383;stroke-linecap:square;stroke-linejoin:round;stroke-miterlimit:4;stroke-dasharray:none;stroke-opacity:1" />
    <rect
       ry="1.5"
       rx="1.9234501"
       y="1030.8621"
       x="9.3648252"
       height="7.5"
       width="5.77035"
       id="rect855"
       style="fill:#000000;fill-opacity:1;stroke:none;stroke-width:3.39716053;stroke-linecap:square;stroke-linejoin:round;stroke-miterlimit:4;stroke-dasharray:none;stroke-opacity:1" />
    <rect
       ry="2.6020503e-16"
       rx="4.0969512e-16"
       y="1036.8621"
       x="10.773919"
       height="7.4998927"
       width="2.952162"
       id="rect857"
       style="fill:#000000;fill-opacity:1;stroke:none;stroke-width:4.70541143;stroke-linecap:square;stroke-linejoin:round;stroke-miterlimit:4;stroke-dasharray:none;stroke-opacity:1" />
  </g>
</svg>
