<?xml version="1.0" encoding="UTF-8" standalone="no"?>
<!-- Created with Inkscape (http://www.inkscape.org/) -->

<svg
   xmlns:dc="http://purl.org/dc/elements/1.1/"
   xmlns:cc="http://creativecommons.org/ns#"
   xmlns:rdf="http://www.w3.org/1999/02/22-rdf-syntax-ns#"
   xmlns:svg="http://www.w3.org/2000/svg"
   xmlns="http://www.w3.org/2000/svg"
   xmlns:sodipodi="http://sodipodi.sourceforge.net/DTD/sodipodi-0.dtd"
   xmlns:inkscape="http://www.inkscape.org/namespaces/inkscape"
   width="12"
   height="12"
   id="svg2"
   version="1.1"
   inkscape:version="0.48.4 r9939"
   sodipodi:docname="station.red.svg">
  <defs
     id="defs4" />
  <sodipodi:namedview
     id="base"
     pagecolor="#ffffff"
     bordercolor="#666666"
     borderopacity="1.0"
     inkscape:pageopacity="0.0"
     inkscape:pageshadow="2"
     inkscape:zoom="31.678384"
     inkscape:cx="4.081495"
     inkscape:cy="4.6061434"
     inkscape:document-units="px"
     inkscape:current-layer="layer1"
     showgrid="true"
     inkscape:window-width="1920"
     inkscape:window-height="1151"
     inkscape:window-x="0"
     inkscape:window-y="25"
     inkscape:window-maximized="1"
     fit-margin-top="0"
     fit-margin-left="0"
     fit-margin-right="0"
     fit-margin-bottom="0"
     inkscape:snap-global="true">
    <inkscape:grid
       type="xygrid"
       id="grid2994"
       empspacing="5"
       visible="true"
       enabled="true"
       snapvisiblegridlinesonly="true" />
  </sodipodi:namedview>
  <metadata
     id="metadata7">
    <rdf:RDF>
      <cc:Work
         rdf:about="">
        <dc:format>image/svg+xml</dc:format>
        <dc:type
           rdf:resource="http://purl.org/dc/dcmitype/StillImage" />
        <dc:title></dc:title>
      </cc:Work>
    </rdf:RDF>
  </metadata>
  <g
     inkscape:label="Layer 1"
     inkscape:groupmode="layer"
     id="layer1"
     transform="translate(4.8596183e-7,-1040.3622)">
    <path
       style="fill:#000000;fill-opacity:1;stroke:none"
       d="M 3 0 C 1.338 0 0 1.338 0 3 L 0 9 C 0 10.662 1.338 12 3 12 L 9 12 C 10.662 12 12 10.662 12 9 L 12 3 C 12 1.338 10.662 0 9 0 L 3 0 z "
       transform="translate(-4.8596183e-7,1040.3622)"
       id="rect2998" />
    <path
       style="fill:#0092da;fill-opacity:1;stroke:none"
       d="m 3.0000169,1042.3622 5.9999652,0 c 0.5540097,0 1.0000174,0.446 1.0000174,1 l 0,6 c 0,0.554 -0.4460077,1 -1.0000174,1 l -5.9999652,0 c -0.5540096,0 -1.0000174,-0.446 -1.0000174,-1 l 0,-6 c 0,-0.554 0.4460078,-1 1.0000174,-1 z"
       id="rect2998-4" />
  </g>
</svg>
