<?xml version="1.0" encoding="UTF-8" standalone="no"?>
<svg
   xmlns:dc="http://purl.org/dc/elements/1.1/"
   xmlns:cc="http://creativecommons.org/ns#"
   xmlns:rdf="http://www.w3.org/1999/02/22-rdf-syntax-ns#"
   xmlns:svg="http://www.w3.org/2000/svg"
   xmlns="http://www.w3.org/2000/svg"
   xmlns:sodipodi="http://sodipodi.sourceforge.net/DTD/sodipodi-0.dtd"
   xmlns:inkscape="http://www.inkscape.org/namespaces/inkscape"
   sodipodi:docname="viewpoint.svg"
   inkscape:version="1.0 (1.0+r73+1)"
   version="1.1"
   id="svg2"
   height="26.246767"
   width="29.058596">
  <sodipodi:namedview
     inkscape:document-rotation="0"
     inkscape:snap-global="true"
     fit-margin-bottom="0"
     fit-margin-right="0"
     fit-margin-left="0"
     fit-margin-top="0"
     inkscape:window-maximized="1"
     inkscape:window-y="26"
     inkscape:window-x="72"
     inkscape:window-height="1137"
     inkscape:window-width="1848"
     showgrid="true"
     inkscape:current-layer="layer1"
     inkscape:document-units="px"
     inkscape:cy="11.335464"
     inkscape:cx="6.0784292"
     inkscape:zoom="22.627417"
     inkscape:pageshadow="2"
     inkscape:pageopacity="0.0"
     borderopacity="1.0"
     bordercolor="#666666"
     pagecolor="#ffffff"
     id="base">
    <inkscape:grid
       spacingy="1"
       spacingx="1"
       originy="1.0974273"
       originx="2.0566413"
       type="xygrid"
       id="grid2994"
       empspacing="5"
       visible="true"
       enabled="true"
       snapvisiblegridlinesonly="true" />
  </sodipodi:namedview>
  <defs
     id="defs4">
    <filter
       style="color-interpolation-filters:sRGB"
       inkscape:menu-tooltip="Increase or decrease lightness and contrast"
       inkscape:menu="Color"
       inkscape:label="Lightness-Contrast"
       height="1"
       width="1"
       y="0"
       x="0"
       id="filter3028">
      <feFlood
         flood-color="rgb(128,128,128)"
         flood-opacity="0"
         result="result1"
         id="feFlood3030" />
      <feBlend
         result="result2"
         mode="normal"
         in2="SourceGraphic"
         id="feBlend3032" />
      <feComposite
         k4="0"
         k3="0"
         k1="0"
         result="result3"
         operator="arithmetic"
         k2="1"
         in2="SourceGraphic"
         id="feComposite3034" />
      <feComposite
         operator="in"
         in2="SourceGraphic"
         id="feComposite3036" />
    </filter>
    <filter
       style="color-interpolation-filters:sRGB"
       inkscape:menu-tooltip="Increase or decrease lightness and contrast"
       inkscape:menu="Color"
       height="1"
       width="1"
       y="0"
       x="0"
       inkscape:label="Lightness-Contrast"
       id="filter3055">
      <feColorMatrix
         result="fbSourceGraphic"
         values="0"
         type="saturate"
         id="feColorMatrix3057" />
      <feColorMatrix
         id="feColorMatrix3079"
         values="0 0 0 -1 0 0 0 0 -1 0 0 0 0 -1 0 0 0 0 1 0"
         in="fbSourceGraphic"
         result="fbSourceGraphicAlpha" />
      <feFlood
         in="fbSourceGraphic"
         flood-color="rgb(128,128,128)"
         flood-opacity="0"
         result="result1"
         id="feFlood3081" />
      <feBlend
         result="result2"
         mode="normal"
         in2="fbSourceGraphic"
         id="feBlend3083" />
      <feComposite
         k4="0"
         k3="0"
         k1="0"
         result="result3"
         operator="arithmetic"
         k2="1"
         in2="fbSourceGraphic"
         id="feComposite3085" />
      <feComposite
         operator="in"
         in2="fbSourceGraphic"
         id="feComposite3087" />
    </filter>
    <inkscape:perspective
       sodipodi:type="inkscape:persp3d"
       inkscape:vp_x="0 : 290 : 1"
       inkscape:vp_y="0 : 1000 : 0"
       inkscape:vp_z="580 : 290 : 1"
       inkscape:persp3d-origin="290 : 193.33333 : 1"
       id="perspective12" />
    <inkscape:perspective
       sodipodi:type="inkscape:persp3d"
       inkscape:vp_x="0 : 290 : 1"
       inkscape:vp_y="0 : 1000 : 0"
       inkscape:vp_z="580 : 290 : 1"
       inkscape:persp3d-origin="290 : 193.33333 : 1"
       id="perspective12-1" />
    <inkscape:perspective
       sodipodi:type="inkscape:persp3d"
       inkscape:vp_x="0 : 290 : 1"
       inkscape:vp_y="0 : 1000 : 0"
       inkscape:vp_z="580 : 290 : 1"
       inkscape:persp3d-origin="290 : 193.33333 : 1"
       id="perspective3579" />
  </defs>
  <metadata
     id="metadata7">
    <rdf:RDF>
      <cc:Work
         rdf:about="">
        <dc:format>image/svg+xml</dc:format>
        <dc:type
           rdf:resource="http://purl.org/dc/dcmitype/StillImage" />
        <dc:title />
      </cc:Work>
    </rdf:RDF>
  </metadata>
  <g
     inkscape:label="Layer 1"
     inkscape:groupmode="layer"
     id="layer1"
     transform="translate(2.0566418,-1027.2128)">
    <path
       transform="translate(-2.0566418,1027.2128)"
       d="M 9.2714844 0 C 8.4833373 0.043 7.7100324 0.29741875 7.0117188 0.69921875 A 2.4383945 2.4383945 0 0 0 7.0097656 0.69921875 C 5.9145576 1.3307187 4.9818893 2.3879531 4.7109375 3.6894531 C 4.4522356 4.9349531 4.8095295 6.0092938 5.1835938 6.7460938 C 5.5571091 7.4819937 6.0013231 8.0234469 6.3710938 8.4355469 C 6.4670382 8.5425005 6.457893 8.5239122 6.5488281 8.6191406 C 5.9926933 8.5113661 5.3143069 8.4211598 4.5625 8.4589844 L 4.5585938 8.4589844 C 4.3286126 8.4719844 4.0995401 8.5149906 3.8808594 8.5878906 A 0.94706003 0.94706003 0 0 1 3.7539062 8.6210938 C 2.9759211 8.7626937 2.2432472 8.9885375 1.5097656 9.6484375 C 1.5601226 9.6034375 1.4868108 9.7424156 1.2246094 10.041016 A 0.94706003 0.94706003 0 0 1 1.1425781 10.125 C 0.89770013 10.3421 0.69382407 10.605084 0.54492188 10.896484 C 0.16865887 11.640384 0.0011091 12.470022 0 13.294922 C -0.000892 14.559722 0.48749853 16.014375 1.5039062 16.921875 C 2.5065732 17.817075 3.6524989 18.045997 4.5078125 18.091797 C 5.3698156 18.138797 6.0412989 18.023797 6.609375 17.904297 C 6.8855618 17.846297 7.1822608 17.774509 7.3710938 17.724609 C 7.4026593 17.716251 7.4040865 17.714083 7.4296875 17.707031 C 7.4174805 17.718313 7.4075039 17.730064 7.3945312 17.742188 C 7.3677255 17.758271 7.3006872 17.796875 7.3007812 17.796875 C 7.3008381 17.796775 7.1835588 17.896484 7.1835938 17.896484 C 7.1835951 17.896484 7.20732 17.920173 7.2089844 17.921875 C 6.7817738 18.349544 6.2513748 18.946915 5.8007812 19.828125 C 5.4314095 20.550825 5.0987063 21.578553 5.3476562 22.751953 C 5.3882973 22.943053 5.5035055 23.113228 5.5742188 23.298828 A 2.1665677 2.1665677 0 0 0 5.8847656 24.052734 C 6.2922634 24.675834 6.8648368 25.187466 7.5292969 25.572266 A 2.1665677 2.1665677 0 0 0 7.53125 25.572266 C 8.578237 26.177966 9.8739822 26.432022 11.048828 26.044922 A 2.1665677 2.1665677 0 0 0 11.050781 26.044922 C 12.178381 25.672722 12.885785 24.87975 13.316406 24.21875 C 13.74615 23.55955 13.98833 22.926062 14.15625 22.414062 C 14.324321 21.901562 14.448719 21.387956 14.423828 21.472656 C 14.48237 21.273749 14.521709 21.100603 14.576172 20.90625 C 14.604805 21.019032 14.621129 21.088678 14.650391 21.203125 C 14.685591 21.340125 14.928088 22.815822 15.804688 24.169922 C 16.245843 24.851122 16.970443 25.666369 18.128906 26.042969 C 18.568942 26.186269 19.052066 26.250116 19.521484 26.228516 A 2.2043921 2.2043921 0 0 0 19.541016 26.228516 C 20.295994 26.186516 21.030063 25.940641 21.697266 25.556641 A 2.2043921 2.2043921 0 0 0 21.699219 25.556641 C 22.754231 24.948441 23.630608 23.941403 23.884766 22.720703 C 24.129203 21.546203 23.793476 20.527659 23.433594 19.818359 L 23.431641 19.818359 C 23.073326 19.112359 22.642012 18.584341 22.28125 18.181641 C 22.044146 17.917019 21.957625 17.83962 21.833984 17.71875 C 22.422732 17.885502 23.405982 18.108646 24.542969 18.050781 A 2.5868611 2.5868611 0 0 0 24.544922 18.050781 C 25.407322 18.006781 26.572145 17.7661 27.5625 16.875 C 27.710125 16.742 27.802986 16.549378 27.933594 16.392578 A 2.5868611 2.5868611 0 0 0 28.519531 15.632812 C 28.8867 14.906913 29.057482 14.087113 29.058594 13.257812 C 29.05951 11.959012 28.592519 10.574656 27.568359 9.6601562 C 26.587272 8.7842562 25.44179 8.5494062 24.59375 8.5039062 A 2.5868611 2.5868611 0 0 0 24.458984 8.5039062 L 24.458984 8.5097656 A 2.5868611 2.5868611 0 0 0 23.839844 8.5839844 C 23.367434 8.6159844 22.852876 8.6279719 22.501953 8.7011719 C 22.232339 8.7577276 22.217097 8.7705396 22.029297 8.8203125 C 22.458223 8.4065974 23.049675 7.7766799 23.560547 6.7773438 C 23.938159 6.0384437 24.291112 4.9730938 24.03125 3.7460938 C 23.762296 2.4766938 22.848453 1.4378469 21.763672 0.81054688 C 21.092724 0.42264688 20.340385 0.16270625 19.541016 0.12890625 A 2.3305257 2.3305257 0 0 0 19.414062 0.12890625 L 19.414062 0.1171875 A 2.3305257 2.3305257 0 0 0 18.757812 0.22070312 C 18.545182 0.24870313 18.371457 0.2335 18.126953 0.3125 A 2.3305257 2.3305257 0 0 0 18.111328 0.32226562 C 16.936687 0.70996562 16.200864 1.5337969 15.755859 2.2167969 C 15.313193 2.8961969 15.070531 3.5434531 14.900391 4.0644531 C 14.730251 4.5855531 14.599642 5.1139125 14.630859 5.0078125 C 14.575611 5.1955645 14.537921 5.3592208 14.486328 5.5429688 C 14.453674 5.4144557 14.43577 5.3338522 14.402344 5.203125 C 14.373544 5.090425 14.132904 3.5729625 13.220703 2.1640625 C 12.761946 1.4556625 11.9986 0.59666563 10.773438 0.19726562 L 10.771484 0.19726562 C 10.578204 0.13426562 10.369836 0.15214062 10.167969 0.11914062 A 2.4383945 2.4383945 0 0 0 9.4277344 0 A 2.4383945 2.4383945 0 0 0 9.2714844 0 z "
       style="opacity:1;fill:#ffffff;fill-opacity:0.752941;stroke:none;stroke-width:3;stroke-linecap:square;stroke-linejoin:round;stroke-miterlimit:4;stroke-dasharray:none;stroke-opacity:1;paint-order:stroke fill markers"
       id="rect854-1" />
    <path
       d="m 10.925781,1039.3477 a 3.1852834,3.1852834 0 0 0 -0.316406,0.025 c 0.05196,-0 0.239242,-0.019 0.316406,-0.025 z"
       id="rect854-4"
       style="opacity:1;fill:#ffffff;fill-opacity:0.75294118;stroke:none;stroke-width:3;stroke-linecap:square;stroke-linejoin:round;stroke-miterlimit:4;stroke-dasharray:none;stroke-opacity:1;paint-order:stroke fill markers"
       inkscape:original="M 10.925781 1039.3477 A 3.1852834 3.1852834 0 0 0 10.609375 1039.373 C 10.661339 1039.3691 10.848617 1039.3536 10.925781 1039.3477 z "
       inkscape:radius="0"
       sodipodi:type="inkscape:offset" />
    <path
       inkscape:connector-curvature="0"
       id="rect857"
       transform="translate(-0.49536231,1028.6149)"
       d="m 3.1308594,9.6875 c -0.508534,0.026 -1.0255559,0.1570719 -1.421875,0.513672 -0.1487276,0.134 -0.2750619,0.297234 -0.375,0.490234 l -0.00391,-0.0059 c -0.1636768,0.3236 -0.2591142,0.728091 -0.2597656,1.212891 -5.36e-4,0.759999 0.2345869,1.315462 0.625,1.664062 0.3902402,0.3484 0.8973713,0.477306 1.3925781,0.503906 0.9905862,0.054 2.0316829,-0.290822 2.3066406,-0.357422 1.4202843,-0.3436 2.7133827,-0.733215 3.6503907,-1.041015 0.4683308,-0.154 0.8485127,-0.287566 1.1113278,-0.384766 0.131842,-0.048 0.232421,-0.08914 0.304688,-0.119141 0.0363,-0.02 0.06358,-0.02506 0.08984,-0.03906 0.0062,-0.02 0.02878,-0.0013 0.04883,-0.0293 0.0066,-0.02 0.02895,-0.01873 0.0625,-0.05273 0.01332,-0.024 0.05162,-0.04891 0.07422,-0.128907 0.01914,-0.082 -0.02209,-0.230568 -0.0918,-0.292968 -0.06235,-0.056 -0.06335,-0.04478 -0.07422,-0.05078 h -0.02148 c -0.01822,0 -0.0217,4.69e-4 -0.0332,-0.01953 -0.02298,0 -0.05283,-0.01934 -0.08789,-0.02734 -0.07186,-0.024 -0.171446,-0.05375 -0.300781,-0.09375 C 9.8693216,11.349656 9.5033513,11.23693 9.0527347,11.10153 8.151501,10.832163 6.917973,10.47095 5.5722656,10.09375 5.213887,9.99375 4.1481006,9.6357 3.1308594,9.6875 Z"
       style="opacity:1;fill:#734a08;fill-opacity:1;stroke:none;stroke-width:3;stroke-linecap:square;stroke-linejoin:round;stroke-miterlimit:4;stroke-dasharray:none;stroke-opacity:1;paint-order:stroke fill markers" />
    <path
       transform="translate(-0.49536231,1028.6149)"
       inkscape:connector-curvature="0"
       id="rect854"
       d="m 11.609375,13.857422 c -0.07967,0.026 -0.0714,0.03306 -0.08203,0.03906 -0.0089,0.02 -0.0078,0.01953 -0.0098,0.01953 -0.0091,0.02 -0.01209,0.01953 -0.03516,0.01953 -0.0115,0.02 -0.04195,0.0365 -0.06641,0.0625 -0.05671,0.05 -0.133113,0.123044 -0.232422,0.214844 -0.198098,0.184 -0.479698,0.445178 -0.822266,0.767578 -0.6839239,0.6458 -1.6118096,1.532965 -2.611328,2.509765 -0.2657918,0.2604 -1.1104582,1.003157 -1.5742188,1.910157 -0.2317501,0.4534 -0.3743368,0.966681 -0.2636718,1.488281 0.041684,0.196 0.1191547,0.387312 0.2363281,0.570312 l -0.00586,-0.002 c 0.198408,0.3034 0.4984454,0.587078 0.9179688,0.830078 0.6579114,0.3806 1.2587564,0.454816 1.7558593,0.291016 0.4968433,-0.164 0.8602196,-0.537525 1.1308594,-0.953125 0.542058,-0.8308 0.763948,-1.904381 0.84375,-2.175781 0.412576,-1.4018 0.721887,-2.716441 0.923828,-3.681641 0.100798,-0.4826 0.175427,-0.88005 0.222656,-1.15625 0.02435,-0.138 0.03868,-0.244665 0.04883,-0.322266 8.33e-4,-0.042 0.01076,-0.06766 0.01172,-0.09766 -0.01422,-0.02 0.01423,-0.02464 0,-0.05664 -0.01404,-0.02 -0.0029,-0.03603 -0.01563,-0.08203 -0.01412,-0.024 -0.01623,-0.06891 -0.07422,-0.128906 -0.06144,-0.058 -0.209932,-0.09441 -0.298828,-0.06641 z"
       style="opacity:1;fill:#734a08;fill-opacity:1;stroke:none;stroke-width:3;stroke-linecap:square;stroke-linejoin:round;stroke-miterlimit:4;stroke-dasharray:none;stroke-opacity:1;paint-order:stroke fill markers" />
    <path
       inkscape:connector-curvature="0"
       id="rect851"
       transform="translate(-0.49536231,1028.6149)"
       d="m 14.21875,13.882812 c -0.08058,0.024 -0.1898,0.13301 -0.208984,0.22461 -0.01732,0.082 -0.0061,0.07784 -0.0059,0.08984 0.0089,0.02 0.0097,0.02148 0.01172,0.02148 0.0091,0.02 0.0096,0.01911 -0.002,0.03711 0.0115,0.02 0.009,0.05584 0.01953,0.08984 0.01514,0.074 0.04028,0.176794 0.07031,0.308594 0.05953,0.2632 0.145857,0.63575 0.253906,1.09375 0.21731,0.9152 0.520998,2.163578 0.867187,3.517578 0.09259,0.3604 0.315661,1.463359 0.869141,2.318359 0.276784,0.4274 0.649266,0.80981 1.15625,0.97461 0.190412,0.062 0.392263,0.09008 0.609375,0.08008 v 0.0039 c 0.362085,-0.02 0.757559,-0.139059 1.177734,-0.380859 0.658447,-0.3796 1.022217,-0.8626 1.128907,-1.375 0.106602,-0.5122 -0.0352,-1.014832 -0.259766,-1.457031 -0.448528,-0.884801 -1.267735,-1.61356 -1.462891,-1.81836 -1.007708,-1.0582 -1.991495,-1.983025 -2.726562,-2.640625 -0.367533,-0.3286 -0.673087,-0.590531 -0.888672,-0.769531 -0.10749,-0.09 -0.191792,-0.157878 -0.253906,-0.205078 -0.03547,-0.022 -0.05483,-0.04259 -0.08008,-0.05859 -0.02042,0 -0.01456,-0.02334 -0.04883,-0.02734 -0.0206,0 -0.03189,-0.01934 -0.07812,-0.02734 -0.02744,4e-4 -0.06786,-0.0204 -0.148438,0 z"
       style="opacity:1;fill:#734a08;fill-opacity:1;stroke:none;stroke-width:3;stroke-linecap:square;stroke-linejoin:round;stroke-miterlimit:4;stroke-dasharray:none;stroke-opacity:1;paint-order:stroke fill markers" />
    <path
       inkscape:connector-curvature="0"
       id="rect848"
       transform="translate(-0.49536231,1028.6149)"
       d="m 22.894531,9.6992188 c -0.990586,-0.054 -2.031682,0.2908218 -2.30664,0.3574222 -1.420284,0.3436 -2.713383,0.733215 -3.650391,1.041015 -0.468331,0.154 -0.848512,0.289519 -1.111328,0.386719 -0.131842,0.048 -0.232422,0.08719 -0.304688,0.117187 -0.03631,0.02 -0.06554,0.02702 -0.0918,0.04102 -0.0062,0.02 -0.02683,-6.56e-4 -0.04688,0.02734 -0.0066,0.02 -0.0309,0.02069 -0.06445,0.05469 -0.01332,0.024 -0.05162,0.04695 -0.07422,0.126953 -0.01914,0.082 0.02209,0.230569 0.0918,0.292969 0.06235,0.056 0.0653,0.04478 0.07617,0.05078 h 0.02149 c 0.01822,0 0.01975,-4.68e-4 0.03125,0.01953 0.02298,0 0.05284,0.01934 0.08789,0.02734 0.07186,0.024 0.171447,0.0557 0.300782,0.0957 0.257632,0.08 0.625555,0.190772 1.076172,0.326171 0.901233,0.2694 2.134761,0.630613 3.480468,1.007813 0.358379,0.1 1.424166,0.45805 2.441406,0.40625 0.508535,-0.026 1.023604,-0.157072 1.419922,-0.513672 0.14872,-0.134 0.275062,-0.295281 0.375,-0.488281 l 0.0039,0.0039 c 0.16368,-0.3236 0.261068,-0.726137 0.261718,-1.210937 5.36e-4,-0.76 -0.236539,-1.317416 -0.626953,-1.666016 -0.39024,-0.3484 -0.895419,-0.4773063 -1.390625,-0.5039062 z"
       style="opacity:1;fill:#734a08;fill-opacity:1;stroke:none;stroke-width:3.24037051;stroke-linecap:square;stroke-linejoin:round;stroke-miterlimit:4;stroke-dasharray:none;stroke-opacity:1;paint-order:stroke fill markers" />
    <path
       inkscape:connector-curvature="0"
       id="rect845"
       transform="translate(-0.49536231,1028.6149)"
       d="m 17.882812,1.0410156 v 0.00586 c -0.213153,0 -0.415187,0.020078 -0.601562,0.080078 -0.496998,0.164 -0.862037,0.537525 -1.132812,0.953125 -0.541554,0.8312 -0.761911,1.9061344 -0.841797,2.1777344 -0.412427,1.4016 -0.721918,2.7164406 -0.923829,3.6816406 -0.100956,0.4828 -0.175532,0.8763438 -0.222656,1.1523438 -0.02356,0.138 -0.03853,0.2464187 -0.04883,0.3242187 -0.0052,0.038 -0.0096,0.067656 -0.01172,0.097656 -0.0011,0.02 -0.0035,0.028594 -0.002,0.058594 7.58e-4,0.02 -0.0012,0.030031 0.01563,0.082031 0.0084,0.026 0.01808,0.067 0.07813,0.125 0.06004,0.058 0.210321,0.096406 0.298828,0.066406 0.07963,-0.026 0.07254,-0.033062 0.08203,-0.039063 0.0095,0 0.01459,-0.019531 0.01953,-0.019531 0.0099,0 0.01624,-0.021438 0.02539,-0.023437 0.01832,-0.02 0.04032,-0.034547 0.06836,-0.060547 0.05608,-0.05 0.135299,-0.1220906 0.234375,-0.2128906 0.198152,-0.182 0.478348,-0.4445781 0.820312,-0.7675782 0.68393,-0.6458 1.6138,-1.5347187 2.613282,-2.5117187 0.266111,-0.26 1.1087,-1.0033563 1.572265,-1.9101563 C 20.157564,3.8471812 20.301876,3.3341 20.191406,2.8125 20.080936,2.2911 19.708864,1.8005094 19.037109,1.4121094 18.625771,1.1743094 18.23807,1.0560156 17.882812,1.0410156 Z"
       style="opacity:1;fill:#734a08;fill-opacity:1;stroke:none;stroke-width:3;stroke-linecap:square;stroke-linejoin:round;stroke-miterlimit:4;stroke-dasharray:none;stroke-opacity:1;paint-order:stroke fill markers" />
    <path
       inkscape:connector-curvature="0"
       transform="translate(-0.49536231,1028.6149)"
       id="rect842"
       d="M 8.1621094,1.1640625 C 7.8001148,1.1840625 7.4044878,1.3011687 6.984375,1.5429688 6.3258166,1.9225687 5.9601922,2.4055687 5.8535156,2.9179688 5.7468396,3.4301687 5.8887802,3.9328 6.1132812,4.375 6.5622815,5.2596 7.3829336,5.9885594 7.578125,6.1933594 c 1.0077122,1.0582 1.9915429,1.9849781 2.726563,2.6425781 0.367509,0.3286 0.673077,0.5905313 0.888671,0.7695313 0.107798,0.09 0.19182,0.1574781 0.253907,0.2050781 0.03104,0.024 0.05528,0.042594 0.08008,0.058594 0.0124,0 0.0226,0.019344 0.04883,0.027344 0.01312,0 0.02487,0.019344 0.07813,0.027344 0.02663,0 0.06665,0.02 0.146484,0 0.07983,-0.024 0.189754,-0.1330094 0.208985,-0.2246093 0.01732,-0.082 0.0069,-0.077844 0.0059,-0.089844 -9.73e-4,-0.02 -0.003,-0.021391 -0.0039,-0.025391 -0.0018,-0.02 -0.0037,-0.021203 -0.0059,-0.033203 -0.0044,-0.024 -0.0098,-0.053844 -0.01758,-0.089844 -0.01554,-0.074 -0.03867,-0.1763937 -0.06836,-0.3085937 C 11.860545,8.8891438 11.774676,8.5142407 11.666029,8.0566407 11.448735,7.1414407 11.143106,5.8950157 10.796888,4.5410157 10.704708,4.1804157 10.48328,3.0776564 9.9297005,2.2226563 9.6529111,1.7952563 9.2803005,1.413047 8.7734505,1.248047 8.5833825,1.186047 8.3793192,1.157969 8.1621224,1.167969 Z"
       style="opacity:1;fill:#734a08;fill-opacity:1;stroke:none;stroke-width:7.14524794;stroke-linecap:square;stroke-linejoin:round;stroke-miterlimit:4;stroke-dasharray:none;stroke-opacity:1;paint-order:stroke fill markers" />
    <g
       style="font-style:normal;font-weight:normal;font-size:40px;line-height:125%;font-family:Sans;letter-spacing:0px;word-spacing:0px;fill:#ffffff;fill-opacity:1;stroke:none"
       id="text3782" />
    <path
       style="fill:#000000"
       d=""
       id="path3000"
       inkscape:connector-curvature="0" />
    <path
       d="m 7.6660156,1029.7773 c -0.361994,0.02 -0.7576214,0.1372 -1.1777344,0.3789 -0.658559,0.3796 -1.0241823,0.8626 -1.1308593,1.375 -0.106676,0.5122 0.03527,1.0149 0.2597656,1.4571 0.449,0.8846 1.2696517,1.6135 1.4648437,1.8183 1.007712,1.0582 1.9915424,1.985 2.7265626,2.6426 0.3675082,0.3286 0.6730782,0.5906 0.8886722,0.7696 0.107798,0.09 0.191819,0.1574 0.253906,0.205 0.03104,0.024 0.05528,0.043 0.08008,0.059 0.0124,0 0.0226,0.019 0.04883,0.027 0.01312,0 0.02487,0.019 0.07813,0.027 0.02663,0 0.06665,0.02 0.146485,0 0.07983,-0.024 0.189753,-0.133 0.208984,-0.2246 0.01732,-0.082 0.0069,-0.078 0.0059,-0.09 -9.73e-4,-0.02 -0.003,-0.021 -0.0039,-0.025 -0.0018,-0.02 -0.0037,-0.021 -0.0059,-0.033 -0.0044,-0.024 -0.0098,-0.054 -0.01758,-0.09 -0.01554,-0.074 -0.03867,-0.1764 -0.06836,-0.3086 -0.05939,-0.2632 -0.145259,-0.6381 -0.253906,-1.0957 -0.217294,-0.9152 -0.522923,-2.1616 -0.869141,-3.5156 -0.09218,-0.3606 -0.3136077,-1.4634 -0.8671872,-2.3184 -0.2767895,-0.4274 -0.6494,-0.8096 -1.15625,-0.9746 -0.1900681,-0.062 -0.3941312,-0.09 -0.6113282,-0.08 z"
       id="rect842-3"
       style="opacity:1;fill:#734a08;fill-opacity:1;stroke:none;stroke-width:7.14524794;stroke-linecap:square;stroke-linejoin:round;stroke-miterlimit:4;stroke-dasharray:none;stroke-opacity:1;paint-order:stroke fill markers"
       inkscape:original="M 7.6660156 1029.7773 C 7.3040216 1029.7973 6.9083942 1029.9145 6.4882812 1030.1562 C 5.8297222 1030.5358 5.4640989 1031.0188 5.3574219 1031.5312 C 5.2507459 1032.0434 5.3926915 1032.5461 5.6171875 1032.9883 C 6.0661875 1033.8729 6.8868392 1034.6018 7.0820312 1034.8066 C 8.0897432 1035.8648 9.0735736 1036.7916 9.8085938 1037.4492 C 10.176102 1037.7778 10.481672 1038.0398 10.697266 1038.2188 C 10.805064 1038.3087 10.889085 1038.3762 10.951172 1038.4238 C 10.982212 1038.4478 11.00645 1038.4664 11.03125 1038.4824 C 11.04365 1038.4824 11.053848 1038.5018 11.080078 1038.5098 C 11.093198 1038.5098 11.104943 1038.5291 11.158203 1038.5371 C 11.184833 1038.5371 11.224854 1038.5571 11.304688 1038.5371 C 11.384517 1038.5131 11.494441 1038.4041 11.513672 1038.3125 C 11.530992 1038.2305 11.520531 1038.2347 11.519531 1038.2227 C 11.518558 1038.2027 11.516525 1038.2013 11.515625 1038.1973 C 11.513825 1038.1773 11.511966 1038.1761 11.509766 1038.1641 C 11.505366 1038.1401 11.499967 1038.1102 11.492188 1038.0742 C 11.476648 1038.0002 11.453518 1037.8978 11.423828 1037.7656 C 11.364438 1037.5024 11.278569 1037.1275 11.169922 1036.6699 C 10.952628 1035.7547 10.646999 1034.5083 10.300781 1033.1543 C 10.208601 1032.7937 9.9871733 1031.6909 9.4335938 1030.8359 C 9.1568043 1030.4085 8.7841938 1030.0263 8.2773438 1029.8613 C 8.0872757 1029.7993 7.8832126 1029.7712 7.6660156 1029.7812 L 7.6660156 1029.7773 z "
       inkscape:radius="0"
       sodipodi:type="inkscape:offset" />
  </g>
</svg>
