<?xml version="1.0" encoding="UTF-8" standalone="no"?>
<!-- Created with Inkscape (http://www.inkscape.org/) -->

<svg
   xmlns:dc="http://purl.org/dc/elements/1.1/"
   xmlns:cc="http://creativecommons.org/ns#"
   xmlns:rdf="http://www.w3.org/1999/02/22-rdf-syntax-ns#"
   xmlns:svg="http://www.w3.org/2000/svg"
   xmlns="http://www.w3.org/2000/svg"
   xmlns:xlink="http://www.w3.org/1999/xlink"
   xmlns:sodipodi="http://sodipodi.sourceforge.net/DTD/sodipodi-0.dtd"
   xmlns:inkscape="http://www.inkscape.org/namespaces/inkscape"
   width="29.058596"
   height="26.246767"
   id="svg2"
   version="1.1"
   inkscape:version="0.92.3 (2405546, 2018-03-11)"
   sodipodi:docname="viewpoint.svg">
  <sodipodi:namedview
     id="base"
     pagecolor="#ffffff"
     bordercolor="#666666"
     borderopacity="1.0"
     inkscape:pageopacity="0.0"
     inkscape:pageshadow="2"
     inkscape:zoom="22.627417"
     inkscape:cx="6.0784292"
     inkscape:cy="11.335464"
     inkscape:document-units="px"
     inkscape:current-layer="layer1"
     showgrid="true"
     inkscape:window-width="1869"
     inkscape:window-height="1145"
     inkscape:window-x="51"
     inkscape:window-y="27"
     inkscape:window-maximized="1"
     fit-margin-top="0"
     fit-margin-left="0"
     fit-margin-right="0"
     fit-margin-bottom="0"
     inkscape:snap-global="true">
    <inkscape:grid
       snapvisiblegridlinesonly="true"
       enabled="true"
       visible="true"
       empspacing="5"
       id="grid2994"
       type="xygrid"
       originx="2.0566413"
       originy="1.0974273"
       spacingx="1"
       spacingy="1" />
  </sodipodi:namedview>
  <defs
     id="defs4">
    <filter
       id="filter3028"
       x="0"
       y="0"
       width="1"
       height="1"
       inkscape:label="Lightness-Contrast"
       inkscape:menu="Color"
       inkscape:menu-tooltip="Increase or decrease lightness and contrast"
       style="color-interpolation-filters:sRGB">
      <feFlood
         id="feFlood3030"
         result="result1"
         flood-opacity="0"
         flood-color="rgb(128,128,128)" />
      <feBlend
         id="feBlend3032"
         in2="SourceGraphic"
         mode="normal"
         result="result2" />
      <feComposite
         id="feComposite3034"
         in2="SourceGraphic"
         k2="1"
         operator="arithmetic"
         result="result3"
         k1="0"
         k3="0"
         k4="0" />
      <feComposite
         id="feComposite3036"
         in2="SourceGraphic"
         operator="in" />
    </filter>
    <filter
       id="filter3055"
       inkscape:label="Lightness-Contrast"
       x="0"
       y="0"
       width="1"
       height="1"
       inkscape:menu="Color"
       inkscape:menu-tooltip="Increase or decrease lightness and contrast"
       style="color-interpolation-filters:sRGB">
      <feColorMatrix
         id="feColorMatrix3057"
         type="saturate"
         values="0"
         result="fbSourceGraphic" />
      <feColorMatrix
         result="fbSourceGraphicAlpha"
         in="fbSourceGraphic"
         values="0 0 0 -1 0 0 0 0 -1 0 0 0 0 -1 0 0 0 0 1 0"
         id="feColorMatrix3079" />
      <feFlood
         id="feFlood3081"
         result="result1"
         flood-opacity="0"
         flood-color="rgb(128,128,128)"
         in="fbSourceGraphic" />
      <feBlend
         id="feBlend3083"
         in2="fbSourceGraphic"
         mode="normal"
         result="result2" />
      <feComposite
         id="feComposite3085"
         in2="fbSourceGraphic"
         k2="1"
         operator="arithmetic"
         result="result3"
         k1="0"
         k3="0"
         k4="0" />
      <feComposite
         id="feComposite3087"
         in2="fbSourceGraphic"
         operator="in" />
    </filter>
    <inkscape:perspective
       id="perspective12"
       inkscape:persp3d-origin="290 : 193.33333 : 1"
       inkscape:vp_z="580 : 290 : 1"
       inkscape:vp_y="0 : 1000 : 0"
       inkscape:vp_x="0 : 290 : 1"
       sodipodi:type="inkscape:persp3d" />
    <inkscape:perspective
       id="perspective12-1"
       inkscape:persp3d-origin="290 : 193.33333 : 1"
       inkscape:vp_z="580 : 290 : 1"
       inkscape:vp_y="0 : 1000 : 0"
       inkscape:vp_x="0 : 290 : 1"
       sodipodi:type="inkscape:persp3d" />
    <inkscape:perspective
       id="perspective3579"
       inkscape:persp3d-origin="290 : 193.33333 : 1"
       inkscape:vp_z="580 : 290 : 1"
       inkscape:vp_y="0 : 1000 : 0"
       inkscape:vp_x="0 : 290 : 1"
       sodipodi:type="inkscape:persp3d" />
  </defs>
  <metadata
     id="metadata7">
    <rdf:RDF>
      <cc:Work
         rdf:about="">
        <dc:format>image/svg+xml</dc:format>
        <dc:type
           rdf:resource="http://purl.org/dc/dcmitype/StillImage" />
        <dc:title></dc:title>
      </cc:Work>
    </rdf:RDF>
  </metadata>
  <g
     transform="translate(2.0566418,-1027.2128)"
     id="layer1"
     inkscape:groupmode="layer"
     inkscape:label="Layer 1">
    <path
       sodipodi:type="inkscape:offset"
       inkscape:radius="2.1663511"
       inkscape:original="M 11.107422 1042.4941 C 11.027752 1042.5201 11.036021 1042.5272 11.025391 1042.5332 C 11.016491 1042.5532 11.017625 1042.5547 11.015625 1042.5547 C 11.006525 1042.5747 11.003539 1042.5742 10.980469 1042.5742 C 10.968969 1042.5942 10.938522 1042.6107 10.914062 1042.6367 C 10.857352 1042.6867 10.78095 1042.7598 10.681641 1042.8516 C 10.483543 1043.0356 10.201944 1043.2967 9.859375 1043.6191 C 9.1754503 1044.2649 8.2475653 1045.1521 7.2480469 1046.1289 C 6.9822551 1046.3893 6.1375887 1047.1321 5.6738281 1048.0391 C 5.442078 1048.4925 5.2994912 1049.0057 5.4101562 1049.5273 C 5.4518403 1049.7233 5.529311 1049.9147 5.6464844 1050.0977 L 5.640625 1050.0977 C 5.839033 1050.4011 6.1390703 1050.6847 6.5585938 1050.9277 C 7.2165051 1051.3083 7.8173502 1051.3826 8.3144531 1051.2188 C 8.8112964 1051.0548 9.1746727 1050.6812 9.4453125 1050.2656 C 9.9873719 1049.4348 10.209261 1048.3612 10.289062 1048.0898 C 10.701638 1046.688 11.01095 1045.3734 11.212891 1044.4082 C 11.313689 1043.9256 11.388318 1043.5282 11.435547 1043.252 C 11.459897 1043.114 11.474225 1043.0073 11.484375 1042.9297 C 11.485208 1042.8877 11.495134 1042.862 11.496094 1042.832 C 11.481874 1042.812 11.510324 1042.8054 11.496094 1042.7734 C 11.482054 1042.7534 11.493199 1042.7374 11.480469 1042.6914 C 11.466349 1042.6674 11.46424 1042.6224 11.40625 1042.5625 C 11.34481 1042.5045 11.196318 1042.47 11.107422 1042.498 L 11.107422 1042.4941 z "
       style="opacity:1;fill:#ffffff;fill-opacity:0.75294118;stroke:none;stroke-width:3;stroke-linecap:square;stroke-linejoin:round;stroke-miterlimit:4;stroke-dasharray:none;stroke-opacity:1;paint-order:stroke fill markers"
       id="rect854-1"
       d="m 11.042969,1040.3281 a 2.1665677,2.1665677 0 0 0 -0.607422,0.1074 c -0.10615,0.035 -0.25826,0.087 -0.498047,0.2286 0.013608,-0.01 0.00955,-0.01 0.023437,-0.018 a 2.1665677,2.1665677 0 0 0 -0.041016,0.025 c -0.014616,0.01 -0.013863,0 -0.029297,0.014 -0.012683,0.01 -0.019899,0.016 -0.033203,0.025 a 2.1665677,2.1665677 0 0 0 -0.2695313,0.2032 2.1665677,2.1665677 0 0 0 -0.00391,0 2.1665677,2.1665677 0 0 0 -0.056641,0.053 2.1665677,2.1665677 0 0 0 -0.00195,0 c -6.159e-4,5e-4 -0.00531,0 -0.00586,0 a 2.1665677,2.1665677 0 0 0 -0.083984,0.078 c -0.085534,0.077 -0.1539335,0.1417 -0.2246094,0.207 a 2.1665677,2.1665677 0 0 0 -0.00391,0 c -0.1967831,0.1828 -0.4830807,0.4489 -0.8320312,0.7773 a 2.1665677,2.1665677 0 0 0 -0.00391,0 c -0.6928848,0.6543 -1.6268431,1.5483 -2.6367188,2.5352 a 2.1665677,2.1665677 0 0 0 -0.00195,0 c -0.097984,0.096 -1.2573788,1.0413 -1.9882813,2.4707 -0.3693718,0.7227 -0.702075,1.7505 -0.453125,2.9239 a 2.1665677,2.1665677 0 0 0 0,0 c 0.041487,0.1951 0.1576698,0.3694 0.2304688,0.5586 a 2.1665677,2.1665677 0 0 0 0.3066406,0.7461 c 0.4074978,0.6231 0.9800711,1.1347 1.6445312,1.5195 a 2.1665677,2.1665677 0 0 0 0.00195,0 c 1.046987,0.6057 2.3427322,0.8598 3.5175781,0.4727 a 2.1665677,2.1665677 0 0 0 0.00195,0 c 1.1275994,-0.3722 1.8350044,-1.1652 2.2656254,-1.8262 v -0 c 0.429744,-0.6592 0.671923,-1.2927 0.839843,-1.8047 0.168071,-0.5125 0.29247,-1.0261 0.267579,-0.9414 0.433349,-1.4724 0.754795,-2.8364 0.966796,-3.8496 0.104709,-0.5014 0.181447,-0.914 0.234375,-1.2227 l 0.002,-0.01 c 0.03122,-0.1783 0.05168,-0.3274 0.0625,-0.4102 a 2.1665677,2.1665677 0 0 0 0.01172,-0.1484 c -0.05504,0.486 -0.183408,0.6601 -0.162109,0.6113 0.03017,-0.069 0.02134,-0.7284 -0.0059,-1.2617 0.05692,0.2407 0.192057,0.4377 0.167969,0.6504 a 2.1665677,2.1665677 0 0 0 0.0059,-0.09 c -0.0056,0.2816 -0.0032,0.3953 0.01172,-0.072 a 2.1665677,2.1665677 0 0 0 -0.0098,-0.2578 2.1665677,2.1665677 0 0 0 -0.04687,-0.3008 c -0.013,-0.098 -0.0082,-0.124 -0.03711,-0.2285 a 2.1665677,2.1665677 0 0 0 -0.220703,-0.5195 c 0.538213,0.9148 0.0321,-0.1066 -0.384765,-0.5372 a 2.1665677,2.1665677 0 0 0 -0.07031,-0.07 c -0.3128,-0.2953 -0.496709,-0.2954 -0.71289,-0.3711 a 2.1665677,2.1665677 0 0 0 -0.164063,-0.086 c -0.0819,-0.022 -0.200487,-0.1286 -0.28125,-0.1465 -0.03408,-0.01 -0.09654,0.013 -0.130859,0.01 a 2.1665677,2.1665677 0 0 0 -0.560547,-0.061 z m -0.333985,0.084 a 2.1665677,2.1665677 0 0 0 -0.0332,0.01 c 4.89e-4,-2e-4 0.01172,-0 0.01172,-0 -7e-6,0 0.01886,-0 0.02148,-0 z m -1.2851559,0.6563 a 2.1665677,2.1665677 0 0 0 -0.1386719,0.1582 c -0.037368,0.057 0.1214771,-0.1494 0.050781,-0.074 z" />
    <path
       sodipodi:type="inkscape:offset"
       inkscape:radius="-0.94696534"
       inkscape:original="M 2.453125 1034.7246 A 3.5775429 3.5775429 0 0 0 1.5273438 1034.9004 C 0.66543313 1035.0572 -0.283789 1035.3502 -1.1796875 1036.1562 A 3.5775429 3.5775429 0 0 0 -1.1816406 1036.1562 C -1.3297152 1036.2898 -1.4109386 1036.4768 -1.5429688 1036.627 A 3.5775429 3.5775429 0 0 0 -2.3574219 1037.6797 C -2.8102231 1038.5749 -3.0026266 1039.5523 -3.0039062 1040.5039 A 3.5775429 3.5775429 0 0 0 -3.0039062 1040.5059 C -3.0049634 1042.0049 -2.4500585 1043.709 -1.1835938 1044.8398 C 0.028186562 1045.9217 1.4177287 1046.1953 2.4003906 1046.248 C 3.3746247 1046.3006 4.1497887 1046.1685 4.7480469 1046.043 C 5.347293 1045.9173 5.9715174 1045.7389 5.7402344 1045.7949 C 7.2790352 1045.4227 8.6524618 1045.0087 9.6660156 1044.6758 C 10.164935 1044.5117 10.570323 1044.37 10.884766 1044.2539 L 10.894531 1044.25 C 11.087874 1044.1793 11.249014 1044.114 11.339844 1044.0762 A 3.5775429 3.5775429 0 0 0 11.474609 1044.0117 C 10.686416 1044.3504 10.430286 1044.2838 10.550781 1044.2676 C 10.762897 1044.2391 12.006051 1043.6926 12.716797 1042.9961 C 12.334812 1043.4391 11.88638 1043.8348 11.474609 1044.0117 A 3.5775429 3.5775429 0 0 0 11.691406 1043.9062 C 11.284886 1044.1303 11.116419 1044.2221 11.738281 1043.8906 A 3.5775429 3.5775429 0 0 0 12.560547 1043.2832 C 12.63155 1043.2232 12.648347 1043.2295 12.712891 1043.1641 A 3.5775429 3.5775429 0 0 0 13.292969 1042.3887 C 12.405948 1043.9869 13.424158 1042.4064 13.681641 1041.4961 A 3.5775429 3.5775429 0 0 0 13.724609 1041.3359 C 13.972058 1040.2758 13.804393 1039.8424 13.652344 1039.3379 C 13.517236 1038.8896 13.265231 1038.3783 12.660156 1037.7617 C 12.668036 1037.7704 12.687695 1037.7805 12.695312 1037.7891 A 3.5775429 3.5775429 0 0 0 12.640625 1037.7324 C 12.57605 1037.668 12.614636 1037.6362 12.539062 1037.5684 L 12.537109 1037.5664 C 12.490023 1037.524 12.315961 1037.4227 12.246094 1037.3633 A 3.5775429 3.5775429 0 0 0 11.880859 1037.1074 C 11.833293 1037.0794 11.845922 1037.0737 11.789062 1037.043 C 11.785495 1037.041 11.786811 1037.041 11.783203 1037.0391 C 11.767378 1037.0305 11.774405 1037.0302 11.757812 1037.0215 C 11.74177 1037.013 11.72626 1037.0104 11.708984 1037.002 A 3.5775429 3.5775429 0 0 0 11.341797 1036.8398 A 3.5775429 3.5775429 0 0 0 11.179688 1036.7793 A 3.5775429 3.5775429 0 0 0 11.115234 1036.7598 A 3.5775429 3.5775429 0 0 0 10.958984 1036.7109 L 11.064453 1036.7402 C 10.893661 1036.6832 10.801449 1036.657 10.691406 1036.623 L 10.6875 1036.6211 C 10.42323 1036.539 10.048003 1036.424 9.5859375 1036.2852 A 3.5775429 3.5775429 0 0 0 9.5820312 1036.2832 C 8.6632717 1036.0086 7.4111572 1035.6419 6.0410156 1035.2578 A 3.5775429 3.5775429 0 0 0 6.0371094 1035.2578 C 6.0391401 1035.2584 4.4331374 1034.6238 2.453125 1034.7246 z M 10.726562 1036.6445 L 10.917969 1036.6992 A 3.5775429 3.5775429 0 0 0 10.857422 1036.6855 C 10.785822 1036.6648 10.820896 1036.6661 10.726562 1036.6445 z M 12.900391 1038.043 C 12.994286 1038.1859 13.108363 1038.3575 13.134766 1038.4043 A 3.5775429 3.5775429 0 0 0 12.900391 1038.043 z "
       style="opacity:1;fill:#ffffff;fill-opacity:0.75294118;stroke:none;stroke-width:3;stroke-linecap:square;stroke-linejoin:round;stroke-miterlimit:4;stroke-dasharray:none;stroke-opacity:1;paint-order:stroke fill markers"
       id="rect857-4"
       d="m 6.3046875,1034.3496 c 0,0 -0.6186509,1.7885 -0.6171875,1.7891 -9.481e-4,-4e-4 -0.00138,-10e-4 -0.00391,-0 -0.00721,-0 -0.02032,-0.01 -0.039063,-0.014 -0.037485,-0.013 -0.096675,-0.035 -0.1757812,-0.061 -0.1582119,-0.051 -0.3939724,-0.1195 -0.6875,-0.1855 -0.5860573,-0.1319 -1.4008391,-0.2511 -2.2753906,-0.2071 h -0.00391 c -0.2299812,0.013 -0.4590536,0.056 -0.6777343,0.1289 a 0.94706003,0.94706003 0 0 1 -0.1269532,0.033 c -0.77798514,0.1416 -1.510659,0.3675 -2.2441406,1.0274 0.050357,-0.045 -0.0229548,0.094 -0.28515625,0.3926 a 0.94706003,0.94706003 0 0 1 -0.0820313,0.084 c -0.244878,0.2171 -0.4487541,0.4801 -0.5976563,0.7715 -0.3759716,0.7433 -0.5435565,1.5723 -0.5449218,2.3965 v 0 c -8.92e-4,1.2648 0.4874985,2.7194 1.50390622,3.6269 1.0026669,0.8952 2.14859268,1.1241 3.00390628,1.1699 0.8620031,0.047 1.5334864,-0.068 2.1015625,-0.1875 0.2761868,-0.058 0.5728858,-0.1298 0.7617187,-0.1797 0.094417,-0.025 0.1713475,-0.047 0.1757813,-0.049 0.00111,-3e-4 0.00357,-0 -0.035156,0.012 -0.00968,0 -0.022085,0.01 -0.046875,0.02 -0.012395,0.01 -0.050982,0.024 -0.050781,0.023 2.01e-4,-10e-5 -0.1133951,0.068 -0.1132813,0.068 5.69e-5,-10e-5 -0.1172224,0.098 -0.1171875,0.098 3.13e-5,0 0.4835369,0.4949 0.59375,0.6074 l -0.203125,-0.8398 c 1.5079849,-0.3647 2.8597784,-0.7732 3.8535157,-1.0996 0.2033179,-0.067 0.3213609,-0.1112 0.4921874,-0.1699 0.00517,-0.01 0.023392,-0.031 0.023438,-0.031 3.735e-4,-3e-4 0.1091968,-0.087 0.1503902,-0.1113 0.04119,-0.025 0.07454,-0.042 0.103516,-0.055 0.05795,-0.026 0.09875,-0.039 0.132813,-0.049 0.06813,-0.019 0.110652,-0.026 0.15039,-0.031 -0.221843,0.03 -0.03872,0.01 0.08789,-0.047 0.126609,-0.053 0.302738,-0.1343 0.490234,-0.2343 0.374991,-0.2 0.806056,-0.4849 1.052735,-0.7266 a 0.94706003,0.94706003 0 0 1 0.25,-0.1758 c 0.04297,-0.062 0.09723,-0.1146 0.134765,-0.1797 0.131979,-0.2724 0.281382,-0.5544 0.330078,-0.7265 a 0.94706003,0.94706003 0 0 1 0.0039,-0.01 c 0.01052,-0.036 0.02032,-0.073 0.0293,-0.1094 v -0 c 0.211843,-0.9088 0.107459,-0.9633 -0.05664,-1.5078 -0.09863,-0.3272 -0.247879,-0.6619 -0.761719,-1.1855 l 0.0039,-0 c -0.0058,-0.01 -0.0098,-0.014 -0.01563,-0.02 -0.04563,-0.045 -0.04388,-0.076 -0.08203,-0.1367 -0.01768,-0.014 0.01486,0.014 -0.0098,-0 -0.0598,-0.039 -0.119839,-0.071 -0.248047,-0.1797 l 0.02344,0.019 c -0.08549,-0.068 -0.176216,-0.1304 -0.269531,-0.1875 l 0.01367,0.01 c -0.02978,-0.017 -0.03827,-0.029 -0.07031,-0.053 -10e-4,-5e-4 -0.0029,-0 -0.0039,-0 -0.0046,-0 -0.0097,-0.01 -0.01563,-0.012 0.0094,0 -0.0075,-0 -0.002,-0 0.0046,0 -0.0039,-0 -0.002,0 0.01234,0.01 0.07688,0.041 -0.01172,-0 a 0.94706003,0.94706003 0 0 1 -0.01563,-0.01 c -0.08767,-0.045 -0.17935,-0.085 -0.271485,-0.1191 a 0.94706003,0.94706003 0 0 1 -0.01758,-0.01 c -0.03096,-0.013 -0.06234,-0.024 -0.09375,-0.035 l -0.02539,-0.01 c -0.0071,-0 -0.01436,-0 -0.02149,-0.01 a 0.94706003,0.94706003 0 0 1 -0.03711,-0.012 c -0.03684,-0.012 -0.07398,-0.024 -0.111328,-0.035 -0.0012,-3e-4 -0.0027,3e-4 -0.0039,0 a 0.94706003,0.94706003 0 0 1 -0.0059,-0 c -0.01161,-0 -0.02351,-0.01 -0.03516,-0.01 a 0.94706003,0.94706003 0 0 1 -0.0625,-0.016 c -0.03518,-0.01 -0.04376,-0.014 -0.07813,-0.027 l 0.002,-0.01 c -0.03136,-0.01 -0.06922,-0.022 -0.105469,-0.033 a 0.94706003,0.94706003 0 0 1 -0.0078,-0 c -0.26094,-0.081 -0.6312728,-0.1962 -1.0898439,-0.334 a 0.94706003,0.94706003 0 0 1 -0.029297,-0.01 l 0.025391,0.01 c -0.9142065,-0.2732 -2.1617017,-0.6392 -3.5253907,-1.0215 l 0.2519532,0.035 z m 2.8457031,2.7774 0.027344,0.01 a 0.94706003,0.94706003 0 0 1 -0.023437,-0.01 c -9.572e-4,-5e-4 -0.00295,4e-4 -0.00391,0 z m 4.0898434,5.0839 a 0.94706003,0.94706003 0 0 1 0.292969,0.3106 l 0.251953,0.1406 c -0.0019,-0.01 -0.0098,-0.029 -0.0098,-0.029 7e-5,10e-5 -0.296979,-0.336 -0.296875,-0.3359 5.3e-5,0 -0.118988,-0.043 -0.238282,-0.086 z m -7.4863278,3.6407 c -0.059295,0.1128 -0.4042678,0.7715 -0.4042968,0.7714 -3.16e-5,0 0.2559133,0.09 0.2558594,0.09 -5.4e-5,0 0.1250764,0.018 0.125,0.018 -1.529e-4,0 0.1154778,0 0.1152343,0 -9.738e-4,0 0.098471,-0.011 0.1113281,-0.014 0.00439,-8e-4 0.00322,-0 0.00586,-0 z" />
    <path
       sodipodi:type="inkscape:offset"
       inkscape:radius="2.4381506"
       inkscape:original="M 7.6660156 1029.7773 C 7.3040216 1029.7973 6.9083943 1029.9145 6.4882812 1030.1562 C 5.8297222 1030.5359 5.4640989 1031.0188 5.3574219 1031.5312 C 5.2507459 1032.0435 5.3926915 1032.5461 5.6171875 1032.9883 C 6.0661875 1033.8729 6.8868393 1034.6018 7.0820312 1034.8066 C 8.0897432 1035.8648 9.0735735 1036.7916 9.8085938 1037.4492 C 10.176102 1037.7778 10.481672 1038.0397 10.697266 1038.2188 C 10.805064 1038.3086 10.889085 1038.3762 10.951172 1038.4238 C 10.982212 1038.4478 11.00645 1038.4664 11.03125 1038.4824 C 11.04365 1038.4824 11.053848 1038.5018 11.080078 1038.5098 C 11.093198 1038.5098 11.104943 1038.5291 11.158203 1038.5371 C 11.184833 1038.5371 11.224854 1038.5571 11.304688 1038.5371 C 11.384517 1038.5131 11.494441 1038.4041 11.513672 1038.3125 C 11.530992 1038.2305 11.520531 1038.2347 11.519531 1038.2227 C 11.518558 1038.2027 11.516525 1038.2013 11.515625 1038.1973 C 11.513825 1038.1773 11.511966 1038.1761 11.509766 1038.1641 C 11.505366 1038.1401 11.499966 1038.1102 11.492188 1038.0742 C 11.476648 1038.0002 11.453518 1037.8978 11.423828 1037.7656 C 11.364438 1037.5024 11.278569 1037.1275 11.169922 1036.6699 C 10.952628 1035.7547 10.646999 1034.5083 10.300781 1033.1543 C 10.208601 1032.7937 9.9871733 1031.6909 9.4335938 1030.8359 C 9.1568042 1030.4085 8.7841938 1030.0263 8.2773438 1029.8613 C 8.0872756 1029.7993 7.8832126 1029.7713 7.6660156 1029.7812 L 7.6660156 1029.7773 z "
       xlink:href="#rect842-3"
       style="opacity:1;fill:#ffffff;fill-opacity:0.75294118;stroke:none;stroke-width:7.14524794;stroke-linecap:square;stroke-linejoin:round;stroke-miterlimit:4;stroke-dasharray:none;stroke-opacity:1;paint-order:stroke fill markers"
       id="path924"
       inkscape:href="#rect842-3"
       d="m 7.59375,1027.3398 a 2.4383945,2.4383945 0 0 0 -0.0625,0 c -0.7881471,0.043 -1.5614519,0.2974 -2.2597656,0.6992 a 2.4383945,2.4383945 0 0 0 -0.00195,0 c -1.095208,0.6315 -2.0278763,1.6888 -2.2988281,2.9903 -0.2587019,1.2455 0.098592,2.3198 0.4726563,3.0566 0.3735153,0.7359 0.8177293,1.2773 1.1875,1.6894 0.3697707,0.4122 0.7686422,0.7943 0.6855468,0.7071 1.0639572,1.1172 2.0895126,2.0816 2.8671876,2.7773 a 2.4383945,2.4383945 0 0 0 0,0 c 0.3882478,0.3471 0.7118469,0.6241 0.9550781,0.8262 0.120245,0.1001 0.2196345,0.1823 0.3203125,0.2597 6.16e-4,5e-4 0.00326,0 0.00391,0 0.00104,8e-4 0.00286,0 0.00391,0 0.012251,0.01 0.060031,0.042 0.082031,0.059 7.785e-4,1e-4 -0.014947,-0.015 -0.013672,-0.014 0.034114,0.027 0.3339153,0.1887 0.6093748,0.3203 0.01013,-0 -0.1614892,-0.043 -0.140625,-0.033 0.0032,0 0.01041,0 0.01367,0.01 0.0027,0 0.0089,0 0.01172,0 a 2.4383945,2.4383945 0 0 0 0.271484,0.1035 c 0.03579,0.013 0.0308,0.026 0.06836,0.037 a 2.4383945,2.4383945 0 0 0 0.324218,0.072 c 0.03802,0.01 0.06725,0.028 0.103516,0.033 a 2.4383945,2.4383945 0 0 0 0.361328,0.027 c -1.1941237,0 0.100457,0.088 0.738281,-0.072 a 2.4383945,2.4383945 0 0 0 0.109375,-0.031 c 0.719038,-0.2162 0.927347,-0.4642 1.1875,-0.7363 0.259396,-0.2714 0.543251,-0.5538 0.705079,-1.3184 0.02743,-0.1299 0.08357,-0.2768 0.06055,-0.7051 -4.89e-4,-0.01 -0.0051,-0.018 -0.0059,-0.027 -6.56e-4,-0.01 -0.0031,-0.016 -0.0039,-0.025 -0.01961,-0.2117 -0.08221,-0.4997 -0.113281,-0.5938 -0.0287,-0.087 0.05263,0.1883 0.0957,0.4707 -0.04652,-0.2496 -0.126892,-0.6724 -0.03711,-0.2734 -0.005,-0.027 -0.0068,-0.048 -0.01563,-0.09 l -0.0039,-0.014 c -0.02175,-0.1029 -0.04411,-0.2027 -0.07227,-0.3281 a 2.4383945,2.4383945 0 0 0 0,-0 c -0.06104,-0.2705 -0.148677,-0.6532 -0.259765,-1.1211 -0.221061,-0.931 -0.530992,-2.1883 -0.88086,-3.5566 -0.0288,-0.1127 -0.269439,-1.6302 -1.18164,-3.0391 a 2.4383945,2.4383945 0 0 0 0,-0 c -0.458757,-0.7084 -1.222103,-1.5674 -2.4472659,-1.9668 H 9.03125 c -0.1958205,-0.064 -0.4067395,-0.049 -0.6113281,-0.082 A 2.4383945,2.4383945 0 0 0 7.59375,1027.3398 Z m 6.300781,10.3223 0.04883,0.3164 c -0.01445,-0.1606 -0.07169,-0.4532 -0.03516,-0.2539 -0.0013,-0.01 -0.01015,-0.044 -0.01367,-0.062 z"
       transform="translate(-0.31640668,-0.1261237)" />
    <path
       sodipodi:type="inkscape:offset"
       inkscape:radius="2.3302927"
       inkscape:original="M 17.386719 1029.6602 L 17.386719 1029.6641 C 17.173566 1029.6641 16.971531 1029.6841 16.785156 1029.7441 C 16.288158 1029.9081 15.923119 1030.2817 15.652344 1030.6973 C 15.11079 1031.5285 14.890433 1032.6034 14.810547 1032.875 C 14.39812 1034.2766 14.08863 1035.5914 13.886719 1036.5566 C 13.785763 1037.0394 13.711186 1037.433 13.664062 1037.709 C 13.640503 1037.847 13.625534 1037.9554 13.615234 1038.0332 C 13.610034 1038.0712 13.605636 1038.1009 13.603516 1038.1309 C 13.602416 1038.1509 13.600063 1038.1614 13.601562 1038.1914 C 13.60232 1038.2114 13.600357 1038.2214 13.617188 1038.2734 C 13.625587 1038.2994 13.635263 1038.3404 13.695312 1038.3984 C 13.755353 1038.4564 13.905634 1038.4929 13.994141 1038.4629 C 14.073771 1038.4369 14.066682 1038.4298 14.076172 1038.4238 C 14.085672 1038.4238 14.090763 1038.4063 14.095703 1038.4062 C 14.105603 1038.4062 14.111944 1038.3848 14.121094 1038.3828 C 14.139414 1038.3628 14.161413 1038.3483 14.189453 1038.3223 C 14.245533 1038.2723 14.324752 1038.2002 14.423828 1038.1094 C 14.62198 1037.9274 14.902177 1037.6648 15.244141 1037.3418 C 15.928071 1036.696 16.85794 1035.8071 17.857422 1034.8301 C 18.123533 1034.5701 18.966122 1033.8267 19.429688 1032.9199 C 19.661514 1032.4663 19.805783 1031.9532 19.695312 1031.4316 C 19.584843 1030.9102 19.212771 1030.4197 18.541016 1030.0312 C 18.129678 1029.7934 17.741977 1029.6752 17.386719 1029.6602 z "
       style="opacity:1;fill:#ffffff;fill-opacity:0.75294118;stroke:none;stroke-width:3;stroke-linecap:square;stroke-linejoin:round;stroke-miterlimit:4;stroke-dasharray:none;stroke-opacity:1;paint-order:stroke fill markers"
       id="rect845-6"
       d="m 17.484375,1027.332 a 2.3305257,2.3305257 0 0 0 -0.769531,0.1 c -0.216471,0.028 -0.394731,0.013 -0.644532,0.094 a 2.3305257,2.3305257 0 0 0 -0.01562,0.01 c -1.174641,0.3877 -1.910464,1.2116 -2.355469,1.8946 -0.442666,0.6794 -0.685329,1.3266 -0.855469,1.8476 -0.17014,0.5211 -0.300748,1.0495 -0.269531,0.9434 -0.434714,1.4773 -0.755963,2.8461 -0.96875,3.8633 -0.105832,0.5061 -0.18437,0.9206 -0.238281,1.2363 -0.03007,0.1761 -0.05061,0.3203 -0.0625,0.4102 -0.004,0.028 -0.01533,0.098 -0.02539,0.2402 a 2.3305257,2.3305257 0 0 0 -0.002,0.035 c 0.0058,-0.1061 -0.0078,0.1081 -0.0039,0.2773 -1.7e-5,-4e-4 1.5e-5,0 0,0 -0.0057,-0.1565 0.06698,0.5237 0.126953,0.709 -0.05095,-0.1577 0.310996,0.7317 0.675781,1.084 0.553086,0.5343 0.886702,0.5813 1.246094,0.6621 0.245686,0.055 0.616099,-10e-4 0.970703,-0.045 l -0.123047,0.035 c 0.0093,-0 0.02944,-0 0.04297,-0.01 -0.01041,0 -0.07034,0.016 -0.07031,0.016 h -0.0059 l -0.06055,0.018 c 2.19e-4,0 0.124235,-0.027 0.177734,-0.039 0.106928,-0.014 0.16524,-0.021 0.275391,-0.035 0.08639,-0.021 0.104185,0.023 0.203125,-0.01 0.0508,-0.016 0.169066,-0.082 0.240234,-0.1094 0.009,-0 0.06828,-0.014 0.06836,-0.014 1.59e-4,-10e-5 0.06853,-0.045 0.08594,-0.055 0.0012,-7e-4 0.0046,-0 0.0059,-0 0.01259,-0.01 0.02678,-0.01 0.03711,-0.014 0.0045,-0 0.0053,-0 0.0098,-0.01 0.04656,-0.025 0.04839,-0.014 0.105468,-0.049 0.01158,-0.01 0.02103,-0.017 0.0332,-0.025 l -0.04297,0.012 a 2.3305257,2.3305257 0 0 0 0.132812,-0.084 c 0.01073,-0.01 0.01665,-0.013 0.02734,-0.022 -0.05034,0.032 -0.07607,0.047 -0.132813,0.08 0.005,-0 0.0068,-0.01 0.01172,-0.01 9.93e-4,-6e-4 9.58e-4,-0 0.002,-0 8.76e-4,-5e-4 0.0011,-0 0.002,-0 0.114401,-0.073 0.218976,-0.1428 0.291016,-0.207 -0.0018,0 -0.0041,0 -0.0059,0.01 -0.0075,0.01 -0.01163,0.011 -0.01953,0.018 -0.0029,0 -0.0048,0 -0.0078,0.01 -0.01949,0.016 -0.02495,0.026 -0.04687,0.043 0.0076,-0.01 0.01445,-0.01 0.02148,-0.014 2.43e-4,-3e-4 0.0017,-0 0.002,-0 a 2.3305257,2.3305257 0 0 0 0.002,0 c 0.0184,-0.014 0.04366,-0.026 0.05664,-0.037 0.0169,-0.015 0.0099,-0.013 0.02539,-0.027 a 2.3305257,2.3305257 0 0 0 0.05469,-0.051 c 0.0047,-0 0.01697,-0.011 0.02149,-0.016 0.02214,-0.021 0.01033,-0.014 0.0293,-0.033 a 2.3305257,2.3305257 0 0 0 0.09766,-0.096 c -0.230371,0.2515 -0.223298,0.2197 -0.06641,0.074 0.06583,-0.059 0.135757,-0.1216 0.224609,-0.2031 a 2.3305257,2.3305257 0 0 0 0.002,-0 c 0.214572,-0.1971 0.498193,-0.4647 0.84375,-0.791 0.693423,-0.6548 1.631698,-1.551 2.642578,-2.5391 0.09555,-0.093 1.26804,-1.0494 2.017578,-2.5156 0.377612,-0.7389 0.730565,-1.8043 0.470703,-3.0313 -0.268954,-1.2694 -1.182797,-2.3082 -2.267578,-2.9355 -0.670948,-0.3879 -1.423287,-0.6479 -2.222656,-0.6817 z m -2.048828,12.9688 c -0.0099,0.01 -0.0071,0.01 -0.01758,0.016 a 2.3305257,2.3305257 0 0 0 0.06445,-0.043 c -0.0114,0.01 -0.0261,0.014 -0.04102,0.024 -0.0022,0 -0.0037,0 -0.0059,0 z m 0.574219,-0.5586 c 0.01019,-0.014 -0.05496,0.068 -0.0957,0.1211 -0.02496,0.032 -0.0031,0.012 -0.05859,0.074 -0.01306,0.015 -0.05095,0.042 -0.06641,0.059 0.03252,-0.036 0.04608,-0.051 0.06641,-0.076 -0.02903,0.03 -0.04755,0.048 -0.08789,0.088 0.08282,-0.094 0.204125,-0.2191 0.228516,-0.2539 0.01171,-0.017 -0.02685,0.035 -0.02344,0.031 0.0035,-0.01 0.03505,-0.04 0.03711,-0.043 z m -0.958985,0.7851 c -0.0044,0 -0.03518,0.02 -0.03516,0.02 7e-6,0 -0.01869,0 -0.01953,0 0.01673,-0.01 0.03615,-0.015 0.05469,-0.024 z" />
    <path
       sodipodi:type="inkscape:offset"
       inkscape:radius="0"
       inkscape:original="M 10.925781 1039.3477 A 3.1852834 3.1852834 0 0 0 10.609375 1039.373 C 10.661339 1039.3691 10.848617 1039.3536 10.925781 1039.3477 z "
       style="opacity:1;fill:#ffffff;fill-opacity:0.75294118;stroke:none;stroke-width:3;stroke-linecap:square;stroke-linejoin:round;stroke-miterlimit:4;stroke-dasharray:none;stroke-opacity:1;paint-order:stroke fill markers"
       id="rect854-4"
       d="m 10.925781,1039.3477 a 3.1852834,3.1852834 0 0 0 -0.316406,0.025 c 0.05196,-0 0.239242,-0.019 0.316406,-0.025 z" />
    <path
       sodipodi:type="inkscape:offset"
       inkscape:radius="2.2041717"
       inkscape:original="M 13.722656 1042.4922 L 13.722656 1042.4961 C 13.642076 1042.5201 13.532856 1042.6291 13.513672 1042.7207 C 13.496352 1042.8027 13.507613 1042.7985 13.507812 1042.8105 C 13.516713 1042.8305 13.517511 1042.832 13.519531 1042.832 C 13.528631 1042.852 13.529178 1042.8511 13.517578 1042.8691 C 13.529078 1042.8891 13.526579 1042.925 13.537109 1042.959 C 13.552249 1043.033 13.577392 1043.1358 13.607422 1043.2676 C 13.666952 1043.5308 13.753279 1043.9033 13.861328 1044.3613 C 14.078638 1045.2765 14.382327 1046.5249 14.728516 1047.8789 C 14.821106 1048.2393 15.044176 1049.3423 15.597656 1050.1973 C 15.87444 1050.6247 16.246922 1051.0071 16.753906 1051.1719 C 16.944318 1051.2339 17.146169 1051.262 17.363281 1051.252 C 17.725366 1051.232 18.120841 1051.1129 18.541016 1050.8711 C 19.199463 1050.4915 19.563232 1050.0085 19.669922 1049.4961 C 19.776524 1048.9839 19.634722 1048.4813 19.410156 1048.0391 C 18.961628 1047.1543 18.142422 1046.4255 17.947266 1046.2207 C 16.939558 1045.1625 15.95577 1044.2377 15.220703 1043.5801 C 14.85317 1043.2515 14.547616 1042.9895 14.332031 1042.8105 C 14.224541 1042.7205 14.140239 1042.6527 14.078125 1042.6055 C 14.042655 1042.5835 14.023297 1042.5629 13.998047 1042.5469 C 13.977627 1042.5469 13.983489 1042.5235 13.949219 1042.5195 C 13.928619 1042.5195 13.917324 1042.5002 13.871094 1042.4922 C 13.843654 1042.4926 13.803234 1042.4722 13.722656 1042.4922 z "
       style="opacity:1;fill:#ffffff;fill-opacity:0.75294118;stroke:none;stroke-width:3;stroke-linecap:square;stroke-linejoin:round;stroke-miterlimit:4;stroke-dasharray:none;stroke-opacity:1;paint-order:stroke fill markers"
       id="rect851-4"
       d="m 13.839844,1040.2891 c 1.096201,-0.016 -0.06048,-0.082 -0.648438,0.064 a 2.2043921,2.2043921 0 0 0 -0.09766,0.029 2.2043921,2.2043921 0 0 0 -0.988281,0.6133 c -0.02292,0.024 -0.08223,0.042 -0.105469,0.066 -0.04539,0.048 -0.07531,0.1775 -0.121094,0.2285 a 2.2043921,2.2043921 0 0 0 -0.185547,0.3457 c -0.0144,0.023 -0.027,0.052 -0.04101,0.076 5.07e-4,-3e-4 0.01193,-0.037 0.01172,-0.037 a 2.2043921,2.2043921 0 0 0 -0.195312,0.3808 2.2043921,2.2043921 0 0 0 -0.0039,0.01 c -0.02975,0.093 -0.08321,0.085 -0.107422,0.1992 -0.01464,0.069 -0.01664,0.2428 -0.0293,0.3594 a 2.2043921,2.2043921 0 0 0 -0.01172,0.1465 c -8.66e-4,0.045 -0.0098,0.049 -0.0078,0.1035 -6.48e-4,-0.015 -0.0037,-0.012 -0.0039,-0.027 a 2.2043921,2.2043921 0 0 0 0.002,0.047 c 8.83e-4,0.019 -0.0032,0.015 -0.002,0.035 9.28e-4,0.015 0.0063,0.025 0.0078,0.041 a 2.2043921,2.2043921 0 0 0 0.01953,0.1738 2.2043921,2.2043921 0 0 0 0.0098,0.061 2.2043921,2.2043921 0 0 0 0.01563,0.088 2.2043921,2.2043921 0 0 0 0.04492,0.1836 c 0.01331,0.062 0.0012,0.044 0.0293,0.1347 l -0.05469,-0.2109 c 0.03084,0.1507 0.05605,0.2434 0.08203,0.3574 0.06192,0.2737 0.149087,0.6485 0.257813,1.1094 a 2.2043921,2.2043921 0 0 0 0,0 c 0.21986,0.9259 0.526853,2.1854 0.876953,3.5547 a 2.2043921,2.2043921 0 0 0 0,0 c 0.0352,0.137 0.277697,1.6127 1.154297,2.9668 0.441156,0.6812 1.165756,1.4965 2.324219,1.8731 0.440036,0.1433 0.92316,0.2071 1.392578,0.1855 a 2.2043921,2.2043921 0 0 0 0.01953,0 c 0.754978,-0.042 1.489047,-0.2879 2.15625,-0.6719 a 2.2043921,2.2043921 0 0 0 0.002,0 c 1.055012,-0.6082 1.931389,-1.6152 2.185547,-2.8359 0.244437,-1.1745 -0.09129,-2.193 -0.451172,-2.9023 l -0.002,-0 c -0.358315,-0.706 -0.789629,-1.234 -1.150391,-1.6367 -0.360735,-0.4026 -0.744464,-0.7692 -0.68164,-0.7031 -1.059493,-1.1126 -2.081464,-2.073 -2.853516,-2.7637 -0.383522,-0.3429 -0.702544,-0.6163 -0.943359,-0.8164 l -0.0059,-0.01 c -0.121493,-0.1016 -0.223402,-0.186 -0.328125,-0.2656 a 2.2043921,2.2043921 0 0 0 -0.171875,-0.1172 c 0.183015,0.1135 0.255044,0.1544 -0.0625,-0.047 a 2.2043921,2.2043921 0 0 0 -0.240234,-0.1308 c -1.84e-4,-10e-5 -0.0018,10e-5 -0.002,0 a 2.2043921,2.2043921 0 0 0 -0.457031,-0.1563 c -0.095,-0.031 -0.13608,-0.061 -0.232422,-0.078 a 2.2043921,2.2043921 0 0 0 -0.40625,-0.031 z m 0.808594,0.2773 c 0.258597,0.088 0.542063,0.1174 0.705078,0.2461 0.313213,0.2473 0.36827,0.3694 0.308593,0.2988 -0.08308,-0.098 -0.589654,-0.3447 -1.013671,-0.5449 z" />
    <path
       sodipodi:type="inkscape:offset"
       inkscape:radius="2.5866024"
       inkscape:original="M 22.398438 1038.3086 L 22.398438 1038.3125 C 21.407851 1038.2585 20.366755 1038.6033 20.091797 1038.6699 C 18.671513 1039.0135 17.378414 1039.4031 16.441406 1039.7109 C 15.973075 1039.8649 15.592894 1040.0005 15.330078 1040.0977 C 15.198236 1040.1457 15.097657 1040.1847 15.025391 1040.2148 C 14.989081 1040.2348 14.959854 1040.2419 14.933594 1040.2559 C 14.927394 1040.2759 14.906769 1040.2555 14.886719 1040.2832 C 14.880119 1040.3032 14.855816 1040.3039 14.822266 1040.3379 C 14.808946 1040.3619 14.770647 1040.3849 14.748047 1040.4648 C 14.728907 1040.5468 14.770134 1040.6954 14.839844 1040.7578 C 14.902194 1040.8138 14.905146 1040.8026 14.916016 1040.8086 L 14.9375 1040.8086 C 14.95572 1040.8086 14.95725 1040.8076 14.96875 1040.8281 C 14.99173 1040.8281 15.021591 1040.8475 15.056641 1040.8555 C 15.128501 1040.8795 15.228087 1040.9112 15.357422 1040.9512 C 15.615054 1041.0312 15.982977 1041.1419 16.433594 1041.2773 C 17.334827 1041.5467 18.568355 1041.908 19.914062 1042.2852 C 20.272441 1042.3852 21.338229 1042.7432 22.355469 1042.6914 C 22.864004 1042.6654 23.379073 1042.5343 23.775391 1042.1777 C 23.924111 1042.0437 24.050453 1041.8825 24.150391 1041.6895 L 24.154297 1041.6895 C 24.317977 1041.3659 24.415366 1040.9633 24.416016 1040.4785 C 24.416552 1039.7185 24.179477 1039.1611 23.789062 1038.8125 C 23.398823 1038.4641 22.893643 1038.3352 22.398438 1038.3086 z "
       style="opacity:1;fill:#ffffff;fill-opacity:0.75294118;stroke:none;stroke-width:3.24037051;stroke-linecap:square;stroke-linejoin:round;stroke-miterlimit:4;stroke-dasharray:none;stroke-opacity:1;paint-order:stroke fill markers"
       id="rect848-7"
       d="m 22.279297,1035.7246 a 2.5868611,2.5868611 0 0 0 -0.488281,0.072 c -0.475842,0.031 -0.992748,0.043 -1.345704,0.1172 -0.549185,0.1152 -1.092059,0.2734 -0.96289,0.2421 -1.505017,0.3642 -2.855607,0.7718 -3.847656,1.0977 a 2.5868611,2.5868611 0 0 0 -0.002,0 c -0.501745,0.165 -0.909301,0.3108 -1.199218,0.418 -0.151824,0.055 -0.2793,0.103 -0.402344,0.1543 a 2.5868611,2.5868611 0 0 0 -0.253906,0.123 c 0.250882,-0.1382 0.348422,-0.1946 -0.06055,0.024 a 2.5868611,2.5868611 0 0 0 -0.570313,0.416 c -0.07664,0.061 -0.09167,0.057 -0.166015,0.1328 a 2.5868611,2.5868611 0 0 0 -0.419922,0.5605 c 0.667316,-1.2023 -0.105259,-0.012 -0.300781,0.6797 a 2.5868611,2.5868611 0 0 0 -0.03125,0.1153 c -0.181629,0.7781 -0.05978,1.1082 0.05469,1.4882 0.06999,0.2324 0.328658,0.532 0.509766,0.8067 -0.0036,-0.01 -0.07788,-0.074 -0.08008,-0.078 a 2.5868611,2.5868611 0 0 0 0.289062,0.4121 c 0.06374,0.067 0.0294,0.1039 0.109375,0.1757 3.91e-4,4e-4 0.0016,0 0.002,0 0.001,9e-4 9.07e-4,10e-4 0.002,0 0.04422,0.04 0.185405,0.12 0.251954,0.1739 a 2.5868611,2.5868611 0 0 0 0.259765,0.1777 c 0.03176,0.018 0.02965,0.025 0.06641,0.045 -0.01444,-0.01 -0.01296,-0 -0.02734,-0.01 a 2.5868611,2.5868611 0 0 0 0.04297,0.022 c 0.018,0.01 0.01201,0.012 0.03125,0.021 0.01621,0.01 0.02933,0.01 0.04687,0.018 a 2.5868611,2.5868611 0 0 0 0.212891,0.092 2.5868611,2.5868611 0 0 0 0.140625,0.051 2.5868611,2.5868611 0 0 0 0.154297,0.049 l -0.05859,-0.016 c 0.102773,0.034 0.215638,0.071 0.353516,0.1133 0.278314,0.086 0.648496,0.1965 1.099609,0.332 a 2.5868611,2.5868611 0 0 0 0.0039,0 c 0.913738,0.2731 2.159949,0.6373 3.523438,1.0195 a 2.5868611,2.5868611 0 0 0 0.002,0 c 0.09777,0.027 1.554173,0.5853 3.267578,0.4981 a 2.5868611,2.5868611 0 0 0 0.002,0 c 0.8624,-0.044 2.027223,-0.2847 3.017578,-1.1758 0.150658,-0.1357 0.246029,-0.3317 0.378907,-0.4922 a 2.5868611,2.5868611 0 0 0 0.578125,-0.75 c 0.367169,-0.7259 0.53795,-1.5457 0.539062,-2.375 a 2.5868611,2.5868611 0 0 0 0,-0 c 9.16e-4,-1.2988 -0.466074,-2.6832 -1.490234,-3.5977 -0.981087,-0.8759 -2.12657,-1.1107 -2.97461,-1.1562 a 2.5868611,2.5868611 0 0 0 -0.257812,-0 z m -7.626953,1.9688 c -0.105733,0.011 -0.685387,0.3922 -1.181641,0.6816 0.181958,-0.1609 0.253787,-0.4089 0.439453,-0.4883 0.610506,-0.2609 0.825435,-0.2019 0.742188,-0.1933 z m -0.341797,5.6367 a 2.5868611,2.5868611 0 0 0 0.06055,0.012 c 0.05709,0.017 0.0314,0.017 0.109375,0.035 z" />
    <path
       style="opacity:1;fill:#734a08;fill-opacity:1;stroke:none;stroke-width:3;stroke-linecap:square;stroke-linejoin:round;stroke-miterlimit:4;stroke-dasharray:none;stroke-opacity:1;paint-order:stroke fill markers"
       d="m 3.1308594,9.6875 c -0.508534,0.026 -1.0255559,0.1570719 -1.421875,0.513672 -0.1487276,0.134 -0.2750619,0.297234 -0.375,0.490234 l -0.00391,-0.0059 c -0.1636768,0.3236 -0.2591142,0.728091 -0.2597656,1.212891 -5.36e-4,0.759999 0.2345869,1.315462 0.625,1.664062 0.3902402,0.3484 0.8973713,0.477306 1.3925781,0.503906 0.9905862,0.054 2.0316829,-0.290822 2.3066406,-0.357422 1.4202843,-0.3436 2.7133827,-0.733215 3.6503907,-1.041015 0.4683308,-0.154 0.8485127,-0.287566 1.1113278,-0.384766 0.131842,-0.048 0.232421,-0.08914 0.304688,-0.119141 0.0363,-0.02 0.06358,-0.02506 0.08984,-0.03906 0.0062,-0.02 0.02878,-0.0013 0.04883,-0.0293 0.0066,-0.02 0.02895,-0.01873 0.0625,-0.05273 0.01332,-0.024 0.05162,-0.04891 0.07422,-0.128907 0.01914,-0.082 -0.02209,-0.230568 -0.0918,-0.292968 -0.06235,-0.056 -0.06335,-0.04478 -0.07422,-0.05078 h -0.02148 c -0.01822,0 -0.0217,4.69e-4 -0.0332,-0.01953 -0.02298,0 -0.05283,-0.01934 -0.08789,-0.02734 -0.07186,-0.024 -0.171446,-0.05375 -0.300781,-0.09375 C 9.8693216,11.349656 9.5033513,11.23693 9.0527347,11.10153 8.151501,10.832163 6.917973,10.47095 5.5722656,10.09375 5.213887,9.99375 4.1481006,9.6357 3.1308594,9.6875 Z"
       transform="translate(-0.49536231,1028.6149)"
       id="rect857"
       inkscape:connector-curvature="0" />
    <path
       style="opacity:1;fill:#734a08;fill-opacity:1;stroke:none;stroke-width:3;stroke-linecap:square;stroke-linejoin:round;stroke-miterlimit:4;stroke-dasharray:none;stroke-opacity:1;paint-order:stroke fill markers"
       d="m 11.609375,13.857422 c -0.07967,0.026 -0.0714,0.03306 -0.08203,0.03906 -0.0089,0.02 -0.0078,0.01953 -0.0098,0.01953 -0.0091,0.02 -0.01209,0.01953 -0.03516,0.01953 -0.0115,0.02 -0.04195,0.0365 -0.06641,0.0625 -0.05671,0.05 -0.133113,0.123044 -0.232422,0.214844 -0.198098,0.184 -0.479698,0.445178 -0.822266,0.767578 -0.6839239,0.6458 -1.6118096,1.532965 -2.611328,2.509765 -0.2657918,0.2604 -1.1104582,1.003157 -1.5742188,1.910157 -0.2317501,0.4534 -0.3743368,0.966681 -0.2636718,1.488281 0.041684,0.196 0.1191547,0.387312 0.2363281,0.570312 l -0.00586,-0.002 c 0.198408,0.3034 0.4984454,0.587078 0.9179688,0.830078 0.6579114,0.3806 1.2587564,0.454816 1.7558593,0.291016 0.4968433,-0.164 0.8602196,-0.537525 1.1308594,-0.953125 0.542058,-0.8308 0.763948,-1.904381 0.84375,-2.175781 0.412576,-1.4018 0.721887,-2.716441 0.923828,-3.681641 0.100798,-0.4826 0.175427,-0.88005 0.222656,-1.15625 0.02435,-0.138 0.03868,-0.244665 0.04883,-0.322266 8.33e-4,-0.042 0.01076,-0.06766 0.01172,-0.09766 -0.01422,-0.02 0.01423,-0.02464 0,-0.05664 -0.01404,-0.02 -0.0029,-0.03603 -0.01563,-0.08203 -0.01412,-0.024 -0.01623,-0.06891 -0.07422,-0.128906 -0.06144,-0.058 -0.209932,-0.09441 -0.298828,-0.06641 z"
       id="rect854"
       inkscape:connector-curvature="0"
       transform="translate(-0.49536231,1028.6149)" />
    <path
       style="opacity:1;fill:#734a08;fill-opacity:1;stroke:none;stroke-width:3;stroke-linecap:square;stroke-linejoin:round;stroke-miterlimit:4;stroke-dasharray:none;stroke-opacity:1;paint-order:stroke fill markers"
       d="m 14.21875,13.882812 c -0.08058,0.024 -0.1898,0.13301 -0.208984,0.22461 -0.01732,0.082 -0.0061,0.07784 -0.0059,0.08984 0.0089,0.02 0.0097,0.02148 0.01172,0.02148 0.0091,0.02 0.0096,0.01911 -0.002,0.03711 0.0115,0.02 0.009,0.05584 0.01953,0.08984 0.01514,0.074 0.04028,0.176794 0.07031,0.308594 0.05953,0.2632 0.145857,0.63575 0.253906,1.09375 0.21731,0.9152 0.520998,2.163578 0.867187,3.517578 0.09259,0.3604 0.315661,1.463359 0.869141,2.318359 0.276784,0.4274 0.649266,0.80981 1.15625,0.97461 0.190412,0.062 0.392263,0.09008 0.609375,0.08008 v 0.0039 c 0.362085,-0.02 0.757559,-0.139059 1.177734,-0.380859 0.658447,-0.3796 1.022217,-0.8626 1.128907,-1.375 0.106602,-0.5122 -0.0352,-1.014832 -0.259766,-1.457031 -0.448528,-0.884801 -1.267735,-1.61356 -1.462891,-1.81836 -1.007708,-1.0582 -1.991495,-1.983025 -2.726562,-2.640625 -0.367533,-0.3286 -0.673087,-0.590531 -0.888672,-0.769531 -0.10749,-0.09 -0.191792,-0.157878 -0.253906,-0.205078 -0.03547,-0.022 -0.05483,-0.04259 -0.08008,-0.05859 -0.02042,0 -0.01456,-0.02334 -0.04883,-0.02734 -0.0206,0 -0.03189,-0.01934 -0.07812,-0.02734 -0.02744,4e-4 -0.06786,-0.0204 -0.148438,0 z"
       transform="translate(-0.49536231,1028.6149)"
       id="rect851"
       inkscape:connector-curvature="0" />
    <path
       style="opacity:1;fill:#734a08;fill-opacity:1;stroke:none;stroke-width:3.24037051;stroke-linecap:square;stroke-linejoin:round;stroke-miterlimit:4;stroke-dasharray:none;stroke-opacity:1;paint-order:stroke fill markers"
       d="m 22.894531,9.6992188 c -0.990586,-0.054 -2.031682,0.2908218 -2.30664,0.3574222 -1.420284,0.3436 -2.713383,0.733215 -3.650391,1.041015 -0.468331,0.154 -0.848512,0.289519 -1.111328,0.386719 -0.131842,0.048 -0.232422,0.08719 -0.304688,0.117187 -0.03631,0.02 -0.06554,0.02702 -0.0918,0.04102 -0.0062,0.02 -0.02683,-6.56e-4 -0.04688,0.02734 -0.0066,0.02 -0.0309,0.02069 -0.06445,0.05469 -0.01332,0.024 -0.05162,0.04695 -0.07422,0.126953 -0.01914,0.082 0.02209,0.230569 0.0918,0.292969 0.06235,0.056 0.0653,0.04478 0.07617,0.05078 h 0.02149 c 0.01822,0 0.01975,-4.68e-4 0.03125,0.01953 0.02298,0 0.05284,0.01934 0.08789,0.02734 0.07186,0.024 0.171447,0.0557 0.300782,0.0957 0.257632,0.08 0.625555,0.190772 1.076172,0.326171 0.901233,0.2694 2.134761,0.630613 3.480468,1.007813 0.358379,0.1 1.424166,0.45805 2.441406,0.40625 0.508535,-0.026 1.023604,-0.157072 1.419922,-0.513672 0.14872,-0.134 0.275062,-0.295281 0.375,-0.488281 l 0.0039,0.0039 c 0.16368,-0.3236 0.261068,-0.726137 0.261718,-1.210937 5.36e-4,-0.76 -0.236539,-1.317416 -0.626953,-1.666016 -0.39024,-0.3484 -0.895419,-0.4773063 -1.390625,-0.5039062 z"
       transform="translate(-0.49536231,1028.6149)"
       id="rect848"
       inkscape:connector-curvature="0" />
    <path
       style="opacity:1;fill:#734a08;fill-opacity:1;stroke:none;stroke-width:3;stroke-linecap:square;stroke-linejoin:round;stroke-miterlimit:4;stroke-dasharray:none;stroke-opacity:1;paint-order:stroke fill markers"
       d="m 17.882812,1.0410156 v 0.00586 c -0.213153,0 -0.415187,0.020078 -0.601562,0.080078 -0.496998,0.164 -0.862037,0.537525 -1.132812,0.953125 -0.541554,0.8312 -0.761911,1.9061344 -0.841797,2.1777344 -0.412427,1.4016 -0.721918,2.7164406 -0.923829,3.6816406 -0.100956,0.4828 -0.175532,0.8763438 -0.222656,1.1523438 -0.02356,0.138 -0.03853,0.2464187 -0.04883,0.3242187 -0.0052,0.038 -0.0096,0.067656 -0.01172,0.097656 -0.0011,0.02 -0.0035,0.028594 -0.002,0.058594 7.58e-4,0.02 -0.0012,0.030031 0.01563,0.082031 0.0084,0.026 0.01808,0.067 0.07813,0.125 0.06004,0.058 0.210321,0.096406 0.298828,0.066406 0.07963,-0.026 0.07254,-0.033062 0.08203,-0.039063 0.0095,0 0.01459,-0.019531 0.01953,-0.019531 0.0099,0 0.01624,-0.021438 0.02539,-0.023437 0.01832,-0.02 0.04032,-0.034547 0.06836,-0.060547 0.05608,-0.05 0.135299,-0.1220906 0.234375,-0.2128906 0.198152,-0.182 0.478348,-0.4445781 0.820312,-0.7675782 0.68393,-0.6458 1.6138,-1.5347187 2.613282,-2.5117187 0.266111,-0.26 1.1087,-1.0033563 1.572265,-1.9101563 C 20.157564,3.8471812 20.301876,3.3341 20.191406,2.8125 20.080936,2.2911 19.708864,1.8005094 19.037109,1.4121094 18.625771,1.1743094 18.23807,1.0560156 17.882812,1.0410156 Z"
       transform="translate(-0.49536231,1028.6149)"
       id="rect845"
       inkscape:connector-curvature="0" />
    <path
       style="opacity:1;fill:#734a08;fill-opacity:1;stroke:none;stroke-width:7.14524794;stroke-linecap:square;stroke-linejoin:round;stroke-miterlimit:4;stroke-dasharray:none;stroke-opacity:1;paint-order:stroke fill markers"
       d="M 8.1621094,1.1640625 C 7.8001148,1.1840625 7.4044878,1.3011687 6.984375,1.5429688 6.3258166,1.9225687 5.9601922,2.4055687 5.8535156,2.9179688 5.7468396,3.4301687 5.8887802,3.9328 6.1132812,4.375 6.5622815,5.2596 7.3829336,5.9885594 7.578125,6.1933594 c 1.0077122,1.0582 1.9915429,1.9849781 2.726563,2.6425781 0.367509,0.3286 0.673077,0.5905313 0.888671,0.7695313 0.107798,0.09 0.19182,0.1574781 0.253907,0.2050781 0.03104,0.024 0.05528,0.042594 0.08008,0.058594 0.0124,0 0.0226,0.019344 0.04883,0.027344 0.01312,0 0.02487,0.019344 0.07813,0.027344 0.02663,0 0.06665,0.02 0.146484,0 0.07983,-0.024 0.189754,-0.1330094 0.208985,-0.2246093 0.01732,-0.082 0.0069,-0.077844 0.0059,-0.089844 -9.73e-4,-0.02 -0.003,-0.021391 -0.0039,-0.025391 -0.0018,-0.02 -0.0037,-0.021203 -0.0059,-0.033203 -0.0044,-0.024 -0.0098,-0.053844 -0.01758,-0.089844 -0.01554,-0.074 -0.03867,-0.1763937 -0.06836,-0.3085937 C 11.860545,8.8891438 11.774676,8.5142407 11.666029,8.0566407 11.448735,7.1414407 11.143106,5.8950157 10.796888,4.5410157 10.704708,4.1804157 10.48328,3.0776564 9.9297005,2.2226563 9.6529111,1.7952563 9.2803005,1.413047 8.7734505,1.248047 8.5833825,1.186047 8.3793192,1.157969 8.1621224,1.167969 Z"
       id="rect842"
       transform="translate(-0.49536231,1028.6149)"
       inkscape:connector-curvature="0" />
    <g
       id="text3782"
       style="font-style:normal;font-weight:normal;font-size:40px;line-height:125%;font-family:Sans;letter-spacing:0px;word-spacing:0px;fill:#ffffff;fill-opacity:1;stroke:none" />
    <path
       inkscape:connector-curvature="0"
       id="path3000"
       d=""
       style="fill:#000000" />
    <path
       sodipodi:type="inkscape:offset"
       inkscape:radius="0"
       inkscape:original="M 7.6660156 1029.7773 C 7.3040216 1029.7973 6.9083942 1029.9145 6.4882812 1030.1562 C 5.8297222 1030.5358 5.4640989 1031.0188 5.3574219 1031.5312 C 5.2507459 1032.0434 5.3926915 1032.5461 5.6171875 1032.9883 C 6.0661875 1033.8729 6.8868392 1034.6018 7.0820312 1034.8066 C 8.0897432 1035.8648 9.0735736 1036.7916 9.8085938 1037.4492 C 10.176102 1037.7778 10.481672 1038.0398 10.697266 1038.2188 C 10.805064 1038.3087 10.889085 1038.3762 10.951172 1038.4238 C 10.982212 1038.4478 11.00645 1038.4664 11.03125 1038.4824 C 11.04365 1038.4824 11.053848 1038.5018 11.080078 1038.5098 C 11.093198 1038.5098 11.104943 1038.5291 11.158203 1038.5371 C 11.184833 1038.5371 11.224854 1038.5571 11.304688 1038.5371 C 11.384517 1038.5131 11.494441 1038.4041 11.513672 1038.3125 C 11.530992 1038.2305 11.520531 1038.2347 11.519531 1038.2227 C 11.518558 1038.2027 11.516525 1038.2013 11.515625 1038.1973 C 11.513825 1038.1773 11.511966 1038.1761 11.509766 1038.1641 C 11.505366 1038.1401 11.499967 1038.1102 11.492188 1038.0742 C 11.476648 1038.0002 11.453518 1037.8978 11.423828 1037.7656 C 11.364438 1037.5024 11.278569 1037.1275 11.169922 1036.6699 C 10.952628 1035.7547 10.646999 1034.5083 10.300781 1033.1543 C 10.208601 1032.7937 9.9871733 1031.6909 9.4335938 1030.8359 C 9.1568043 1030.4085 8.7841938 1030.0263 8.2773438 1029.8613 C 8.0872757 1029.7993 7.8832126 1029.7712 7.6660156 1029.7812 L 7.6660156 1029.7773 z "
       style="opacity:1;fill:#734a08;fill-opacity:1;stroke:none;stroke-width:7.14524794;stroke-linecap:square;stroke-linejoin:round;stroke-miterlimit:4;stroke-dasharray:none;stroke-opacity:1;paint-order:stroke fill markers"
       id="rect842-3"
       d="m 7.6660156,1029.7773 c -0.361994,0.02 -0.7576214,0.1372 -1.1777344,0.3789 -0.658559,0.3796 -1.0241823,0.8626 -1.1308593,1.375 -0.106676,0.5122 0.03527,1.0149 0.2597656,1.4571 0.449,0.8846 1.2696517,1.6135 1.4648437,1.8183 1.007712,1.0582 1.9915424,1.985 2.7265626,2.6426 0.3675082,0.3286 0.6730782,0.5906 0.8886722,0.7696 0.107798,0.09 0.191819,0.1574 0.253906,0.205 0.03104,0.024 0.05528,0.043 0.08008,0.059 0.0124,0 0.0226,0.019 0.04883,0.027 0.01312,0 0.02487,0.019 0.07813,0.027 0.02663,0 0.06665,0.02 0.146485,0 0.07983,-0.024 0.189753,-0.133 0.208984,-0.2246 0.01732,-0.082 0.0069,-0.078 0.0059,-0.09 -9.73e-4,-0.02 -0.003,-0.021 -0.0039,-0.025 -0.0018,-0.02 -0.0037,-0.021 -0.0059,-0.033 -0.0044,-0.024 -0.0098,-0.054 -0.01758,-0.09 -0.01554,-0.074 -0.03867,-0.1764 -0.06836,-0.3086 -0.05939,-0.2632 -0.145259,-0.6381 -0.253906,-1.0957 -0.217294,-0.9152 -0.522923,-2.1616 -0.869141,-3.5156 -0.09218,-0.3606 -0.3136077,-1.4634 -0.8671872,-2.3184 -0.2767895,-0.4274 -0.6494,-0.8096 -1.15625,-0.9746 -0.1900681,-0.062 -0.3941312,-0.09 -0.6113282,-0.08 z" />
  </g>
</svg>
