<?xml version="1.0" encoding="UTF-8" standalone="no"?>
<!-- Created with Inkscape (http://www.inkscape.org/) -->

<svg
   xmlns:dc="http://purl.org/dc/elements/1.1/"
   xmlns:cc="http://creativecommons.org/ns#"
   xmlns:rdf="http://www.w3.org/1999/02/22-rdf-syntax-ns#"
   xmlns:svg="http://www.w3.org/2000/svg"
   xmlns="http://www.w3.org/2000/svg"
   xmlns:sodipodi="http://sodipodi.sourceforge.net/DTD/sodipodi-0.dtd"
   xmlns:inkscape="http://www.inkscape.org/namespaces/inkscape"
   width="32"
   height="32"
   id="svg2"
   version="1.1"
   inkscape:version="0.92.3 (2405546, 2018-03-11)"
   sodipodi:docname="wetland.svg">
  <sodipodi:namedview
     id="base"
     pagecolor="#ffffff"
     bordercolor="#666666"
     borderopacity="1.0"
     inkscape:pageopacity="0.0"
     inkscape:pageshadow="2"
     inkscape:zoom="22.627417"
     inkscape:cx="19.863672"
     inkscape:cy="18.278253"
     inkscape:document-units="px"
     inkscape:current-layer="layer1"
     showgrid="true"
     inkscape:window-width="1869"
     inkscape:window-height="1145"
     inkscape:window-x="51"
     inkscape:window-y="27"
     inkscape:window-maximized="1"
     fit-margin-top="5"
     fit-margin-left="5"
     fit-margin-right="5"
     fit-margin-bottom="5"
     inkscape:snap-global="true">
    <inkscape:grid
       snapvisiblegridlinesonly="true"
       enabled="true"
       visible="true"
       empspacing="5"
       id="grid2994"
       type="xygrid"
       originx="5"
       originy="5.0000424" />
  </sodipodi:namedview>
  <defs
     id="defs4">
    <filter
       id="filter3028"
       x="0"
       y="0"
       width="1"
       height="1"
       inkscape:label="Lightness-Contrast"
       inkscape:menu="Color"
       inkscape:menu-tooltip="Increase or decrease lightness and contrast"
       style="color-interpolation-filters:sRGB">
      <feFlood
         id="feFlood3030"
         result="result1"
         flood-opacity="0"
         flood-color="rgb(128,128,128)" />
      <feBlend
         id="feBlend3032"
         in2="SourceGraphic"
         mode="normal"
         result="result2" />
      <feComposite
         id="feComposite3034"
         in2="SourceGraphic"
         k2="1"
         operator="arithmetic"
         result="result3"
         k1="0"
         k3="0"
         k4="0" />
      <feComposite
         id="feComposite3036"
         in2="SourceGraphic"
         operator="in" />
    </filter>
    <filter
       id="filter3055"
       inkscape:label="Lightness-Contrast"
       x="0"
       y="0"
       width="1"
       height="1"
       inkscape:menu="Color"
       inkscape:menu-tooltip="Increase or decrease lightness and contrast"
       style="color-interpolation-filters:sRGB">
      <feColorMatrix
         id="feColorMatrix3057"
         type="saturate"
         values="0"
         result="fbSourceGraphic" />
      <feColorMatrix
         result="fbSourceGraphicAlpha"
         in="fbSourceGraphic"
         values="0 0 0 -1 0 0 0 0 -1 0 0 0 0 -1 0 0 0 0 1 0"
         id="feColorMatrix3079" />
      <feFlood
         id="feFlood3081"
         result="result1"
         flood-opacity="0"
         flood-color="rgb(128,128,128)"
         in="fbSourceGraphic" />
      <feBlend
         id="feBlend3083"
         in2="fbSourceGraphic"
         mode="normal"
         result="result2" />
      <feComposite
         id="feComposite3085"
         in2="fbSourceGraphic"
         k2="1"
         operator="arithmetic"
         result="result3"
         k1="0"
         k3="0"
         k4="0" />
      <feComposite
         id="feComposite3087"
         in2="fbSourceGraphic"
         operator="in" />
    </filter>
    <inkscape:perspective
       id="perspective12"
       inkscape:persp3d-origin="290 : 193.33333 : 1"
       inkscape:vp_z="580 : 290 : 1"
       inkscape:vp_y="0 : 1000 : 0"
       inkscape:vp_x="0 : 290 : 1"
       sodipodi:type="inkscape:persp3d" />
    <inkscape:perspective
       id="perspective12-1"
       inkscape:persp3d-origin="290 : 193.33333 : 1"
       inkscape:vp_z="580 : 290 : 1"
       inkscape:vp_y="0 : 1000 : 0"
       inkscape:vp_x="0 : 290 : 1"
       sodipodi:type="inkscape:persp3d" />
  </defs>
  <metadata
     id="metadata7">
    <rdf:RDF>
      <cc:Work
         rdf:about="">
        <dc:format>image/svg+xml</dc:format>
        <dc:type
           rdf:resource="http://purl.org/dc/dcmitype/StillImage" />
        <dc:title></dc:title>
      </cc:Work>
    </rdf:RDF>
  </metadata>
  <g
     transform="translate(5.0000005,-1025.3622)"
     id="layer1"
     inkscape:groupmode="layer"
     inkscape:label="Layer 1">
    <g
       id="text3782"
       style="font-style:normal;font-weight:normal;font-size:40px;line-height:125%;font-family:Sans;letter-spacing:0px;word-spacing:0px;fill:#ffffff;fill-opacity:1;stroke:none" />
    <path
       inkscape:connector-curvature="0"
       id="path3000"
       d=""
       style="fill:#000000" />
    <path
       style="fill:#0000ff;stroke-width:0.03364889"
       d="m 14.004708,1055.9482 c -0.142002,-0.045 -0.305428,-0.1381 -0.501011,-0.2857 -0.340167,-0.2566 -0.447889,-0.3168 -0.566902,-0.3168 -0.269101,0 -0.428238,-0.2622 -0.304427,-0.5016 0.06685,-0.1293 0.215902,-0.1847 0.435936,-0.1619 0.256601,0.027 0.455182,0.1409 0.955602,0.5505 0.08159,0.067 0.160064,0.095 0.294025,0.1062 0.208064,0.017 0.242983,0 0.584663,-0.2899 0.329488,-0.2795 0.525661,-0.3579 0.894355,-0.3574 0.40169,0 0.583749,0.076 0.974647,0.402 0.430937,0.3598 0.581051,0.3714 0.932726,0.072 0.443279,-0.3768 0.691817,-0.4932 1.05373,-0.4932 0.367401,0 0.604559,0.1141 1.076041,0.5173 0.112353,0.096 0.191582,0.1347 0.301674,0.1472 0.223785,0.025 0.29425,-0.01 0.580754,-0.2494 0.303436,-0.2587 0.539783,-0.3785 0.79943,-0.4053 0.224657,-0.023 0.372955,0.031 0.44033,0.1616 0.06186,0.1196 0.06186,0.2107 0,0.3303 -0.04919,0.095 -0.116726,0.1311 -0.380501,0.2027 -0.09141,0.024 -0.219349,0.1066 -0.353024,0.2259 -0.348273,0.3108 -0.676909,0.4345 -1.08427,0.4084 -0.320016,-0.021 -0.541549,-0.1262 -0.87265,-0.4161 L 19,1055.3622 h -0.225271 c -0.222125,0 -0.22797,0 -0.418535,0.1683 -0.439623,0.3827 -0.640157,0.4725 -1.045045,0.4682 -0.368761,-0.01 -0.574171,-0.089 -0.922852,-0.384 -0.454406,-0.3838 -0.593573,-0.3857 -1.030857,-0.014 -0.287456,0.2443 -0.396558,0.308 -0.637254,0.3722 -0.232547,0.062 -0.467004,0.053 -0.715479,-0.025 z"
       id="path375"
       inkscape:connector-curvature="0" />
    <path
       id="path367"
       style="fill:#008000;stroke-width:0.03364889"
       d="m 19.931623,1054.179 c -0.06618,-0.08 -0.440773,-0.2793 -0.668847,-0.3563 -0.112752,-0.038 -0.205005,-0.084 -0.205005,-0.1014 0,-0.1093 0.445831,-2.7044 0.490584,-2.8555 0.08606,-0.2906 0.212176,-0.4934 0.438581,-0.7051 0.361353,-0.3381 0.720717,-0.4592 1.282037,-0.4322 0.333672,0.016 0.561484,0.087 0.816811,0.2535 0.08345,0.054 0.08286,0.055 -0.167374,0.1164 -0.30771,0.076 -0.565187,0.226 -0.764207,0.4463 -0.275396,0.3048 -0.285222,0.3397 -0.52969,1.8866 -0.122771,0.7768 -0.23091,1.4517 -0.240311,1.4996 -0.01055,0.053 -0.07482,0.1277 -0.16801,0.1934 -0.169368,0.1194 -0.222414,0.1296 -0.284569,0.055 z m -5.22527,-1.5214 c -0.228462,-1.3661 -0.276401,-1.6009 -0.364326,-1.7844 -0.18564,-0.3874 -0.556927,-0.6737 -1.01293,-0.781 l -0.22708,-0.053 0.176607,-0.1066 c 0.235735,-0.1423 0.516641,-0.2105 0.865067,-0.21 0.481431,0 0.814659,0.1225 1.135652,0.4154 0.229723,0.2095 0.355801,0.4011 0.443836,0.6741 0.06824,0.2117 0.598554,3.3397 0.570889,3.3674 -0.0085,0.01 -0.09048,-0.01 -0.182145,-0.036 -0.246638,-0.076 -0.661153,-0.068 -0.914301,0.017 -0.115084,0.039 -0.213507,0.071 -0.218718,0.071 -0.0052,0 -0.127858,-0.7079 -0.272551,-1.5731 z m 2.252261,1.8242 c -0.09039,-0.062 -0.208475,-0.1303 -0.262408,-0.1527 -0.08168,-0.034 -0.09504,-0.055 -0.07998,-0.1284 0.0099,-0.048 0.207124,-1.231 0.438173,-2.6283 0.231048,-1.3972 0.444779,-2.6237 0.474955,-2.7255 0.08619,-0.2907 0.212288,-0.4934 0.438647,-0.7052 0.361353,-0.338 0.72072,-0.4592 1.282036,-0.4321 0.333671,0.016 0.561485,0.087 0.816813,0.2535 0.08344,0.054 0.08286,0.055 -0.167375,0.1164 -0.307708,0.076 -0.565184,0.2259 -0.764206,0.4462 -0.288629,0.3194 -0.269104,0.2368 -0.721425,3.0539 L 18,1054.1571 l -0.135683,0.041 c -0.168549,0.05 -0.506001,0.2191 -0.640414,0.3201 l -0.100946,0.076 z" />
    <path
       inkscape:connector-curvature="0"
       style="fill:#0000ff;stroke-width:0.03364889"
       d="m 0.0047075,1040.0643 c -0.142002,-0.045 -0.305428,-0.1381 -0.50101,-0.2857 -0.340167,-0.2566 -0.447889,-0.3168 -0.566903,-0.3168 -0.269101,0 -0.428238,-0.2622 -0.304427,-0.5016 0.06685,-0.1293 0.215902,-0.1847 0.435937,-0.1619 0.256601,0.027 0.455182,0.1409 0.955602,0.5505 0.08159,0.067 0.160064,0.095 0.294025,0.1062 0.208064,0.017 0.242983,0 0.584662,-0.2899 0.329488,-0.2795 0.525661,-0.3579 0.894357,-0.3574 0.401688,0 0.583748,0.076 0.974646,0.402 0.430937,0.3598 0.58105,0.3714 0.932725,0.072 0.443279,-0.3768 0.691817,-0.4932 1.05373,-0.4932 0.367401,0 0.604559,0.1141 1.076041,0.5173 0.112353,0.096 0.191582,0.1347 0.301674,0.1472 0.223785,0.025 0.29425,-0.01 0.580754,-0.2494 0.303436,-0.2587 0.539783,-0.3785 0.799431,-0.4053 0.224657,-0.023 0.372956,0.031 0.44033,0.1616 0.06186,0.1196 0.06186,0.2107 0,0.3303 -0.04919,0.095 -0.116726,0.1311 -0.3805,0.2027 -0.09141,0.024 -0.219349,0.1066 -0.353025,0.2259 -0.348272,0.3108 -0.676909,0.4345 -1.08427,0.4084 -0.320014,-0.021 -0.541549,-0.1262 -0.87265,-0.4161 l -0.265837,-0.2328 h -0.225271 c -0.222124,0 -0.22797,0 -0.418534,0.1683 -0.439624,0.3827 -0.640158,0.4725 -1.045046,0.4682 -0.368759,-0.01 -0.574171,-0.089 -0.922852,-0.384 -0.454406,-0.3838 -0.593573,-0.3857 -1.030857,-0.014 -0.287455,0.2443 -0.396558,0.308 -0.637254,0.3722 -0.232547,0.062 -0.467004,0.053 -0.715479,-0.025 z"
       id="path375-2" />
    <path
       inkscape:connector-curvature="0"
       id="path367-9"
       style="fill:#008000;stroke-width:0.03364889"
       d="m 5.9316225,1038.3841 c -0.06618,-0.08 -0.440773,-0.2793 -0.668847,-0.3563 -0.112752,-0.038 -0.205005,-0.084 -0.205005,-0.1014 0,-0.1093 0.445831,-2.7044 0.490584,-2.8555 0.08606,-0.2906 0.212176,-0.4934 0.438581,-0.7051 0.361353,-0.3381 0.720717,-0.4592 1.282037,-0.4322 0.333672,0.016 0.561484,0.087 0.816811,0.2535 0.08345,0.054 0.08286,0.055 -0.167374,0.1164 -0.30771,0.076 -0.565187,0.226 -0.764207,0.4463 -0.275396,0.3048 -0.285222,0.3397 -0.52969,1.8866 -0.122771,0.7768 -0.23091,1.4517 -0.240311,1.4996 -0.01055,0.053 -0.07482,0.1277 -0.16801,0.1934 -0.169368,0.1194 -0.222414,0.1296 -0.284569,0.055 z m -5.22527,-1.5214 c -0.228462,-1.3661 -0.276401,-1.6009 -0.364326,-1.7844 -0.18564,-0.3874 -0.556928,-0.6737 -1.01293,-0.781 l -0.22708,-0.053 0.176607,-0.1066 c 0.235735,-0.1423 0.516641,-0.2105 0.865067,-0.21 0.481431,0 0.814659,0.1225 1.135652,0.4154 0.229723,0.2095 0.355801,0.4011 0.443836,0.6741 0.06824,0.2117 0.598554,3.3397 0.570889,3.3674 -0.0085,0.01 -0.09048,-0.01 -0.182145,-0.036 -0.246638,-0.076 -0.661153,-0.068 -0.914301,0.017 -0.115084,0.039 -0.213507,0.071 -0.218719,0.071 -0.0052,0 -0.127857,-0.7079 -0.27255,-1.5731 z m 2.252261,1.8242 c -0.09039,-0.062 -0.208475,-0.1303 -0.262408,-0.1527 -0.08168,-0.034 -0.09504,-0.055 -0.07998,-0.1284 0.0099,-0.048 0.207124,-1.231 0.438173,-2.6283 0.231048,-1.3972 0.444779,-2.6237 0.474955,-2.7255 0.08619,-0.2907 0.212288,-0.4934 0.438647,-0.7052 0.361353,-0.338 0.72072,-0.4592 1.282036,-0.4321 0.333671,0.016 0.561485,0.087 0.816813,0.2535 0.08344,0.054 0.08286,0.055 -0.167375,0.1164 -0.307708,0.076 -0.565184,0.2259 -0.764206,0.4462 -0.288629,0.3194 -0.269104,0.2368 -0.721425,3.0539 l -0.413844,2.5775 -0.135683,0.041 c -0.168549,0.05 -0.506001,0.2191 -0.640414,0.3201 l -0.100946,0.076 z" />
    <path
       style="fill:#0000ff;stroke-width:0.02063319"
       d="m 18.121755,1034.9482 c -0.05339,-0.045 -0.114841,-0.1381 -0.188381,-0.2857 -0.127905,-0.2566 -0.168408,-0.3168 -0.213158,-0.3168 -0.101183,0 -0.161018,-0.2622 -0.114464,-0.5016 0.02513,-0.1293 0.08118,-0.1847 0.163911,-0.1619 0.09648,0.027 0.171151,0.1409 0.35931,0.5505 0.03068,0.067 0.06018,0.095 0.110554,0.1062 0.07823,0.017 0.09136,0 0.219835,-0.2899 0.123889,-0.2795 0.19765,-0.3579 0.33628,-0.3574 0.151037,0 0.219491,0.076 0.36647,0.402 0.162034,0.3598 0.218477,0.3714 0.350708,0.072 0.166674,-0.3768 0.260125,-0.4932 0.396205,-0.4932 0.138144,0 0.227316,0.1141 0.404595,0.5173 0.04224,0.096 0.07203,0.1347 0.11343,0.1472 0.08414,0.025 0.110639,-0.01 0.218365,-0.2494 0.114093,-0.2587 0.20296,-0.3785 0.300588,-0.4053 0.08447,-0.023 0.140232,0.031 0.165566,0.1616 0.02326,0.1196 0.02326,0.2107 0,0.3303 -0.0185,0.095 -0.04389,0.1311 -0.14307,0.2027 -0.03437,0.024 -0.08248,0.1066 -0.132738,0.2259 -0.130952,0.3108 -0.25452,0.4345 -0.407688,0.4084 -0.120327,-0.021 -0.203624,-0.1262 -0.328119,-0.4161 L 20,1034.3622 h -0.0847 c -0.08352,0 -0.08572,0 -0.15737,0.1683 -0.1653,0.3827 -0.240701,0.4725 -0.39294,0.4682 -0.138656,-0.01 -0.21589,-0.089 -0.346995,-0.384 -0.170857,-0.3838 -0.223185,-0.3857 -0.387606,-0.014 -0.108084,0.2443 -0.149107,0.308 -0.239609,0.3722 -0.08744,0.062 -0.175595,0.053 -0.269022,-0.025 z"
       id="path375-1"
       inkscape:connector-curvature="0" />
    <path
       style="fill:#0000ff;stroke-width:0.02063319"
       d="m 10.999997,1028.3625 c -0.05339,-0.045 -0.114841,-0.1381 -0.188381,-0.2857 -0.127905,-0.2566 -0.168408,-0.3168 -0.213158,-0.3168 -0.101183,0 -0.161018,-0.2622 -0.114464,-0.5016 0.02513,-0.1293 0.08118,-0.1847 0.163911,-0.1619 0.09648,0.027 0.171151,0.1409 0.35931,0.5505 0.03068,0.067 0.06018,0.095 0.110554,0.1062 0.07823,0.017 0.09136,0 0.219835,-0.2899 0.123889,-0.2795 0.19765,-0.3579 0.33628,-0.3574 0.151037,0 0.219491,0.076 0.36647,0.402 0.162034,0.3598 0.218477,0.3714 0.350708,0.072 0.166674,-0.3768 0.260125,-0.4932 0.396205,-0.4932 0.138144,0 0.227316,0.1141 0.404595,0.5173 0.04224,0.096 0.07203,0.1347 0.11343,0.1472 0.08414,0.025 0.110639,-0.01 0.218365,-0.2494 0.114093,-0.2587 0.20296,-0.3785 0.300588,-0.4053 0.08447,-0.023 0.140232,0.031 0.165566,0.1616 0.02326,0.1196 0.02326,0.2107 0,0.3303 -0.0185,0.095 -0.04389,0.1311 -0.143071,0.2027 -0.03437,0.024 -0.08248,0.1066 -0.132738,0.2259 -0.130952,0.3108 -0.254519,0.4345 -0.407688,0.4084 -0.120326,-0.021 -0.203624,-0.1262 -0.328119,-0.4161 l -0.09995,-0.2328 h -0.0847 c -0.08352,0 -0.08572,0 -0.15737,0.1683 -0.1653,0.3827 -0.240701,0.4725 -0.39294,0.4682 -0.138656,-0.01 -0.21589,-0.089 -0.346995,-0.384 -0.170857,-0.3838 -0.223185,-0.3857 -0.387606,-0.014 -0.108084,0.2443 -0.149107,0.308 -0.239609,0.3722 -0.08744,0.062 -0.175595,0.053 -0.269022,-0.025 z"
       id="path375-1-2"
       inkscape:connector-curvature="0" />
    <path
       style="fill:#0000ff;stroke-width:0.02063319"
       d="m 6.1217545,1046.9482 c -0.05339,-0.045 -0.114841,-0.1381 -0.188381,-0.2857 -0.127905,-0.2566 -0.168408,-0.3168 -0.213158,-0.3168 -0.101183,0 -0.161018,-0.2622 -0.114464,-0.5016 0.02513,-0.1293 0.08118,-0.1847 0.163911,-0.1619 0.09648,0.027 0.171151,0.1409 0.35931,0.5505 0.03068,0.067 0.06018,0.095 0.110554,0.1062 0.07823,0.017 0.09136,0 0.219835,-0.2899 0.123889,-0.2795 0.19765,-0.3579 0.33628,-0.3574 0.151037,0 0.219491,0.076 0.36647,0.402 0.162034,0.3598 0.218477,0.3714 0.350708,0.072 0.166674,-0.3768 0.260125,-0.4932 0.396205,-0.4932 0.138144,0 0.227316,0.1141 0.404595,0.5173 0.04224,0.096 0.07203,0.1347 0.11343,0.1472 0.08414,0.025 0.110639,-0.01 0.218365,-0.2494 0.114093,-0.2587 0.20296,-0.3785 0.300588,-0.4053 0.08447,-0.023 0.140232,0.031 0.165566,0.1616 0.02326,0.1196 0.02326,0.2107 0,0.3303 -0.0185,0.095 -0.04389,0.1311 -0.14307,0.2027 -0.03437,0.024 -0.08248,0.1066 -0.132738,0.2259 -0.130952,0.3108 -0.25452,0.4345 -0.407688,0.4084 -0.120327,-0.021 -0.203624,-0.1262 -0.328119,-0.4161 l -0.099954,-0.2328 h -0.0847 c -0.08352,0 -0.08572,0 -0.15737,0.1683 -0.1653,0.3827 -0.240701,0.4725 -0.39294,0.4682 -0.138656,-0.01 -0.21589,-0.089 -0.346995,-0.384 -0.170857,-0.3838 -0.223185,-0.3857 -0.387606,-0.014 -0.108084,0.2443 -0.149107,0.308 -0.239609,0.3722 -0.08744,0.062 -0.175595,0.053 -0.269022,-0.025 z"
       id="path375-1-7"
       inkscape:connector-curvature="0" />
    <path
       style="fill:#0000ff;stroke-width:0.02063319"
       d="m 19.999997,1043.3625 c -0.05339,-0.045 -0.114841,-0.1381 -0.188381,-0.2857 -0.127905,-0.2566 -0.168408,-0.3168 -0.213158,-0.3168 -0.101183,0 -0.161018,-0.2622 -0.114464,-0.5016 0.02513,-0.1293 0.08118,-0.1847 0.163911,-0.1619 0.09648,0.027 0.17115,0.1409 0.35931,0.5505 0.03068,0.067 0.06018,0.095 0.110554,0.1062 0.07823,0.017 0.09136,0 0.219835,-0.2899 0.123889,-0.2795 0.19765,-0.3579 0.33628,-0.3574 0.151036,0 0.219491,0.076 0.36647,0.402 0.162033,0.3598 0.218477,0.3714 0.350708,0.072 0.166674,-0.3768 0.260125,-0.4932 0.396204,-0.4932 0.138145,0 0.227316,0.1141 0.404596,0.5173 0.04224,0.096 0.07203,0.1347 0.11343,0.1472 0.08414,0.025 0.110639,-0.01 0.218365,-0.2494 0.114093,-0.2587 0.20296,-0.3785 0.300588,-0.4053 0.08447,-0.023 0.140232,0.031 0.165565,0.1616 0.02326,0.1196 0.02326,0.2107 0,0.3303 -0.0185,0.095 -0.04389,0.1311 -0.14307,0.2027 -0.03437,0.024 -0.08248,0.1066 -0.132738,0.2259 -0.130952,0.3108 -0.25452,0.4345 -0.407688,0.4084 -0.120327,-0.021 -0.203624,-0.1262 -0.328119,-0.4161 l -0.09995,-0.2328 h -0.0847 c -0.08352,0 -0.08572,0 -0.15737,0.1683 -0.1653,0.3827 -0.240701,0.4725 -0.39294,0.4682 -0.138656,-0.01 -0.21589,-0.089 -0.346995,-0.384 -0.170857,-0.3838 -0.223185,-0.3857 -0.387606,-0.014 -0.108085,0.2443 -0.149107,0.308 -0.23961,0.3722 -0.08744,0.062 -0.175595,0.053 -0.269021,-0.025 z"
       id="path375-1-0"
       inkscape:connector-curvature="0" />
    <path
       style="fill:#0000ff;stroke-width:0.02063319"
       d="m -2.0000035,1054.3625 c -0.05339,-0.045 -0.114841,-0.1381 -0.188381,-0.2857 -0.127905,-0.2566 -0.168408,-0.3168 -0.213158,-0.3168 -0.101183,0 -0.161018,-0.2622 -0.114464,-0.5016 0.02513,-0.1293 0.08118,-0.1847 0.163911,-0.1619 0.09648,0.027 0.171151,0.1409 0.35931,0.5505 0.03068,0.067 0.06018,0.095 0.110554,0.1062 0.07823,0.017 0.09136,0 0.219835,-0.2899 0.123889,-0.2795 0.19765,-0.3579 0.33628,-0.3574 0.151037,0 0.219491,0.076 0.36647,0.402 0.162034,0.3598 0.218477,0.3714 0.350708,0.072 0.166674,-0.3768 0.260125,-0.4932 0.396205,-0.4932 0.138144,0 0.227316,0.1141 0.404595,0.5173 0.04224,0.096 0.07203,0.1347 0.11343,0.1472 0.08414,0.025 0.110639,-0.01 0.218365,-0.2494 0.114093,-0.2587 0.20296,-0.3785 0.300588,-0.4053 0.08447,-0.023 0.140232,0.031 0.165566,0.1616 0.02326,0.1196 0.02326,0.2107 0,0.3303 -0.0185,0.095 -0.04389,0.1311 -0.14307,0.2027 -0.03437,0.024 -0.08248,0.1066 -0.132738,0.2259 -0.130952,0.3108 -0.25452,0.4345 -0.407688,0.4084 -0.120327,-0.021 -0.203624,-0.1262 -0.328119,-0.4161 l -0.099954,-0.2328 h -0.0847 c -0.08352,0 -0.08572,0 -0.15737,0.1683 -0.1653,0.3827 -0.240701,0.4725 -0.39294,0.4682 -0.138656,-0.01 -0.21589,-0.089 -0.346995,-0.384 -0.170857,-0.3838 -0.223185,-0.3857 -0.387606,-0.014 -0.108084,0.2443 -0.149107,0.308 -0.239609,0.3722 -0.08744,0.062 -0.175595,0.053 -0.269022,-0.025 z"
       id="path375-1-9"
       inkscape:connector-curvature="0" />
    <path
       style="fill:#0000ff;stroke-width:0.02063319"
       d="m -2.8782455,1029.9482 c -0.05339,-0.045 -0.114841,-0.1381 -0.188381,-0.2857 -0.127905,-0.2566 -0.168408,-0.3168 -0.213158,-0.3168 -0.101183,0 -0.161018,-0.2622 -0.114464,-0.5016 0.02513,-0.1293 0.08118,-0.1847 0.163911,-0.1619 0.09648,0.027 0.171151,0.1409 0.35931,0.5505 0.03068,0.067 0.06018,0.095 0.110554,0.1062 0.07823,0.017 0.09136,0 0.219835,-0.2899 0.123889,-0.2795 0.19765,-0.3579 0.33628,-0.3574 0.151037,0 0.219491,0.076 0.36647,0.402 0.162034,0.3598 0.218477,0.3714 0.350708,0.072 0.166674,-0.3768 0.260125,-0.4932 0.396205,-0.4932 0.138144,0 0.227316,0.1141 0.404595,0.5173 0.04224,0.096 0.07203,0.1347 0.11343,0.1472 0.08414,0.025 0.110639,-0.01 0.218365,-0.2494 0.114093,-0.2587 0.20296,-0.3785 0.300588,-0.4053 0.08447,-0.023 0.140232,0.031 0.165566,0.1616 0.02326,0.1196 0.02326,0.2107 0,0.3303 -0.0185,0.095 -0.04389,0.1311 -0.14307,0.2027 -0.03437,0.024 -0.08248,0.1066 -0.132738,0.2259 -0.130952,0.3108 -0.25452,0.4345 -0.407688,0.4084 -0.120327,-0.021 -0.203624,-0.1262 -0.328119,-0.4161 l -0.099954,-0.2328 h -0.0847 c -0.08352,0 -0.08572,0 -0.15737,0.1683 -0.1653,0.3827 -0.240701,0.4725 -0.39294,0.4682 -0.138656,-0.01 -0.21589,-0.089 -0.346995,-0.384 -0.170857,-0.3838 -0.223185,-0.3857 -0.387606,-0.014 -0.108084,0.2443 -0.149107,0.308 -0.239609,0.3722 -0.08744,0.062 -0.175595,0.053 -0.269022,-0.025 z"
       id="path375-1-3"
       inkscape:connector-curvature="0" />
  </g>
</svg>
